<?xml version="1.0"?>
<svg xmlns="http://www.w3.org/2000/svg" clip-rule="evenodd" fill-rule="evenodd" stroke-linejoin="round" stroke-miterlimit="2" viewBox="0 0 190 65">
  <g fill="#000" fill-rule="nonzero">
    <path d="m105.2 10.997c-7.522 0-13.64 6.117-13.64 13.639 0 .679.049 1.355.148 2.013.219 1.485 1.602 2.509 3.086 2.288 1.485-.22 2.51-1.603 2.289-3.087-.058-.393-.088-.802-.088-1.214 0-4.524 3.68-8.205 8.205-8.205 4.524 0 8.205 3.681 8.205 8.205s-3.681 8.205-8.205 8.205h-10.551c-4.607 0-8.356-3.749-8.356-8.357v-21.767c0-1.5-1.217-2.717-2.717-2.717-1.502 0-2.718 1.217-2.718 2.717v21.767c0 7.604 6.187 13.792 13.791 13.792h10.551c7.521 0 13.639-6.12 13.639-13.64 0-7.522-6.118-13.639-13.639-13.639z" transform="matrix(.844444 0 0 .844444 20 10.5554)"/>
    <path d="m64.043 10.997c-6.365 0-9.86 3.52-12.667 6.349-2.619 2.639-4.688 4.724-8.752 4.724-4.608 0-8.358-3.749-8.358-8.357 0-1.5-1.216-2.716-2.717-2.716-1.5 0-2.717 1.216-2.717 2.716 0 3.156 1.069 6.068 2.859 8.393-4.341.949-7.048 3.703-9.305 6.001-2.6 2.644-4.652 4.734-8.746 4.734-4.524 0-8.204-3.681-8.204-8.205s3.68-8.205 8.204-8.205c2.3 0 4.464.974 5.993 2.605l-9.097 4.712c-1.333.69-1.853 2.33-1.163 3.663.691 1.333 2.331 1.853 3.663 1.163l11.774-6.1c1.29-.668 1.827-2.233 1.217-3.551-2.223-4.816-7.086-7.926-12.387-7.926-7.522 0-13.64 6.117-13.64 13.639 0 7.52 6.118 13.64 13.64 13.64 6.373 0 9.838-3.528 12.622-6.36 2.588-2.633 4.632-4.716 8.689-4.716 4.607 0 8.357 3.75 8.357 8.357 0 1.501 1.217 2.719 2.717 2.719 1.501 0 2.718-1.218 2.718-2.719 0-3.152-1.066-6.058-2.852-8.385 4.301-.918 6.951-3.588 9.342-5.998 2.63-2.65 4.708-4.743 8.81-4.743 5.171 0 8.373 4.346 8.373 8.373 0 4.507-3.67 8.037-8.355 8.037-2.724 0-5.284-1.335-6.85-3.567-.681-.97-1.913-1.389-3.043-1.031-1.131.356-1.9 1.406-1.9 2.591v18.424c0 1.5 1.218 2.716 2.718 2.716s2.717-1.216 2.717-2.716v-12.538c1.938 1.006 4.115 1.556 6.358 1.556 7.732 0 13.79-5.919 13.79-13.472 0-6.641-5.279-13.807-13.808-13.807z" transform="matrix(.844444 0 0 .844444 20 10.5554)"/>
    <path d="m177.284 10.997c-7.605 0-13.792 6.186-13.792 13.79v8.054h-14.546c-4.523 0-8.205-3.681-8.205-8.205s3.682-8.205 8.205-8.205c2.3 0 4.463.974 5.994 2.605l-9.097 4.712c-1.334.69-1.854 2.33-1.164 3.663s2.33 1.853 3.663 1.163l11.775-6.1c1.289-.668 1.825-2.233 1.217-3.551-2.224-4.816-7.087-7.926-12.388-7.926h-13.428c-7.603 0-13.791 6.186-13.791 13.79v10.77c0 1.501 1.216 2.719 2.718 2.719 1.5 0 2.716-1.218 2.716-2.719v-10.77c0-4.608 3.75-8.356 8.357-8.356h2.541c-1.725 2.285-2.753 5.127-2.753 8.205 0 7.52 6.118 13.64 13.64 13.64h17.263c1.502 0 2.717-1.218 2.717-2.719v-10.77c0-4.608 3.749-8.356 8.358-8.356 1.5 0 2.716-1.216 2.716-2.718 0-1.5-1.216-2.716-2.716-2.716z" transform="matrix(.844444 0 0 .844444 20 10.5554)"/>
    <g transform="matrix(.703386 0 0 .703386 37.1706 17.8868)">
      <path d="m128.259 46.517h-4.747v-3.79h-1.785v9.184h1.785v-3.918h4.747v3.918h1.787v-9.184h-1.787z"/>
      <path d="m137.204 50.498c-1.99 0-2.985-1.068-2.985-3.204 0-2.104.995-3.154 2.985-3.154 1.939 0 2.908 1.05 2.908 3.154 0 2.136-.969 3.204-2.908 3.204zm0-7.835c-3.226 0-4.836 1.555-4.836 4.669.142 3.095 1.755 4.642 4.836 4.642 3.175 0 4.761-1.547 4.761-4.642 0-3.114-1.586-4.669-4.761-4.669z"/>
      <path d="m143.513 44.204h2.762v7.707h1.785v-7.707h2.762v-1.477h-7.309z"/>
      <path d="m154.978 48.027h4.345v-1.524h-4.327v-2.312h4.554v-1.464h-6.326v9.184h6.421v-1.477h-4.667z"/>
      <path d="m164.617 42.727h-1.786v9.184h6.283v-1.477h-4.497z"/>
      <path d="m171.53 51.489v-1.535c.917.341 1.954.511 3.11.511 1.403 0 2.105-.469 2.105-1.407 0-.682-.431-1.024-1.293-1.024h-1.561c-1.873 0-2.809-.853-2.809-2.559 0-1.878 1.333-2.816 4-2.816 1.023 0 1.993.15 2.91.448v1.536c-.917-.341-1.887-.512-2.91-.512-1.536 0-2.304.448-2.304 1.344 0 .682.371 1.023 1.113 1.023h1.561c1.992 0 2.989.854 2.989 2.56 0 1.919-1.267 2.879-3.801 2.879-1.156 0-2.193-.149-3.11-.448z"/>
    </g>
  </g>
</svg>
