<?xml version="1.0" encoding="UTF-8" standalone="no"?>
<svg xmlns:dc="http://purl.org/dc/elements/1.1/" xmlns:cc="http://creativecommons.org/ns#" xmlns:rdf="http://www.w3.org/1999/02/22-rdf-syntax-ns#" xmlns:svg="http://www.w3.org/2000/svg" xmlns="http://www.w3.org/2000/svg" viewBox="0 0 268.23999 75.946671" height="75.946671" width="268.23999" xml:space="preserve" id="svg2" version="1.1"><metadata id="metadata8"><rdf:RDF><cc:Work rdf:about=""><dc:format>image/svg+xml</dc:format><dc:type rdf:resource="http://purl.org/dc/dcmitype/StillImage"/></cc:Work></rdf:RDF></metadata><defs id="defs6"/><g transform="matrix(1.3333333,0,0,-1.3333333,0,75.946667)" id="g10"><g transform="scale(0.1)" id="g12"><path id="path14" style="fill:#ffffff;fill-opacity:1;fill-rule:nonzero;stroke:none" d="M 135.684,42.5195 V 373.398 c 0,39.915 -4.621,58.809 -30.664,58.809 -44.1137,0 -64.27,-31.082 -64.27,-31.082 V 283.926 l 4.1992,-31.504 H 5.45703 V 420.449 L 0,459.094 l 40.75,4.629 v -31.516 c 17.6367,19.328 47.4609,32.773 75.188,32.773 27.722,0 55.027,-15.964 55.027,-49.57 V 100.871 42.5195 h -35.281"/><path id="path16" style="fill:#ffffff;fill-opacity:1;fill-rule:nonzero;stroke:none" d="m 259.988,382.648 h 86.535 c -1.261,21.836 -9.25,55.45 -38.234,55.45 -28.562,0 -42.422,-25.207 -48.301,-55.45 z m 124.758,-15.968 -9.66,-10.918 H 257.879 c 0.84,-37.813 18.488,-76.453 59.238,-76.453 35.703,0 65.949,28.562 65.949,28.562 l 5.879,-31.922 c 0,0 -29.824,-28.984 -81.914,-28.984 -55.031,0 -86.535,52.93 -86.535,105.008 0,59.238 28.567,113.429 92.844,113.429 65.527,0 70.566,-72.675 71.406,-98.722"/><path id="path18" style="fill:#ffffff;fill-opacity:1;fill-rule:nonzero;stroke:none" d="m 421.668,305.352 c 0,0 23.945,-28.145 59.648,-28.145 20.168,0 36.973,7.141 36.973,28.145 0,37.804 -102.5,35.703 -102.5,98.293 0,37.812 30.664,61.757 70.156,61.757 32.344,0 49.981,-7.988 60.489,-14.289 l -10.079,-33.601 c -16.386,16.804 -38.23,21.004 -53.769,21.004 -17.227,0 -31.094,-10.926 -31.094,-24.786 0,-44.949 102.5,-35.292 102.5,-102.917 0,-37.383 -28.562,-63.848 -73.094,-63.848 -42.843,0 -63.007,24.355 -63.007,24.355 l 3.777,34.032"/><path id="path20" style="fill:#ffffff;fill-opacity:1;fill-rule:nonzero;stroke:none" d="m 590.508,305.352 c 0,0 23.945,-28.145 59.648,-28.145 20.164,0 36.973,7.141 36.973,28.145 0,37.804 -102.5,35.703 -102.5,98.293 0,37.812 30.664,61.757 70.156,61.757 32.344,0 49.981,-7.988 60.488,-14.289 l -10.078,-33.601 c -16.386,16.804 -38.234,21.004 -53.769,21.004 -17.227,0 -31.094,-10.926 -31.094,-24.786 0,-44.949 102.5,-35.292 102.5,-102.917 0,-37.383 -28.566,-63.848 -73.098,-63.848 -42.839,0 -63.007,24.355 -63.007,24.355 l 3.781,34.032"/><path id="path22" style="fill:#ffffff;fill-opacity:1;fill-rule:nonzero;stroke:none" d="m 793.789,382.648 h 86.531 c -1.257,21.836 -9.238,55.45 -38.222,55.45 -28.563,0 -42.43,-25.207 -48.309,-55.45 z M 918.555,366.68 908.887,355.762 H 791.688 c 0.839,-37.813 18.488,-76.453 59.23,-76.453 35.703,0 65.957,28.562 65.957,28.562 l 5.879,-31.922 c 0,0 -29.824,-28.984 -81.914,-28.984 -55.031,0 -86.535,52.93 -86.535,105.008 0,59.238 28.566,113.429 92.832,113.429 65.527,0 70.578,-72.675 71.418,-98.722"/><path id="path24" style="fill:#ffffff;fill-opacity:1;fill-rule:nonzero;stroke:none" d="m 1004.21,283.926 4.2,-31.504 h -39.484 v 273.887 l -5.461,38.644 40.745,4.629 V 283.926"/><path id="path26" style="fill:#ffffff;fill-opacity:1;fill-rule:nonzero;stroke:none" d="m 1283.53,246.965 -29.4,5.457 -50.41,147.863 -62.17,-153.32 -29.4,5.457 -57.55,171.808 -18.49,34.864 39.91,5.469 48.73,-139.895 6.3,-30.242 8.82,30.242 46.63,118.469 -8.41,15.957 40.76,5.469 47.89,-140.313 5.88,-29.824 8.81,30.242 52.93,134.426 36.14,5.469 -86.97,-217.598"/><path id="path28" style="fill:#ffffff;fill-opacity:1;fill-rule:nonzero;stroke:none" d="m 1501.07,303.254 v 46.621 c -10.91,-0.422 -80.23,-1.68 -80.23,-44.523 0,-13.446 9.67,-28.145 31.92,-28.145 18.49,0 39.91,16.379 48.31,26.047 z m -110.06,129.375 c 0,0 26.89,32.351 82.34,32.351 32.76,0 63.01,-14.285 63.01,-53.769 V 299.895 c 0,-25.207 18.9,-47.473 18.9,-47.473 l -39.06,-5.457 c 0,0 -11.77,15.957 -12.19,34.441 -11.34,-17.226 -40.74,-34.441 -66.78,-34.441 -28.57,0 -54.19,20.996 -54.19,52.078 0,46.633 48.73,77.715 118.03,77.715 v 15.129 c 0,33.601 -14.27,44.949 -31.5,44.949 -38.64,0 -59.65,-31.512 -59.65,-31.512 l -18.91,27.305"/><path id="path30" style="fill:#ffffff;fill-opacity:1;fill-rule:nonzero;stroke:none" d="m 1734.59,252.422 v 120.976 c 0,39.915 -4.62,58.809 -30.67,58.809 -44.1,0 -64.26,-31.082 -64.26,-31.082 V 283.926 l 4.2,-31.504 h -39.5 v 168.027 l -5.45,38.645 40.75,4.629 v -31.516 c 17.63,19.328 47.47,32.773 75.19,32.773 27.73,0 55.03,-15.964 55.03,-49.57 V 283.086 l 4.2,-30.664 h -39.49"/><path id="path32" style="fill:#ffffff;fill-opacity:1;fill-rule:nonzero;stroke:none" d="m 1903.42,328.039 c 23.52,0 43.27,24.774 43.27,55.449 0,30.664 -19.75,55.867 -43.27,55.867 -23.53,0 -44.53,-25.203 -44.53,-55.867 0,-30.675 21,-55.449 44.53,-55.449 z m -34.03,-20.168 c -8.4,-10.508 -11.76,-18.066 -11.76,-23.523 0,-34.446 141.98,18.066 141.98,-64.27 0,-44.949 -51.24,-69.734 -99.55,-69.734 -76.04,0 -87.38,44.531 -87.38,44.531 l 26.05,23.945 c 10.5,-30.254 39.48,-41.593 65.95,-41.593 31.08,0 57.13,14.707 57.13,33.183 0,51.25 -133.59,-7.976 -133.59,65.117 0,17.637 15.13,34.864 23.53,42.422 -17.23,13.867 -29.41,36.555 -29.41,63.438 0,48.301 35.29,84.015 86.96,84.015 27.3,0 39.91,-11.769 39.91,-11.769 l 7.56,5.461 h 55.03 l -8.4,-28.567 h -33.62 c 8.83,-10.918 13.87,-27.304 13.87,-43.261 0,-57.547 -40.33,-85.274 -82.75,-85.274 -10.51,0 -20.59,1.68 -31.51,5.879"/><path id="path34" style="fill:#ffffff;fill-opacity:1;fill-rule:nonzero;stroke:none" d="m 255.789,55.6445 1.758,-13.125 h -17.508 v 99.0625 l -2.266,16.106 h 18.016 V 55.6445"/><path id="path36" style="fill:#ffffff;fill-opacity:1;fill-rule:nonzero;stroke:none" d="m 342.422,42.5195 v 50.4102 c 0,16.6213 -1.926,24.5043 -12.774,24.5043 -18.378,0 -26.777,-12.95 -26.777,-12.95 V 55.6445 l 1.746,-13.125 h -16.453 v 70.0195 l -2.277,16.094 16.984,1.926 v -13.125 c 7.344,8.054 19.774,13.652 31.328,13.652 9.278,0 18.379,-4.551 21.699,-13.652 7.352,8.054 19.774,13.652 31.329,13.652 11.55,0 22.929,-6.652 22.929,-20.656 V 55.3047 l 1.746,-12.7852 h -16.453 v 50.4102 c 0,16.6213 -1.926,24.5043 -12.773,24.5043 -14.004,0 -22.403,-7.883 -25.547,-11.379 V 55.3047 l 1.746,-12.7852 h -16.453"/><path id="path38" style="fill:#ffffff;fill-opacity:1;fill-rule:nonzero;stroke:none" d="m 497.461,85.9297 h 33.777 l -14.519,40.2543 -1.75,6.824 -2.098,-7 z m 13.133,71.7583 10.676,2.273 35.703,-98.1837 8.75,-19.2578 H 546.641 L 535.613,72.6289 H 492.742 L 481.367,42.5195 h -15.234 l 44.461,115.1685"/><path id="path40" style="fill:#ffffff;fill-opacity:1;fill-rule:nonzero;stroke:none" d="m 594.238,55.6445 1.746,-13.125 H 579.539 V 156.641 l -2.273,16.093 16.972,1.934 V 55.6445"/><path id="path42" style="fill:#ffffff;fill-opacity:1;fill-rule:nonzero;stroke:none" d="m 638.691,55.6445 1.747,-13.125 H 623.984 V 156.641 l -2.277,16.093 16.984,1.934 V 55.6445"/><path id="path44" style="fill:#ffffff;fill-opacity:1;fill-rule:nonzero;stroke:none" d="m 695.742,74.0234 c 9.793,0 18.028,10.3321 18.028,23.1055 0,12.7731 -8.235,23.2811 -18.028,23.2811 -9.804,0 -18.554,-10.508 -18.554,-23.2811 0,-12.7734 8.75,-23.1055 18.554,-23.1055 z M 681.563,65.625 c -3.497,-4.375 -4.903,-7.5195 -4.903,-9.8047 0,-14.3437 59.16,7.5313 59.16,-26.7773 C 735.82,10.3242 714.461,0 694.336,0 662.656,0 657.938,18.5469 657.938,18.5469 l 10.851,9.9687 c 4.375,-12.5976 16.445,-17.3242 27.469,-17.3242 12.961,0 23.808,6.1328 23.808,13.8281 0,21.3594 -55.652,-3.3203 -55.652,27.1289 0,7.3555 6.297,14.5313 9.793,17.6758 -7.176,5.7813 -12.246,15.2344 -12.246,26.4258 0,20.137 14.699,35.012 36.23,35.012 11.368,0 16.622,-4.903 16.622,-4.903 l 3.156,2.274 h 22.918 l -3.496,-11.895 h -14.004 c 3.683,-4.55 5.781,-11.386 5.781,-18.0271 0,-23.9843 -16.805,-35.5273 -34.48,-35.5273 -4.375,0 -8.575,0.6953 -13.125,2.4414"/><path id="path46" style="fill:#ffffff;fill-opacity:1;fill-rule:nonzero;stroke:none" d="m 798.809,143.34 c -4.719,0 -8.75,4.199 -8.75,9.621 0,5.254 4.031,9.629 8.75,9.629 4.726,0 8.757,-4.375 8.757,-9.629 0,-5.422 -4.031,-9.621 -8.757,-9.621 z M 796.531,63.7031 V 83.125 c -4.551,-0.1758 -33.426,-0.7031 -33.426,-18.5547 0,-5.5937 4.032,-11.7187 13.301,-11.7187 7.703,0 16.629,6.8281 20.125,10.8515 z M 766.609,143.34 c -4.726,0 -8.75,4.199 -8.75,9.621 0,5.254 4.024,9.629 8.75,9.629 4.727,0 8.75,-4.375 8.75,-9.629 0,-5.422 -4.023,-9.621 -8.75,-9.621 z m -15.925,-25.731 c 0,0 11.199,13.477 34.304,13.477 13.653,0 26.25,-5.949 26.25,-22.402 V 62.3047 c 0,-10.5078 7.871,-19.7852 7.871,-19.7852 L 802.84,40.2539 c 0,0 -4.902,6.6406 -5.078,14.3477 -4.727,-7.1797 -16.981,-14.3477 -27.832,-14.3477 -11.895,0 -22.578,8.75 -22.578,21.6992 0,19.4258 20.304,32.3828 49.179,32.3828 v 6.2891 c 0,14.004 -5.945,18.73 -13.125,18.73 -16.093,0 -24.851,-13.125 -24.851,-13.125 l -7.871,11.379"/><path id="path48" style="fill:#ffffff;fill-opacity:1;fill-rule:nonzero;stroke:none" d="m 862.508,40.2539 c -11.543,0 -22.918,6.6406 -22.918,20.6445 v 51.6406 l -2.277,16.094 16.972,1.926 V 78.3984 c 0,-16.6211 1.926,-24.4921 12.774,-24.4921 18.379,0 26.777,13.125 26.777,13.125 v 45.5077 l -2.266,16.094 16.973,1.926 V 62.3047 c 0,-10.5078 7.871,-19.7852 7.871,-19.7852 l -16.269,-2.2656 c 0,0 -5.079,7.168 -5.079,15.2149 -6.824,-8.75 -21.003,-15.2149 -32.558,-15.2149"/><path id="path50" style="fill:#ffffff;fill-opacity:1;fill-rule:nonzero;stroke:none" d="m 944.59,40.2539 c -5.781,0 -10.508,4.9024 -10.508,11.0156 0,5.7813 4.727,10.6836 10.508,10.6836 5.769,0 10.496,-4.9023 10.496,-10.6836 0,-6.1132 -4.727,-11.0156 -10.496,-11.0156"/><path id="path52" style="fill:#ffffff;fill-opacity:1;fill-rule:nonzero;stroke:none" d="m 1029.63,111.309 -5.77,11.543 V 55.6445 l 1.74,-13.125 h -16.1 v 99.0625 l -2.27,16.106 h 11.55 l 52.16,-74.3872 47.25,74.3872 H 1128 V 55.6445 l 1.75,-13.125 h -17.5 v 81.0355 l -6.14,-12.246 -35.88,-55.8402 -40.6,55.8402"/><path id="path54" style="fill:#ffffff;fill-opacity:1;fill-rule:nonzero;stroke:none" d="m 1175.23,55.6445 1.75,-13.125 h -16.45 v 70.0195 l -2.28,16.094 16.98,1.926 z M 1167,163.809 c 4.73,0 8.93,-4.2 8.93,-9.102 0,-4.902 -4.2,-9.453 -8.93,-9.453 -5.07,0 -9.1,4.551 -9.1,9.453 0,4.902 4.03,9.102 9.1,9.102"/><path id="path56" style="fill:#ffffff;fill-opacity:1;fill-rule:nonzero;stroke:none" d="m 1220.56,128.633 h 26.77 l -5.25,-11.895 h -21.52 V 65.4492 c 0,-8.2226 4.19,-11.1914 9.62,-11.1914 6.65,0 14.35,2.793 18.9,7.168 l 2.45,-13.3008 c -7.53,-5.957 -16.79,-7.8711 -24.85,-7.8711 -11.38,0 -20.83,7.3438 -20.83,26.6016 v 49.8825 h -10.68 v 11.895 h 10.68 v 15.754 l 16.45,1.922 -1.74,-17.676"/><path id="path58" style="fill:#ffffff;fill-opacity:1;fill-rule:nonzero;stroke:none" d="m 1281.28,128.633 h 26.78 l -5.26,-11.895 h -21.52 V 65.4492 c 0,-8.2226 4.2,-11.1914 9.62,-11.1914 6.65,0 14.35,2.793 18.9,7.168 l 2.45,-13.3008 c -7.52,-5.957 -16.8,-7.8711 -24.85,-7.8711 -11.38,0 -20.83,7.3438 -20.83,26.6016 v 49.8825 h -10.67 v 11.895 h 10.67 v 15.754 l 16.46,1.922 -1.75,-17.676"/><path id="path60" style="fill:#ffffff;fill-opacity:1;fill-rule:nonzero;stroke:none" d="m 1335.16,96.7773 h 36.06 c -0.53,9.1017 -3.86,23.1057 -15.93,23.1057 -11.9,0 -17.67,-10.508 -20.13,-23.1057 z m 51.98,-6.6406 -4.03,-4.5508 h -48.82 c 0.35,-15.7617 7.7,-31.8554 24.67,-31.8554 14.88,0 27.48,11.8945 27.48,11.8945 l 2.46,-13.3008 c 0,0 -12.44,-12.0703 -34.14,-12.0703 -22.93,0 -36.05,22.0508 -36.05,43.75 0,24.6801 11.9,47.2581 38.68,47.2581 27.31,0 29.41,-30.285 29.75,-41.1253"/><path id="path62" style="fill:#ffffff;fill-opacity:1;fill-rule:nonzero;stroke:none" d="m 1463.26,42.5195 v 50.4102 c 0,16.6213 -1.92,24.5043 -12.77,24.5043 -18.38,0 -26.78,-12.95 -26.78,-12.95 V 55.6445 l 1.75,-13.125 h -16.45 v 70.0195 l -2.27,16.094 16.97,1.926 v -13.125 c 7.35,8.054 19.78,13.652 31.33,13.652 11.55,0 22.93,-6.652 22.93,-20.656 V 55.3047 l 1.75,-12.7852 h -16.46"/><path id="path64" style="fill:#ffffff;fill-opacity:1;fill-rule:nonzero;stroke:none" d="m 1555.49,63.8789 v 54.4221 c 0.35,0 -9.63,1.23 -16.46,1.23 -12.95,0 -23.62,-15.926 -23.62,-34.2966 0,-20.1367 9.45,-33.086 20.83,-33.086 6.12,0 13.3,4.0235 19.25,11.7305 z m 14.69,-1.5742 c 0,-10.5078 7.89,-19.7852 7.89,-19.7852 l -16.28,-2.2656 c 0,0 -4.2,5.7734 -5.08,12.7734 -8.4,-8.5742 -17.68,-12.7734 -26.08,-12.7734 -16.79,0 -31.5,15.3906 -31.5,43.3984 0,25.2067 17.5,47.2577 42.7,47.2577 3.85,0 8.75,-0.519 13.66,-1.047 v 26.778 l -2.28,16.093 16.97,1.934 V 62.3047"/><path id="path66" style="fill:#ffffff;fill-opacity:1;fill-rule:nonzero;stroke:none" d="m 1646.31,112.012 c -2.81,2.441 -6.49,3.672 -8.93,3.672 -11.2,0 -23.46,-12.95 -23.46,-28.5356 V 55.6445 l 1.75,-13.125 h -16.44 v 70.0195 l -2.28,16.094 16.97,1.926 v -19.25 c 3.33,5.949 11.38,19.953 27.31,19.953 4.02,0 7.87,-1.574 11.02,-4.903 l -5.94,-14.347"/><path id="path68" style="fill:#ffffff;fill-opacity:1;fill-rule:nonzero;stroke:none" d="m 1678.33,55.6445 1.75,-13.125 h -16.45 v 70.0195 l -2.27,16.094 16.97,1.926 z m -8.22,108.1645 c 4.72,0 8.92,-4.2 8.92,-9.102 0,-4.902 -4.2,-9.453 -8.92,-9.453 -5.08,0 -9.11,4.551 -9.11,9.453 0,4.902 4.03,9.102 9.11,9.102"/><path id="path70" style="fill:#ffffff;fill-opacity:1;fill-rule:nonzero;stroke:none" d="m 1762.32,42.5195 v 50.4102 c 0,16.6213 -1.92,24.5043 -12.77,24.5043 -18.38,0 -26.78,-12.95 -26.78,-12.95 V 55.6445 l 1.75,-13.125 h -16.44 v 70.0195 l -2.28,16.094 16.97,1.926 v -13.125 c 7.36,8.054 19.78,13.652 31.33,13.652 11.55,0 22.93,-6.652 22.93,-20.656 V 55.3047 l 1.75,-12.7852 h -16.46"/><path id="path72" style="fill:#ffffff;fill-opacity:1;fill-rule:nonzero;stroke:none" d="m 1813.24,40.2539 c -5.77,0 -10.5,4.9024 -10.5,11.0156 0,5.7813 4.73,10.6836 10.5,10.6836 5.78,0 10.51,-4.9023 10.51,-10.6836 0,-6.1132 -4.73,-11.0156 -10.51,-11.0156"/></g></g></svg>