<svg width="2000" height="563" viewBox="0 0 2000 563" fill="none" xmlns="http://www.w3.org/2000/svg">
<path d="M210 73.25H1900" stroke="black" stroke-opacity="0.25"/>
<path d="M210 185.75H1900" stroke="black" stroke-opacity="0.25"/>
<path d="M210 298.25H1900" stroke="black" stroke-opacity="0.25"/>
<path d="M210 410.75H1900" stroke="black" stroke-opacity="0.25"/>
<path d="M1563.95 57V467" stroke="black" stroke-opacity="0.25"/>
<path d="M1112.63 57V467" stroke="black" stroke-opacity="0.25"/>
<path d="M661.315 57V467" stroke="black" stroke-opacity="0.25"/>
<path d="M210 405C214.694 404.9 233.472 404.501 238.167 404.401M238.167 404.401C233.472 404.7 242.861 404.301 238.167 404.401ZM238.167 404.401C242.861 404.101 256.944 403.602 266.333 402.603C275.722 401.604 285.111 399.307 294.5 398.409C303.889 397.51 313.278 398.209 322.667 397.21C332.056 396.212 341.444 394.314 350.833 392.417C360.222 390.519 369.611 388.122 379 385.825C388.389 383.528 397.778 380.432 407.167 378.635C416.556 376.837 425.944 376.438 435.333 375.039C444.722 373.641 454.111 373.342 463.5 370.246C472.889 367.15 482.278 359.76 491.667 356.464C501.056 353.168 510.444 353.068 519.833 350.472C529.222 347.875 538.611 343.082 548 340.885C557.389 338.687 566.778 338.887 576.167 337.289C585.556 335.691 594.944 332.895 604.333 331.297C613.722 329.699 623.111 328.9 632.5 327.702C641.889 326.503 651.278 325.105 660.667 324.107C670.056 323.108 679.444 322.409 688.833 321.71C698.222 321.011 707.611 321.21 717 319.912C726.389 318.614 735.778 315.818 745.167 313.92C754.556 312.023 763.944 310.924 773.333 308.527C782.722 306.13 792.111 301.536 801.5 299.539C810.889 297.542 820.278 297.642 829.667 296.543C839.056 295.444 848.444 294.745 857.833 292.948C867.222 291.15 876.611 287.854 886 285.757C895.389 283.66 904.778 283.161 914.167 280.364C923.556 277.568 932.944 272.475 942.333 268.979C951.722 265.484 961.111 262.088 970.5 259.392C979.889 256.696 989.278 253.5 998.667 252.801C1008.06 252.102 1017.44 254.299 1026.83 255.198C1036.22 256.096 1045.61 258.893 1055 258.194C1064.39 257.494 1073.78 253 1083.17 251.003C1092.56 249.006 1101.94 247.707 1111.33 246.209C1120.72 244.711 1130.11 243.213 1139.5 242.015C1148.89 240.816 1158.28 240.417 1167.67 239.019C1177.06 237.621 1186.44 235.224 1195.83 233.626C1205.22 232.028 1214.61 231.828 1224 229.431C1233.39 227.035 1242.78 221.941 1252.17 219.245C1261.56 216.548 1270.94 213.852 1280.33 213.253C1289.72 212.654 1299.11 217.248 1308.5 215.65C1317.89 214.052 1327.28 208.359 1336.67 203.665C1346.06 198.972 1355.44 192.181 1364.83 187.487C1374.22 182.793 1383.61 177.8 1393 175.503C1402.39 173.206 1411.78 176.102 1421.17 173.705C1430.56 171.308 1439.94 164.417 1449.33 161.122C1458.72 157.826 1468.11 156.028 1477.5 153.931C1486.89 151.834 1496.28 151.434 1505.67 148.538C1515.06 145.642 1524.44 140.149 1533.83 136.554C1543.22 132.959 1552.61 129.463 1562 126.967C1571.39 124.47 1580.78 122.672 1590.17 121.574C1599.56 120.475 1608.94 122.073 1618.33 120.375C1627.72 118.678 1637.11 115.182 1646.5 111.387C1655.89 107.592 1665.28 100.901 1674.67 97.6053C1684.06 94.3096 1693.44 94.6092 1702.83 91.6132C1712.22 88.6171 1721.61 82.0258 1731 79.629C1740.39 77.2322 1749.78 77.8314 1759.17 77.2322C1768.56 76.6329 1777.94 76.1336 1787.33 76.0337C1796.72 75.9339 1806.11 76.0337 1815.5 76.6329C1824.89 77.2322 1834.28 79.0298 1843.67 79.629C1853.06 80.2282 1862.44 80.0285 1871.83 80.2282C1881.22 80.4279 1895.31 80.7276 1900 80.8274" stroke="#37A936" stroke-width="6"/>
<path d="M210 467H1900" stroke="black" stroke-opacity="0.25" stroke-width="3"/>
<path d="M210 57V477" stroke="black" stroke-opacity="0.25" stroke-width="3"/>
<path d="M607.101 486.347V515.438H603.578V490.04H603.408L596.305 494.756V491.176L603.578 486.347H607.101ZM618.479 486.347V488.903C618.479 489.68 618.337 490.509 618.053 491.389C617.778 492.26 617.371 493.108 616.831 493.932C616.301 494.746 615.657 495.456 614.899 496.062L613.081 494.585C613.678 493.733 614.194 492.848 614.629 491.929C615.074 491.001 615.297 490.011 615.297 488.96V486.347H618.479ZM630.503 515.835C628.363 515.835 626.54 515.253 625.034 514.088C623.528 512.914 622.378 511.214 621.582 508.989C620.787 506.754 620.389 504.055 620.389 500.892C620.389 497.748 620.787 495.063 621.582 492.838C622.387 490.603 623.543 488.899 625.048 487.724C626.564 486.541 628.382 485.949 630.503 485.949C632.624 485.949 634.438 486.541 635.943 487.724C637.458 488.899 638.614 490.603 639.409 492.838C640.214 495.063 640.617 497.748 640.617 500.892C640.617 504.055 640.219 506.754 639.423 508.989C638.628 511.214 637.477 512.914 635.972 514.088C634.466 515.253 632.643 515.835 630.503 515.835ZM630.503 512.71C632.624 512.71 634.272 511.687 635.446 509.642C636.62 507.597 637.207 504.68 637.207 500.892C637.207 498.373 636.938 496.228 636.398 494.457C635.868 492.687 635.1 491.337 634.097 490.409C633.102 489.481 631.904 489.017 630.503 489.017C628.401 489.017 626.758 490.054 625.574 492.128C624.39 494.192 623.798 497.114 623.798 500.892C623.798 503.411 624.064 505.551 624.594 507.312C625.124 509.074 625.886 510.414 626.881 511.332C627.885 512.251 629.092 512.71 630.503 512.71ZM655.503 515.835C653.363 515.835 651.54 515.253 650.034 514.088C648.528 512.914 647.378 511.214 646.582 508.989C645.787 506.754 645.389 504.055 645.389 500.892C645.389 497.748 645.787 495.063 646.582 492.838C647.387 490.603 648.543 488.899 650.048 487.724C651.564 486.541 653.382 485.949 655.503 485.949C657.624 485.949 659.438 486.541 660.943 487.724C662.458 488.899 663.614 490.603 664.409 492.838C665.214 495.063 665.617 497.748 665.617 500.892C665.617 504.055 665.219 506.754 664.423 508.989C663.628 511.214 662.477 512.914 660.972 514.088C659.466 515.253 657.643 515.835 655.503 515.835ZM655.503 512.71C657.624 512.71 659.272 511.687 660.446 509.642C661.62 507.597 662.207 504.68 662.207 500.892C662.207 498.373 661.938 496.228 661.398 494.457C660.868 492.687 660.1 491.337 659.097 490.409C658.102 489.481 656.904 489.017 655.503 489.017C653.401 489.017 651.758 490.054 650.574 492.128C649.39 494.192 648.798 497.114 648.798 500.892C648.798 503.411 649.064 505.551 649.594 507.312C650.124 509.074 650.886 510.414 651.881 511.332C652.885 512.251 654.092 512.71 655.503 512.71ZM680.503 515.835C678.363 515.835 676.54 515.253 675.034 514.088C673.528 512.914 672.378 511.214 671.582 508.989C670.787 506.754 670.389 504.055 670.389 500.892C670.389 497.748 670.787 495.063 671.582 492.838C672.387 490.603 673.543 488.899 675.048 487.724C676.564 486.541 678.382 485.949 680.503 485.949C682.624 485.949 684.438 486.541 685.943 487.724C687.458 488.899 688.614 490.603 689.409 492.838C690.214 495.063 690.617 497.748 690.617 500.892C690.617 504.055 690.219 506.754 689.423 508.989C688.628 511.214 687.477 512.914 685.972 514.088C684.466 515.253 682.643 515.835 680.503 515.835ZM680.503 512.71C682.624 512.71 684.272 511.687 685.446 509.642C686.62 507.597 687.207 504.68 687.207 500.892C687.207 498.373 686.938 496.228 686.398 494.457C685.868 492.687 685.1 491.337 684.097 490.409C683.102 489.481 681.904 489.017 680.503 489.017C678.401 489.017 676.758 490.054 675.574 492.128C674.39 494.192 673.798 497.114 673.798 500.892C673.798 503.411 674.064 505.551 674.594 507.312C675.124 509.074 675.886 510.414 676.881 511.332C677.885 512.251 679.092 512.71 680.503 512.71ZM696.071 515.438V493.619H699.31V497.028H699.594C700.048 495.864 700.782 494.959 701.796 494.315C702.809 493.662 704.026 493.335 705.446 493.335C706.886 493.335 708.083 493.662 709.04 494.315C710.006 494.959 710.759 495.864 711.298 497.028H711.526C712.084 495.902 712.922 495.007 714.04 494.344C715.157 493.671 716.497 493.335 718.06 493.335C720.011 493.335 721.606 493.946 722.847 495.168C724.087 496.38 724.707 498.269 724.707 500.835V515.438H721.355V500.835C721.355 499.225 720.915 498.075 720.034 497.384C719.153 496.692 718.117 496.347 716.923 496.347C715.389 496.347 714.201 496.811 713.358 497.739C712.515 498.657 712.094 499.822 712.094 501.233V515.438H708.685V500.494C708.685 499.254 708.282 498.255 707.477 497.497C706.672 496.73 705.636 496.347 704.367 496.347C703.495 496.347 702.681 496.579 701.923 497.043C701.175 497.507 700.569 498.151 700.105 498.974C699.651 499.789 699.423 500.731 699.423 501.801V515.438H696.071Z" fill="black"/>
<path d="M1045.38 515.438V512.881L1054.98 502.369C1056.11 501.138 1057.03 500.068 1057.76 499.159C1058.49 498.241 1059.03 497.379 1059.38 496.574C1059.74 495.759 1059.92 494.907 1059.92 494.017C1059.92 492.994 1059.68 492.109 1059.18 491.361C1058.7 490.613 1058.04 490.035 1057.19 489.628C1056.35 489.221 1055.41 489.017 1054.35 489.017C1053.24 489.017 1052.26 489.249 1051.43 489.713C1050.6 490.168 1049.96 490.807 1049.51 491.631C1049.07 492.455 1048.84 493.42 1048.84 494.528H1045.49C1045.49 492.824 1045.88 491.328 1046.67 490.04C1047.46 488.752 1048.53 487.748 1049.88 487.028C1051.24 486.309 1052.77 485.949 1054.47 485.949C1056.17 485.949 1057.68 486.309 1059 487.028C1060.32 487.748 1061.35 488.719 1062.1 489.94C1062.84 491.162 1063.22 492.521 1063.22 494.017C1063.22 495.087 1063.02 496.134 1062.64 497.156C1062.26 498.17 1061.59 499.301 1060.65 500.551C1059.71 501.792 1058.41 503.307 1056.74 505.097L1050.21 512.085V512.312H1063.73V515.438H1045.38ZM1072.61 486.347V488.903C1072.61 489.68 1072.46 490.509 1072.18 491.389C1071.91 492.26 1071.5 493.108 1070.96 493.932C1070.43 494.746 1069.78 495.456 1069.03 496.062L1067.21 494.585C1067.81 493.733 1068.32 492.848 1068.76 491.929C1069.2 491.001 1069.42 490.011 1069.42 488.96V486.347H1072.61ZM1084.63 515.835C1082.49 515.835 1080.67 515.253 1079.16 514.088C1077.66 512.914 1076.51 511.214 1075.71 508.989C1074.91 506.754 1074.52 504.055 1074.52 500.892C1074.52 497.748 1074.91 495.063 1075.71 492.838C1076.52 490.603 1077.67 488.899 1079.18 487.724C1080.69 486.541 1082.51 485.949 1084.63 485.949C1086.75 485.949 1088.57 486.541 1090.07 487.724C1091.59 488.899 1092.74 490.603 1093.54 492.838C1094.34 495.063 1094.74 497.748 1094.74 500.892C1094.74 504.055 1094.35 506.754 1093.55 508.989C1092.76 511.214 1091.61 512.914 1090.1 514.088C1088.59 515.253 1086.77 515.835 1084.63 515.835ZM1084.63 512.71C1086.75 512.71 1088.4 511.687 1089.57 509.642C1090.75 507.597 1091.34 504.68 1091.34 500.892C1091.34 498.373 1091.07 496.228 1090.53 494.457C1090 492.687 1089.23 491.337 1088.22 490.409C1087.23 489.481 1086.03 489.017 1084.63 489.017C1082.53 489.017 1080.89 490.054 1079.7 492.128C1078.52 494.192 1077.93 497.114 1077.93 500.892C1077.93 503.411 1078.19 505.551 1078.72 507.312C1079.25 509.074 1080.01 510.414 1081.01 511.332C1082.01 512.251 1083.22 512.71 1084.63 512.71ZM1109.63 515.835C1107.49 515.835 1105.67 515.253 1104.16 514.088C1102.66 512.914 1101.51 511.214 1100.71 508.989C1099.91 506.754 1099.52 504.055 1099.52 500.892C1099.52 497.748 1099.91 495.063 1100.71 492.838C1101.52 490.603 1102.67 488.899 1104.18 487.724C1105.69 486.541 1107.51 485.949 1109.63 485.949C1111.75 485.949 1113.57 486.541 1115.07 487.724C1116.59 488.899 1117.74 490.603 1118.54 492.838C1119.34 495.063 1119.74 497.748 1119.74 500.892C1119.74 504.055 1119.35 506.754 1118.55 508.989C1117.76 511.214 1116.61 512.914 1115.1 514.088C1113.59 515.253 1111.77 515.835 1109.63 515.835ZM1109.63 512.71C1111.75 512.71 1113.4 511.687 1114.57 509.642C1115.75 507.597 1116.34 504.68 1116.34 500.892C1116.34 498.373 1116.07 496.228 1115.53 494.457C1115 492.687 1114.23 491.337 1113.22 490.409C1112.23 489.481 1111.03 489.017 1109.63 489.017C1107.53 489.017 1105.89 490.054 1104.7 492.128C1103.52 494.192 1102.93 497.114 1102.93 500.892C1102.93 503.411 1103.19 505.551 1103.72 507.312C1104.25 509.074 1105.01 510.414 1106.01 511.332C1107.01 512.251 1108.22 512.71 1109.63 512.71ZM1134.63 515.835C1132.49 515.835 1130.67 515.253 1129.16 514.088C1127.66 512.914 1126.51 511.214 1125.71 508.989C1124.91 506.754 1124.52 504.055 1124.52 500.892C1124.52 497.748 1124.91 495.063 1125.71 492.838C1126.52 490.603 1127.67 488.899 1129.18 487.724C1130.69 486.541 1132.51 485.949 1134.63 485.949C1136.75 485.949 1138.57 486.541 1140.07 487.724C1141.59 488.899 1142.74 490.603 1143.54 492.838C1144.34 495.063 1144.74 497.748 1144.74 500.892C1144.74 504.055 1144.35 506.754 1143.55 508.989C1142.76 511.214 1141.61 512.914 1140.1 514.088C1138.59 515.253 1136.77 515.835 1134.63 515.835ZM1134.63 512.71C1136.75 512.71 1138.4 511.687 1139.57 509.642C1140.75 507.597 1141.34 504.68 1141.34 500.892C1141.34 498.373 1141.07 496.228 1140.53 494.457C1140 492.687 1139.23 491.337 1138.22 490.409C1137.23 489.481 1136.03 489.017 1134.63 489.017C1132.53 489.017 1130.89 490.054 1129.7 492.128C1128.52 494.192 1127.93 497.114 1127.93 500.892C1127.93 503.411 1128.19 505.551 1128.72 507.312C1129.25 509.074 1130.01 510.414 1131.01 511.332C1132.01 512.251 1133.22 512.71 1134.63 512.71ZM1150.2 515.438V493.619H1153.44V497.028H1153.72C1154.18 495.864 1154.91 494.959 1155.92 494.315C1156.94 493.662 1158.15 493.335 1159.57 493.335C1161.01 493.335 1162.21 493.662 1163.17 494.315C1164.13 494.959 1164.89 495.864 1165.43 497.028H1165.65C1166.21 495.902 1167.05 495.007 1168.17 494.344C1169.29 493.671 1170.63 493.335 1172.19 493.335C1174.14 493.335 1175.73 493.946 1176.97 495.168C1178.22 496.38 1178.84 498.269 1178.84 500.835V515.438H1175.48V500.835C1175.48 499.225 1175.04 498.075 1174.16 497.384C1173.28 496.692 1172.24 496.347 1171.05 496.347C1169.52 496.347 1168.33 496.811 1167.49 497.739C1166.64 498.657 1166.22 499.822 1166.22 501.233V515.438H1162.81V500.494C1162.81 499.254 1162.41 498.255 1161.61 497.497C1160.8 496.73 1159.76 496.347 1158.49 496.347C1157.62 496.347 1156.81 496.579 1156.05 497.043C1155.3 497.507 1154.7 498.151 1154.23 498.974C1153.78 499.789 1153.55 500.731 1153.55 501.801V515.438H1150.2Z" fill="black"/>
<path d="M1143.43 177.23C1142.57 176.557 1141.61 176.331 1140.55 176.552C1139.48 176.773 1138.48 177.351 1137.55 178.285C1136.87 178.968 1136.38 179.676 1136.09 180.409C1135.8 181.137 1135.71 181.838 1135.81 182.511C1135.92 183.179 1136.21 183.759 1136.71 184.251C1137.12 184.663 1137.57 184.919 1138.06 185.019C1138.55 185.11 1139.05 185.097 1139.56 184.982C1140.06 184.861 1140.55 184.693 1141.02 184.477C1141.48 184.256 1141.89 184.04 1142.25 183.829L1144.24 182.684C1144.75 182.388 1145.34 182.087 1146.02 181.78C1146.7 181.469 1147.43 181.248 1148.2 181.117C1148.97 180.977 1149.76 181.007 1150.55 181.208C1151.35 181.409 1152.1 181.871 1152.83 182.594C1153.66 183.427 1154.2 184.399 1154.43 185.509C1154.67 186.614 1154.57 187.782 1154.14 189.012C1153.71 190.237 1152.9 191.443 1151.71 192.628C1150.61 193.733 1149.47 194.511 1148.31 194.963C1147.15 195.41 1146.02 195.546 1144.92 195.37C1143.82 195.189 1142.82 194.707 1141.92 193.924L1143.85 191.995C1144.48 192.527 1145.16 192.814 1145.88 192.854C1146.6 192.884 1147.32 192.728 1148.04 192.387C1148.75 192.035 1149.41 191.553 1150.02 190.94C1150.74 190.227 1151.26 189.471 1151.6 188.673C1151.93 187.869 1152.05 187.094 1151.97 186.345C1151.88 185.592 1151.55 184.934 1150.99 184.372C1150.48 183.859 1149.92 183.586 1149.31 183.55C1148.7 183.515 1148.06 183.631 1147.4 183.897C1146.73 184.163 1146.05 184.492 1145.35 184.884L1142.91 186.24C1141.36 187.099 1139.91 187.558 1138.57 187.618C1137.22 187.679 1136.03 187.189 1134.99 186.149C1134.12 185.286 1133.6 184.299 1133.43 183.189C1133.25 182.069 1133.38 180.934 1133.82 179.784C1134.26 178.624 1134.97 177.552 1135.95 176.567C1136.95 175.573 1138.01 174.867 1139.14 174.45C1140.26 174.029 1141.36 173.898 1142.42 174.059C1143.49 174.214 1144.43 174.669 1145.23 175.422L1143.43 177.23ZM1153.31 167.349L1154.81 168.855L1148.82 174.852L1147.31 173.345L1153.31 167.349ZM1146.29 168.825L1148.06 167.047L1159.09 178.076C1159.59 178.578 1160.04 178.882 1160.44 178.987C1160.84 179.083 1161.19 179.058 1161.51 178.912C1161.83 178.756 1162.12 178.548 1162.38 178.287C1162.57 178.091 1162.72 177.92 1162.83 177.774C1162.93 177.624 1163.01 177.503 1163.07 177.413L1165.03 178.648C1164.95 178.814 1164.83 179.027 1164.66 179.289C1164.49 179.555 1164.25 179.854 1163.91 180.185C1163.41 180.687 1162.81 181.071 1162.11 181.338C1161.42 181.599 1160.69 181.667 1159.94 181.541C1159.18 181.41 1158.47 181.009 1157.8 180.336L1146.29 168.825ZM1171.23 173.111C1170.5 173.845 1169.69 174.372 1168.82 174.693C1167.94 175.01 1167.06 175.08 1166.18 174.904C1165.3 174.724 1164.48 174.257 1163.73 173.503C1163.06 172.84 1162.66 172.172 1162.51 171.499C1162.35 170.821 1162.37 170.146 1162.57 169.473C1162.77 168.8 1163.08 168.142 1163.49 167.499C1163.9 166.846 1164.34 166.216 1164.81 165.609C1165.42 164.815 1165.93 164.177 1166.32 163.695C1166.71 163.203 1166.95 162.799 1167.03 162.482C1167.12 162.161 1167.02 161.857 1166.74 161.571L1166.68 161.511C1165.94 160.767 1165.15 160.393 1164.34 160.388C1163.52 160.378 1162.71 160.782 1161.89 161.601C1161.04 162.45 1160.56 163.301 1160.45 164.155C1160.34 165.008 1160.4 165.744 1160.62 166.362L1158.33 167.447C1157.93 166.442 1157.78 165.493 1157.89 164.599C1158.01 163.695 1158.28 162.866 1158.72 162.113C1159.17 161.35 1159.68 160.677 1160.26 160.094C1160.63 159.723 1161.1 159.341 1161.68 158.949C1162.25 158.547 1162.9 158.256 1163.62 158.075C1164.35 157.89 1165.14 157.92 1165.99 158.166C1166.83 158.412 1167.72 158.994 1168.64 159.913L1176.26 167.537L1174.48 169.315L1172.92 167.748L1172.83 167.838C1172.96 168.21 1173.02 168.68 1173.03 169.247C1173.03 169.814 1172.9 170.432 1172.64 171.1C1172.37 171.768 1171.9 172.439 1171.23 173.111ZM1169.9 171.243C1170.61 170.54 1171.06 169.809 1171.27 169.051C1171.48 168.288 1171.49 167.565 1171.3 166.882C1171.11 166.194 1170.78 165.609 1170.29 165.126L1168.67 163.499C1168.68 163.665 1168.6 163.914 1168.42 164.245C1168.24 164.566 1168.01 164.92 1167.73 165.307C1167.46 165.684 1167.18 166.048 1166.91 166.399C1166.64 166.741 1166.42 167.02 1166.26 167.236C1165.85 167.758 1165.52 168.288 1165.25 168.825C1164.99 169.352 1164.87 169.872 1164.89 170.384C1164.91 170.887 1165.14 171.364 1165.59 171.816C1166.21 172.433 1166.91 172.672 1167.68 172.531C1168.45 172.381 1169.19 171.951 1169.9 171.243ZM1173.09 147.569L1174.59 149.075L1168.36 155.313L1166.85 153.806L1173.09 147.569ZM1180.29 163.509L1167.12 150.341C1166.46 149.678 1166.06 148.97 1165.93 148.216C1165.8 147.463 1165.87 146.727 1166.15 146.009C1166.43 145.291 1166.84 144.656 1167.39 144.103C1167.83 143.666 1168.22 143.345 1168.57 143.139C1168.91 142.933 1169.19 142.793 1169.38 142.717L1170.41 144.766C1170.28 144.827 1170.12 144.914 1169.92 145.03C1169.71 145.14 1169.49 145.324 1169.23 145.58C1168.64 146.167 1168.37 146.74 1168.4 147.297C1168.44 147.85 1168.75 148.412 1169.32 148.985L1182.07 161.731L1180.29 163.509ZM1180.73 139.924L1182.24 141.431L1176 147.668L1174.49 146.162L1180.73 139.924ZM1187.93 155.864L1174.77 142.697C1174.1 142.034 1173.71 141.326 1173.57 140.572C1173.44 139.819 1173.52 139.083 1173.79 138.365C1174.07 137.647 1174.48 137.012 1175.04 136.459C1175.47 136.022 1175.87 135.701 1176.21 135.495C1176.56 135.289 1176.83 135.148 1177.03 135.073L1178.05 137.122C1177.93 137.182 1177.77 137.27 1177.56 137.386C1177.36 137.496 1177.13 137.68 1176.87 137.936C1176.29 138.523 1176.01 139.096 1176.05 139.653C1176.09 140.206 1176.39 140.768 1176.96 141.341L1189.71 154.087L1187.93 155.864ZM1199.41 144.87C1198.29 145.985 1197.09 146.7 1195.79 147.017C1194.49 147.323 1193.17 147.25 1191.85 146.798C1190.52 146.336 1189.27 145.513 1188.08 144.328C1186.89 143.142 1186.07 141.882 1185.59 140.546C1185.12 139.2 1185.02 137.884 1185.29 136.599C1185.56 135.303 1186.22 134.133 1187.27 133.088C1187.87 132.485 1188.56 131.991 1189.35 131.604C1190.14 131.217 1191 131.009 1191.94 130.979C1192.87 130.944 1193.84 131.152 1194.87 131.604C1195.89 132.056 1196.94 132.822 1198.02 133.902L1198.78 134.655L1189.86 143.574L1188.32 142.037L1195.43 134.926C1194.78 134.273 1194.07 133.821 1193.29 133.57C1192.52 133.314 1191.75 133.276 1190.98 133.457C1190.21 133.633 1189.51 134.042 1188.86 134.685C1188.16 135.393 1187.72 136.182 1187.55 137.051C1187.39 137.909 1187.44 138.756 1187.73 139.589C1188.01 140.423 1188.47 141.159 1189.1 141.796L1190.13 142.821C1191 143.695 1191.89 144.285 1192.8 144.591C1193.71 144.887 1194.6 144.923 1195.45 144.697C1196.31 144.466 1197.09 143.991 1197.81 143.273C1198.28 142.806 1198.64 142.319 1198.88 141.811C1199.13 141.294 1199.26 140.764 1199.27 140.222C1199.27 139.675 1199.15 139.125 1198.9 138.572L1201.1 137.337C1201.5 138.1 1201.71 138.916 1201.72 139.785C1201.73 140.649 1201.55 141.518 1201.16 142.392C1200.78 143.26 1200.19 144.086 1199.41 144.87ZM1193.01 119.928L1208.44 135.356L1206.66 137.133L1191.24 121.706L1193.01 119.928ZM1214.32 129.478L1199.22 121.433L1201.09 119.564L1212.45 125.922L1212.57 125.802L1206.18 114.472L1208.08 112.574L1219.35 118.962L1219.47 118.841L1213.14 107.511L1215.01 105.643L1223.06 120.739L1221.31 122.487L1209.89 116.129L1209.71 116.31L1216.07 127.73L1214.32 129.478ZM1233.63 110.647C1232.52 111.762 1231.31 112.478 1230.01 112.794C1228.71 113.1 1227.4 113.027 1226.07 112.576C1224.74 112.113 1223.49 111.29 1222.3 110.105C1221.12 108.919 1220.29 107.659 1219.82 106.323C1219.34 104.977 1219.24 103.661 1219.52 102.376C1219.79 101.08 1220.44 99.9099 1221.49 98.8653C1222.09 98.2626 1222.79 97.7679 1223.58 97.3812C1224.36 96.9945 1225.23 96.7861 1226.16 96.756C1227.09 96.7208 1228.07 96.9293 1229.09 97.3812C1230.11 97.8332 1231.17 98.5991 1232.25 99.6788L1233 100.432L1224.08 109.351L1222.54 107.815L1229.66 100.703C1229 100.05 1228.29 99.5985 1227.52 99.3474C1226.75 99.0913 1225.98 99.0536 1225.2 99.2344C1224.43 99.4102 1223.73 99.8195 1223.09 100.462C1222.38 101.17 1221.94 101.959 1221.78 102.828C1221.61 103.686 1221.67 104.533 1221.95 105.366C1222.23 106.2 1222.69 106.936 1223.33 107.574L1224.35 108.598C1225.23 109.472 1226.12 110.062 1227.03 110.368C1227.94 110.665 1228.82 110.7 1229.68 110.474C1230.53 110.243 1231.32 109.768 1232.04 109.05C1232.5 108.583 1232.86 108.096 1233.11 107.589C1233.35 107.071 1233.48 106.541 1233.49 105.999C1233.49 105.452 1233.37 104.902 1233.12 104.349L1235.32 103.114C1235.72 103.877 1235.93 104.693 1235.95 105.562C1235.96 106.426 1235.77 107.295 1235.39 108.169C1235 109.037 1234.42 109.864 1233.63 110.647ZM1245.83 98.4509C1244.74 99.5357 1243.55 100.214 1242.26 100.485C1240.96 100.756 1239.65 100.653 1238.33 100.176C1237.01 99.6989 1235.77 98.8828 1234.62 97.7278C1233.44 96.5526 1232.62 95.2996 1232.16 93.9688C1231.69 92.6279 1231.59 91.3146 1231.86 90.0289C1232.13 88.7332 1232.79 87.5631 1233.84 86.5185C1234.65 85.7049 1235.53 85.1224 1236.49 84.7708C1237.44 84.4193 1238.4 84.3063 1239.36 84.4318C1240.32 84.5574 1241.21 84.9315 1242.03 85.5543L1240.25 87.3321C1239.59 86.9404 1238.82 86.7746 1237.95 86.8349C1237.08 86.8851 1236.25 87.302 1235.46 88.0854C1234.77 88.7784 1234.34 89.5669 1234.18 90.4508C1234.02 91.3246 1234.12 92.2336 1234.48 93.1778C1234.85 94.1119 1235.46 95.0159 1236.34 95.8897C1237.23 96.7836 1238.15 97.4214 1239.09 97.8031C1240.04 98.1798 1240.96 98.2927 1241.84 98.1421C1242.73 97.9864 1243.53 97.557 1244.23 96.8539C1244.69 96.3919 1245.03 95.8922 1245.25 95.3548C1245.46 94.8175 1245.55 94.2676 1245.51 93.7051C1245.47 93.1426 1245.3 92.5952 1244.98 92.0629L1246.76 90.2851C1247.35 91.0685 1247.71 91.9323 1247.86 92.8765C1248.01 93.8106 1247.93 94.7622 1247.6 95.7315C1247.27 96.6907 1246.68 97.5972 1245.83 98.4509ZM1247.55 82.3226L1254.51 89.2832L1252.74 91.061L1237.31 75.6332L1239.09 73.8554L1244.75 79.5203L1244.9 79.3696C1244.58 78.5008 1244.51 77.6194 1244.7 76.7255C1244.89 75.8215 1245.44 74.915 1246.35 74.006C1247.14 73.2176 1247.99 72.6852 1248.89 72.409C1249.8 72.1278 1250.74 72.1479 1251.71 72.4693C1252.69 72.7807 1253.67 73.4335 1254.66 74.4279L1262.02 81.7802L1260.24 83.558L1253.01 76.3262C1252.09 75.4072 1251.14 74.9351 1250.16 74.91C1249.18 74.8749 1248.27 75.2766 1247.43 76.1153C1246.85 76.6979 1246.45 77.3432 1246.24 78.0513C1246.02 78.7544 1246.02 79.4751 1246.23 80.2133C1246.44 80.9465 1246.88 81.6496 1247.55 82.3226ZM1264.49 61.3523L1263.34 63.4013C1262.97 63.2356 1262.57 63.1251 1262.12 63.0699C1261.67 63.0046 1261.2 63.0548 1260.7 63.2205C1260.21 63.3863 1259.7 63.7278 1259.18 64.245C1258.47 64.9531 1258.05 65.7065 1257.9 66.505C1257.76 67.2934 1257.93 67.9362 1258.43 68.4334C1258.87 68.8754 1259.38 69.0637 1259.96 68.9984C1260.54 68.9331 1261.25 68.6444 1262.11 68.1321L1264.25 66.8364C1265.53 66.053 1266.69 65.6663 1267.71 65.6763C1268.73 65.6813 1269.64 66.0881 1270.45 66.8967C1271.12 67.5596 1271.52 68.343 1271.66 69.247C1271.8 70.146 1271.69 71.0851 1271.31 72.0644C1270.93 73.0437 1270.3 73.9828 1269.4 74.8818C1268.22 76.0619 1266.98 76.7826 1265.7 77.0438C1264.41 77.3049 1263.18 77.0463 1261.99 76.2679L1263.25 74.1586C1264.03 74.6206 1264.81 74.7838 1265.56 74.6482C1266.33 74.5076 1267.07 74.0732 1267.8 73.345C1268.63 72.5164 1269.11 71.6827 1269.25 70.844C1269.38 69.9953 1269.2 69.3223 1268.7 68.8252C1268.3 68.4234 1267.83 68.2275 1267.27 68.2376C1266.72 68.2426 1266.08 68.4686 1265.36 68.9156L1262.98 70.392C1261.67 71.2006 1260.5 71.5898 1259.48 71.5597C1258.45 71.5195 1257.54 71.1001 1256.74 70.3016C1256.09 69.6488 1255.7 68.8879 1255.56 68.0191C1255.43 67.1453 1255.54 66.2463 1255.89 65.3223C1256.25 64.3932 1256.83 63.5219 1257.65 62.7083C1258.79 61.5632 1259.94 60.9154 1261.1 60.7647C1262.26 60.6091 1263.39 60.8049 1264.49 61.3523ZM1281.45 62.8345C1280.33 63.9494 1279.12 64.665 1277.82 64.9814C1276.52 65.2877 1275.21 65.2149 1273.88 64.7629C1272.56 64.3009 1271.3 63.4773 1270.12 62.2921C1268.93 61.1069 1268.1 59.8463 1267.63 58.5105C1267.16 57.1645 1267.06 55.8488 1267.33 54.5631C1267.6 53.2674 1268.26 52.0973 1269.3 51.0527C1269.9 50.45 1270.6 49.9554 1271.39 49.5687C1272.18 49.182 1273.04 48.9736 1273.97 48.9434C1274.9 48.9083 1275.88 49.1167 1276.9 49.5687C1277.93 50.0207 1278.98 50.7865 1280.06 51.8663L1280.81 52.6196L1271.89 61.5388L1270.36 60.002L1277.47 52.8908C1276.81 52.2379 1276.1 51.7859 1275.33 51.5348C1274.56 51.2787 1273.79 51.241 1273.02 51.4218C1272.25 51.5976 1271.54 52.0069 1270.9 52.6497C1270.19 53.3578 1269.75 54.1463 1269.59 55.0151C1269.42 55.8739 1269.48 56.7201 1269.76 57.5538C1270.04 58.3874 1270.5 59.1232 1271.14 59.761L1272.16 60.7855C1273.04 61.6593 1273.93 62.2494 1274.84 62.5557C1275.75 62.852 1276.63 62.8872 1277.49 62.6612C1278.34 62.4302 1279.13 61.9556 1279.85 61.2374C1280.32 60.7704 1280.67 60.2832 1280.92 59.776C1281.16 59.2587 1281.29 58.7289 1281.3 58.1865C1281.31 57.6391 1281.18 57.0892 1280.93 56.5368L1283.13 55.3014C1283.53 56.0647 1283.74 56.8808 1283.76 57.7496C1283.77 58.6134 1283.58 59.4822 1283.2 60.3561C1282.81 61.2249 1282.23 62.051 1281.45 62.8345ZM1275.05 37.8924L1290.48 53.3202L1288.7 55.098L1273.27 39.6702L1275.05 37.8924ZM1168.15 211.129C1166.25 209.23 1164.76 207.239 1163.66 205.155C1162.56 203.061 1161.79 200.884 1161.37 198.624L1162.94 197.057C1163.08 197.916 1163.35 198.867 1163.76 199.912C1164.17 200.947 1164.69 202.016 1165.33 203.121C1165.96 204.221 1166.66 205.301 1167.45 206.36C1168.25 207.415 1169.09 208.392 1169.99 209.291C1171.19 210.486 1172.51 211.583 1173.98 212.583C1175.44 213.582 1176.89 214.413 1178.34 215.076C1179.78 215.739 1181.08 216.161 1182.22 216.342L1180.66 217.909C1178.4 217.487 1176.22 216.728 1174.13 215.634C1172.04 214.529 1170.05 213.027 1168.15 211.129ZM1167.73 196.121L1169.96 193.891L1188.01 201.454L1188.19 201.274L1180.63 183.224L1182.86 180.994L1198.29 196.422L1196.54 198.17L1184.82 186.448L1184.67 186.599L1191.57 203.142L1189.88 204.829L1173.34 197.929L1173.19 198.08L1184.91 209.801L1183.16 211.549L1167.73 196.121ZM1201.79 192.917L1190.22 181.347L1192 179.569L1203.57 191.14L1201.79 192.917ZM1189.2 178.514C1188.85 178.861 1188.43 179.042 1187.95 179.057C1187.46 179.067 1187.06 178.906 1186.73 178.574C1186.39 178.243 1186.23 177.836 1186.24 177.354C1186.26 176.867 1186.44 176.45 1186.79 176.104C1187.13 175.757 1187.55 175.579 1188.03 175.569C1188.52 175.554 1188.93 175.712 1189.26 176.043C1189.59 176.375 1189.75 176.784 1189.73 177.271C1189.72 177.753 1189.54 178.168 1189.2 178.514ZM1200.29 171.281L1201.79 172.787L1195.8 178.784L1194.29 177.277L1200.29 171.281ZM1193.27 172.757L1195.04 170.979L1206.07 182.008C1206.57 182.51 1207.02 182.814 1207.42 182.919C1207.82 183.015 1208.17 182.989 1208.49 182.844C1208.81 182.688 1209.1 182.48 1209.36 182.219C1209.55 182.023 1209.7 181.852 1209.81 181.706C1209.91 181.556 1209.99 181.435 1210.05 181.345L1212.01 182.58C1211.93 182.746 1211.81 182.959 1211.64 183.221C1211.47 183.487 1211.22 183.785 1210.89 184.117C1210.39 184.619 1209.79 185.003 1209.09 185.27C1208.4 185.531 1207.67 185.598 1206.92 185.473C1206.16 185.342 1205.45 184.941 1204.78 184.268L1193.27 172.757ZM1207.99 163.574L1209.5 165.081L1203.5 171.077L1202 169.571L1207.99 163.574ZM1200.97 165.051L1202.75 163.273L1213.78 174.301C1214.28 174.804 1214.73 175.107 1215.13 175.213C1215.52 175.308 1215.88 175.283 1216.2 175.138C1216.51 174.982 1216.8 174.773 1217.06 174.512C1217.26 174.316 1217.41 174.146 1217.52 174C1217.62 173.849 1217.7 173.729 1217.76 173.638L1219.71 174.874C1219.64 175.04 1219.52 175.253 1219.35 175.514C1219.18 175.78 1218.93 176.079 1218.6 176.411C1218.1 176.913 1217.5 177.297 1216.8 177.563C1216.11 177.824 1215.38 177.892 1214.62 177.767C1213.87 177.636 1213.16 177.234 1212.48 176.561L1200.97 165.051ZM1227.21 167.985C1226.09 169.1 1224.88 169.815 1223.58 170.132C1222.28 170.438 1220.97 170.365 1219.64 169.913C1218.32 169.451 1217.06 168.628 1215.88 167.442C1214.69 166.257 1213.86 164.997 1213.39 163.661C1212.92 162.315 1212.82 160.999 1213.09 159.713C1213.36 158.418 1214.02 157.248 1215.06 156.203C1215.67 155.6 1216.36 155.106 1217.15 154.719C1217.94 154.332 1218.8 154.124 1219.73 154.094C1220.66 154.059 1221.64 154.267 1222.66 154.719C1223.69 155.171 1224.74 155.937 1225.82 157.017L1226.57 157.77L1217.65 166.689L1216.12 165.152L1223.23 158.041C1222.58 157.388 1221.86 156.936 1221.09 156.685C1220.32 156.429 1219.55 156.391 1218.78 156.572C1218.01 156.748 1217.3 157.157 1216.66 157.8C1215.95 158.508 1215.52 159.297 1215.35 160.165C1215.18 161.024 1215.24 161.87 1215.52 162.704C1215.8 163.538 1216.26 164.274 1216.9 164.911L1217.93 165.936C1218.8 166.81 1219.69 167.4 1220.6 167.706C1221.51 168.002 1222.39 168.038 1223.25 167.812C1224.11 167.581 1224.89 167.106 1225.61 166.388C1226.08 165.921 1226.43 165.434 1226.68 164.926C1226.93 164.409 1227.05 163.879 1227.06 163.337C1227.07 162.789 1226.95 162.24 1226.69 161.687L1228.89 160.452C1229.3 161.215 1229.5 162.031 1229.52 162.9C1229.53 163.764 1229.34 164.633 1228.96 165.506C1228.57 166.375 1227.99 167.201 1227.21 167.985ZM1220.81 143.043L1236.24 158.471L1234.46 160.248L1219.03 144.821L1220.81 143.043ZM1238.71 138.039L1237.57 140.088C1237.2 139.922 1236.79 139.812 1236.35 139.756C1235.9 139.691 1235.43 139.741 1234.93 139.907C1234.43 140.073 1233.93 140.414 1233.41 140.932C1232.7 141.64 1232.27 142.393 1232.13 143.192C1231.98 143.98 1232.16 144.623 1232.65 145.12C1233.1 145.562 1233.61 145.75 1234.18 145.685C1234.76 145.62 1235.48 145.331 1236.33 144.819L1238.47 143.523C1239.76 142.74 1240.91 142.353 1241.94 142.363C1242.96 142.368 1243.87 142.775 1244.68 143.583C1245.34 144.246 1245.74 145.03 1245.88 145.934C1246.03 146.833 1245.91 147.772 1245.54 148.751C1245.16 149.73 1244.52 150.669 1243.62 151.568C1242.44 152.749 1241.21 153.469 1239.92 153.73C1238.64 153.991 1237.4 153.733 1236.21 152.954L1237.48 150.845C1238.26 151.307 1239.03 151.47 1239.79 151.335C1240.55 151.194 1241.3 150.76 1242.03 150.032C1242.85 149.203 1243.34 148.369 1243.47 147.531C1243.61 146.682 1243.43 146.009 1242.93 145.512C1242.53 145.11 1242.05 144.914 1241.5 144.924C1240.94 144.929 1240.3 145.155 1239.59 145.602L1237.2 147.079C1235.89 147.887 1234.73 148.276 1233.7 148.246C1232.68 148.206 1231.77 147.787 1230.97 146.988C1230.31 146.335 1229.92 145.574 1229.78 144.706C1229.65 143.832 1229.76 142.933 1230.12 142.009C1230.47 141.08 1231.06 140.208 1231.87 139.395C1233.02 138.25 1234.17 137.602 1235.32 137.451C1236.48 137.296 1237.61 137.491 1238.71 138.039ZM1244.04 127.528L1245.55 129.035L1239.55 135.031L1238.04 133.525L1244.04 127.528ZM1237.02 129.005L1238.8 127.227L1249.82 138.255C1250.33 138.758 1250.78 139.061 1251.17 139.167C1251.57 139.262 1251.93 139.237 1252.24 139.092C1252.56 138.936 1252.85 138.728 1253.11 138.466C1253.3 138.271 1253.46 138.1 1253.56 137.954C1253.66 137.803 1253.74 137.683 1253.8 137.593L1255.76 138.828C1255.69 138.994 1255.56 139.207 1255.39 139.468C1255.23 139.734 1254.98 140.033 1254.65 140.365C1254.14 140.867 1253.54 141.251 1252.85 141.517C1252.15 141.778 1251.43 141.846 1250.67 141.721C1249.91 141.59 1249.2 141.188 1248.53 140.515L1237.02 129.005ZM1261.96 133.291C1261.23 134.024 1260.42 134.552 1259.55 134.873C1258.67 135.189 1257.79 135.26 1256.91 135.084C1256.03 134.903 1255.21 134.436 1254.46 133.683C1253.79 133.02 1253.39 132.352 1253.24 131.679C1253.08 131.001 1253.1 130.326 1253.3 129.653C1253.51 128.98 1253.81 128.322 1254.22 127.679C1254.64 127.026 1255.08 126.396 1255.54 125.788C1256.15 124.995 1256.66 124.357 1257.05 123.875C1257.44 123.383 1257.68 122.978 1257.76 122.662C1257.85 122.341 1257.76 122.037 1257.47 121.75L1257.41 121.69C1256.67 120.947 1255.89 120.573 1255.07 120.568C1254.25 120.558 1253.44 120.962 1252.62 121.781C1251.77 122.629 1251.29 123.481 1251.18 124.334C1251.07 125.188 1251.13 125.924 1251.35 126.541L1249.06 127.626C1248.66 126.622 1248.52 125.673 1248.63 124.779C1248.74 123.875 1249.01 123.046 1249.46 122.293C1249.9 121.529 1250.41 120.857 1250.99 120.274C1251.36 119.902 1251.84 119.521 1252.41 119.129C1252.98 118.727 1253.63 118.436 1254.35 118.255C1255.08 118.069 1255.87 118.099 1256.72 118.345C1257.57 118.592 1258.45 119.174 1259.37 120.093L1266.99 127.717L1265.21 129.494L1263.65 127.928L1263.56 128.018C1263.69 128.39 1263.76 128.859 1263.76 129.427C1263.77 129.994 1263.64 130.612 1263.37 131.28C1263.1 131.948 1262.63 132.618 1261.96 133.291ZM1260.63 131.423C1261.34 130.72 1261.79 129.989 1262 129.231C1262.21 128.467 1262.22 127.744 1262.03 127.061C1261.84 126.373 1261.51 125.788 1261.03 125.306L1259.4 123.679C1259.41 123.845 1259.33 124.093 1259.15 124.425C1258.97 124.746 1258.74 125.1 1258.47 125.487C1258.19 125.864 1257.92 126.228 1257.64 126.579C1257.37 126.921 1257.15 127.199 1256.99 127.415C1256.59 127.938 1256.25 128.467 1255.99 129.005C1255.72 129.532 1255.6 130.052 1255.62 130.564C1255.64 131.066 1255.87 131.543 1256.33 131.995C1256.94 132.613 1257.64 132.852 1258.41 132.711C1259.19 132.56 1259.93 132.131 1260.63 131.423ZM1263.7 107.869L1265.21 109.375L1259.21 115.372L1257.7 113.865L1263.7 107.869ZM1256.68 109.345L1258.46 107.567L1269.48 118.596C1269.99 119.098 1270.44 119.402 1270.83 119.507C1271.23 119.603 1271.59 119.578 1271.9 119.432C1272.22 119.276 1272.51 119.068 1272.77 118.807C1272.96 118.611 1273.12 118.44 1273.22 118.295C1273.32 118.144 1273.4 118.023 1273.46 117.933L1275.42 119.168C1275.34 119.334 1275.22 119.548 1275.05 119.809C1274.89 120.075 1274.64 120.374 1274.31 120.705C1273.8 121.207 1273.2 121.592 1272.5 121.858C1271.81 122.119 1271.09 122.187 1270.33 122.061C1269.57 121.931 1268.86 121.529 1268.19 120.856L1256.68 109.345ZM1277.94 116.765L1266.37 105.195L1268.15 103.417L1279.72 114.988L1277.94 116.765ZM1265.35 102.362C1265 102.709 1264.59 102.889 1264.1 102.905C1263.62 102.915 1263.21 102.754 1262.88 102.422C1262.55 102.091 1262.39 101.684 1262.4 101.202C1262.41 100.715 1262.59 100.298 1262.94 99.9515C1263.28 99.605 1263.7 99.4267 1264.18 99.4167C1264.67 99.4016 1265.08 99.5598 1265.41 99.8913C1265.74 100.223 1265.9 100.632 1265.88 101.119C1265.87 101.601 1265.69 102.016 1265.35 102.362ZM1287.92 107.272C1286.87 108.316 1285.71 108.984 1284.42 109.276C1283.14 109.562 1281.84 109.479 1280.5 109.027C1279.17 108.57 1277.91 107.744 1276.71 106.549C1275.5 105.343 1274.67 104.073 1274.21 102.737C1273.75 101.396 1273.67 100.085 1273.95 98.8046C1274.24 97.519 1274.91 96.3539 1275.96 95.3093C1277 94.2647 1278.16 93.5993 1279.44 93.313C1280.73 93.0217 1282.04 93.1071 1283.38 93.5691C1284.72 94.0261 1285.99 94.8573 1287.2 96.0626C1288.39 97.2578 1289.22 98.5234 1289.67 99.8593C1290.12 101.19 1290.21 102.498 1289.92 103.784C1289.63 105.065 1288.96 106.227 1287.92 107.272ZM1286.32 105.675C1287.12 104.881 1287.57 104.025 1287.67 103.106C1287.78 102.187 1287.62 101.273 1287.2 100.364C1286.79 99.455 1286.19 98.6138 1285.42 97.8404C1284.65 97.067 1283.8 96.4694 1282.89 96.0475C1281.97 95.6257 1281.05 95.4649 1280.13 95.5654C1279.21 95.6658 1278.35 96.1128 1277.55 96.9063C1276.76 97.6998 1276.31 98.5585 1276.21 99.4826C1276.11 100.407 1276.27 101.326 1276.7 102.24C1277.12 103.154 1277.71 103.997 1278.49 104.771C1279.26 105.544 1280.1 106.139 1281.01 106.556C1281.92 106.973 1282.83 107.129 1283.75 107.023C1284.67 106.918 1285.53 106.468 1286.32 105.675ZM1290.45 90.3355L1297.41 97.2961L1295.64 99.0739L1284.06 87.5031L1285.78 85.7855L1287.59 87.5935L1287.74 87.4428C1287.42 86.5841 1287.36 85.7002 1287.56 84.7912C1287.75 83.8772 1288.28 82.9832 1289.16 82.1094C1289.94 81.326 1290.79 80.8011 1291.7 80.535C1292.6 80.2638 1293.54 80.2889 1294.51 80.6103C1295.48 80.9267 1296.46 81.5771 1297.44 82.5614L1304.8 89.9137L1303.02 91.6915L1295.79 84.4597C1294.88 83.5507 1293.93 83.0787 1292.95 83.0435C1291.97 83.0033 1291.07 83.395 1290.24 84.2187C1289.67 84.7862 1289.29 85.4164 1289.09 86.1095C1288.89 86.7975 1288.9 87.5056 1289.12 88.2338C1289.34 88.962 1289.78 89.6626 1290.45 90.3355ZM1305.33 76.3598C1307.23 78.2581 1308.73 80.2544 1309.83 82.3486C1310.93 84.4327 1311.69 86.6048 1312.11 88.8647L1310.55 90.4316C1310.41 89.5728 1310.13 88.6236 1309.72 87.5841C1309.31 86.5445 1308.79 85.4748 1308.16 84.375C1307.53 83.2701 1306.82 82.1904 1306.03 81.1357C1305.23 80.0711 1304.39 79.0918 1303.49 78.1978C1302.3 77.0026 1300.97 75.9053 1299.51 74.9059C1298.05 73.9065 1296.59 73.0753 1295.15 72.4124C1293.7 71.7495 1292.41 71.3276 1291.26 71.1469L1292.83 69.58C1295.09 70.0018 1297.26 70.7652 1299.35 71.87C1301.44 72.9648 1303.43 74.4614 1305.33 76.3598Z" fill="black"/>
<path d="M1506.9 515.835C1505.02 515.835 1503.35 515.513 1501.88 514.869C1500.42 514.225 1499.26 513.33 1498.4 512.185C1497.55 511.029 1497.09 509.689 1497.01 508.165H1500.59C1500.67 509.102 1500.99 509.912 1501.56 510.594C1502.12 511.266 1502.87 511.787 1503.79 512.156C1504.7 512.526 1505.72 512.71 1506.84 512.71C1508.09 512.71 1509.2 512.492 1510.16 512.057C1511.13 511.621 1511.89 511.015 1512.44 510.239C1512.99 509.462 1513.26 508.562 1513.26 507.54C1513.26 506.47 1513 505.527 1512.46 504.713C1511.93 503.889 1511.16 503.245 1510.14 502.781C1509.11 502.317 1507.86 502.085 1506.39 502.085H1504.06V498.96H1506.39C1507.54 498.96 1508.55 498.752 1509.42 498.335C1510.31 497.919 1510.99 497.331 1511.48 496.574C1511.99 495.816 1512.24 494.926 1512.24 493.903C1512.24 492.919 1512.02 492.062 1511.58 491.332C1511.15 490.603 1510.53 490.035 1509.74 489.628C1508.95 489.221 1508.02 489.017 1506.95 489.017C1505.95 489.017 1505 489.202 1504.11 489.571C1503.23 489.931 1502.51 490.456 1501.95 491.148C1501.39 491.83 1501.09 492.653 1501.04 493.619H1497.64C1497.69 492.095 1498.15 490.759 1499.01 489.614C1499.87 488.458 1501 487.559 1502.39 486.915C1503.8 486.271 1505.33 485.949 1507.01 485.949C1508.81 485.949 1510.35 486.313 1511.64 487.043C1512.93 487.762 1513.92 488.714 1514.61 489.898C1515.3 491.081 1515.65 492.36 1515.65 493.733C1515.65 495.371 1515.22 496.768 1514.35 497.923C1513.5 499.079 1512.34 499.879 1510.87 500.324V500.551C1512.71 500.854 1514.15 501.635 1515.18 502.895C1516.21 504.145 1516.73 505.693 1516.73 507.54C1516.73 509.121 1516.3 510.542 1515.43 511.801C1514.58 513.051 1513.42 514.036 1511.94 514.756C1510.46 515.475 1508.78 515.835 1506.9 515.835ZM1525.55 486.347V488.903C1525.55 489.68 1525.41 490.509 1525.12 491.389C1524.85 492.26 1524.44 493.108 1523.9 493.932C1523.37 494.746 1522.73 495.456 1521.97 496.062L1520.15 494.585C1520.75 493.733 1521.26 492.848 1521.7 491.929C1522.14 491.001 1522.37 490.011 1522.37 488.96V486.347H1525.55ZM1537.57 515.835C1535.43 515.835 1533.61 515.253 1532.1 514.088C1530.6 512.914 1529.45 511.214 1528.65 508.989C1527.86 506.754 1527.46 504.055 1527.46 500.892C1527.46 497.748 1527.86 495.063 1528.65 492.838C1529.46 490.603 1530.61 488.899 1532.12 487.724C1533.63 486.541 1535.45 485.949 1537.57 485.949C1539.69 485.949 1541.51 486.541 1543.01 487.724C1544.53 488.899 1545.68 490.603 1546.48 492.838C1547.28 495.063 1547.68 497.748 1547.68 500.892C1547.68 504.055 1547.29 506.754 1546.49 508.989C1545.7 511.214 1544.55 512.914 1543.04 514.088C1541.53 515.253 1539.71 515.835 1537.57 515.835ZM1537.57 512.71C1539.69 512.71 1541.34 511.687 1542.51 509.642C1543.69 507.597 1544.28 504.68 1544.28 500.892C1544.28 498.373 1544.01 496.228 1543.47 494.457C1542.94 492.687 1542.17 491.337 1541.17 490.409C1540.17 489.481 1538.97 489.017 1537.57 489.017C1535.47 489.017 1533.83 490.054 1532.64 492.128C1531.46 494.192 1530.87 497.114 1530.87 500.892C1530.87 503.411 1531.13 505.551 1531.66 507.312C1532.19 509.074 1532.95 510.414 1533.95 511.332C1534.95 512.251 1536.16 512.71 1537.57 512.71ZM1562.57 515.835C1560.43 515.835 1558.61 515.253 1557.1 514.088C1555.6 512.914 1554.45 511.214 1553.65 508.989C1552.86 506.754 1552.46 504.055 1552.46 500.892C1552.46 497.748 1552.86 495.063 1553.65 492.838C1554.46 490.603 1555.61 488.899 1557.12 487.724C1558.63 486.541 1560.45 485.949 1562.57 485.949C1564.69 485.949 1566.51 486.541 1568.01 487.724C1569.53 488.899 1570.68 490.603 1571.48 492.838C1572.28 495.063 1572.68 497.748 1572.68 500.892C1572.68 504.055 1572.29 506.754 1571.49 508.989C1570.7 511.214 1569.55 512.914 1568.04 514.088C1566.53 515.253 1564.71 515.835 1562.57 515.835ZM1562.57 512.71C1564.69 512.71 1566.34 511.687 1567.51 509.642C1568.69 507.597 1569.28 504.68 1569.28 500.892C1569.28 498.373 1569.01 496.228 1568.47 494.457C1567.94 492.687 1567.17 491.337 1566.17 490.409C1565.17 489.481 1563.97 489.017 1562.57 489.017C1560.47 489.017 1558.83 490.054 1557.64 492.128C1556.46 494.192 1555.87 497.114 1555.87 500.892C1555.87 503.411 1556.13 505.551 1556.66 507.312C1557.19 509.074 1557.95 510.414 1558.95 511.332C1559.95 512.251 1561.16 512.71 1562.57 512.71ZM1587.57 515.835C1585.43 515.835 1583.61 515.253 1582.1 514.088C1580.6 512.914 1579.45 511.214 1578.65 508.989C1577.86 506.754 1577.46 504.055 1577.46 500.892C1577.46 497.748 1577.86 495.063 1578.65 492.838C1579.46 490.603 1580.61 488.899 1582.12 487.724C1583.63 486.541 1585.45 485.949 1587.57 485.949C1589.69 485.949 1591.51 486.541 1593.01 487.724C1594.53 488.899 1595.68 490.603 1596.48 492.838C1597.28 495.063 1597.68 497.748 1597.68 500.892C1597.68 504.055 1597.29 506.754 1596.49 508.989C1595.7 511.214 1594.55 512.914 1593.04 514.088C1591.53 515.253 1589.71 515.835 1587.57 515.835ZM1587.57 512.71C1589.69 512.71 1591.34 511.687 1592.51 509.642C1593.69 507.597 1594.28 504.68 1594.28 500.892C1594.28 498.373 1594.01 496.228 1593.47 494.457C1592.94 492.687 1592.17 491.337 1591.17 490.409C1590.17 489.481 1588.97 489.017 1587.57 489.017C1585.47 489.017 1583.83 490.054 1582.64 492.128C1581.46 494.192 1580.87 497.114 1580.87 500.892C1580.87 503.411 1581.13 505.551 1581.66 507.312C1582.19 509.074 1582.95 510.414 1583.95 511.332C1584.95 512.251 1586.16 512.71 1587.57 512.71ZM1603.14 515.438V493.619H1606.38V497.028H1606.66C1607.12 495.864 1607.85 494.959 1608.86 494.315C1609.88 493.662 1611.09 493.335 1612.51 493.335C1613.95 493.335 1615.15 493.662 1616.11 494.315C1617.07 494.959 1617.83 495.864 1618.37 497.028H1618.59C1619.15 495.902 1619.99 495.007 1621.11 494.344C1622.23 493.671 1623.57 493.335 1625.13 493.335C1627.08 493.335 1628.67 493.946 1629.92 495.168C1631.16 496.38 1631.78 498.269 1631.78 500.835V515.438H1628.42V500.835C1628.42 499.225 1627.98 498.075 1627.1 497.384C1626.22 496.692 1625.18 496.347 1623.99 496.347C1622.46 496.347 1621.27 496.811 1620.43 497.739C1619.58 498.657 1619.16 499.822 1619.16 501.233V515.438H1615.75V500.494C1615.75 499.254 1615.35 498.255 1614.55 497.497C1613.74 496.73 1612.7 496.347 1611.43 496.347C1610.56 496.347 1609.75 496.579 1608.99 497.043C1608.24 497.507 1607.64 498.151 1607.17 498.974C1606.72 499.789 1606.49 500.731 1606.49 501.801V515.438H1603.14Z" fill="black"/>
<path d="M86.5462 383.699C87.7393 383.708 88.9325 383.936 90.1257 384.381C91.3189 384.826 92.4079 385.564 93.3928 386.597C94.3776 387.619 95.1683 389.016 95.7649 390.787C96.3615 392.558 96.6598 394.778 96.6598 397.449C96.6598 400.034 96.4136 402.33 95.9212 404.338C95.4382 406.336 94.7375 408.022 93.8189 409.395C92.9098 410.768 91.8018 411.81 90.495 412.52C89.1977 413.23 87.7299 413.585 86.0916 413.585C84.4628 413.585 83.0092 413.263 81.7308 412.619C80.4619 411.966 79.4202 411.062 78.6058 409.906C77.8009 408.741 77.2848 407.392 77.0575 405.858H80.5234C80.8359 407.193 81.4562 408.296 82.3842 409.168C83.3217 410.029 84.5575 410.46 86.0916 410.46C88.3359 410.46 90.1068 409.48 91.4041 407.52C92.7109 405.56 93.3643 402.79 93.3643 399.21H93.1371C92.6068 400.006 91.977 400.692 91.2479 401.27C90.5187 401.848 89.709 402.293 88.8189 402.605C87.9287 402.918 86.9818 403.074 85.978 403.074C84.3113 403.074 82.782 402.662 81.3899 401.838C80.0073 401.005 78.8994 399.864 78.0661 398.415C77.2422 396.956 76.8303 395.29 76.8303 393.415C76.8303 391.634 77.228 390.006 78.0234 388.528C78.8284 387.042 79.9553 385.858 81.4041 384.977C82.8625 384.097 84.5765 383.67 86.5462 383.699ZM86.5462 386.824C85.353 386.824 84.2782 387.122 83.3217 387.719C82.3748 388.306 81.6219 389.101 81.0632 390.105C80.514 391.099 80.2393 392.203 80.2393 393.415C80.2393 394.627 80.5045 395.73 81.0348 396.724C81.5746 397.709 82.3085 398.495 83.2365 399.082C84.174 399.66 85.2393 399.949 86.4325 399.949C87.3322 399.949 88.1702 399.774 88.9467 399.423C89.7232 399.063 90.4003 398.576 90.978 397.96C91.5651 397.335 92.0244 396.63 92.3558 395.844C92.6873 395.048 92.853 394.22 92.853 393.358C92.853 392.222 92.5784 391.156 92.0291 390.162C91.4893 389.168 90.7412 388.363 89.7848 387.747C88.8378 387.132 87.7583 386.824 86.5462 386.824ZM111.734 413.585C109.594 413.585 107.771 413.003 106.266 411.838C104.76 410.664 103.609 408.964 102.814 406.739C102.018 404.504 101.621 401.805 101.621 398.642C101.621 395.498 102.018 392.813 102.814 390.588C103.619 388.353 104.774 386.649 106.28 385.474C107.795 384.291 109.613 383.699 111.734 383.699C113.856 383.699 115.669 384.291 117.175 385.474C118.69 386.649 119.845 388.353 120.641 390.588C121.446 392.813 121.848 395.498 121.848 398.642C121.848 401.805 121.45 404.504 120.655 406.739C119.859 408.964 118.709 410.664 117.203 411.838C115.697 413.003 113.875 413.585 111.734 413.585ZM111.734 410.46C113.856 410.46 115.503 409.437 116.678 407.392C117.852 405.347 118.439 402.43 118.439 398.642C118.439 396.123 118.169 393.978 117.629 392.207C117.099 390.437 116.332 389.087 115.328 388.159C114.334 387.231 113.136 386.767 111.734 386.767C109.632 386.767 107.989 387.804 106.805 389.878C105.622 391.942 105.03 394.864 105.03 398.642C105.03 401.161 105.295 403.301 105.825 405.062C106.356 406.824 107.118 408.164 108.112 409.082C109.116 410.001 110.323 410.46 111.734 410.46ZM136.734 413.585C134.594 413.585 132.771 413.003 131.266 411.838C129.76 410.664 128.609 408.964 127.814 406.739C127.018 404.504 126.621 401.805 126.621 398.642C126.621 395.498 127.018 392.813 127.814 390.588C128.619 388.353 129.774 386.649 131.28 385.474C132.795 384.291 134.613 383.699 136.734 383.699C138.856 383.699 140.669 384.291 142.175 385.474C143.69 386.649 144.845 388.353 145.641 390.588C146.446 392.813 146.848 395.498 146.848 398.642C146.848 401.805 146.45 404.504 145.655 406.739C144.859 408.964 143.709 410.664 142.203 411.838C140.697 413.003 138.875 413.585 136.734 413.585ZM136.734 410.46C138.856 410.46 140.503 409.437 141.678 407.392C142.852 405.347 143.439 402.43 143.439 398.642C143.439 396.123 143.169 393.978 142.629 392.207C142.099 390.437 141.332 389.087 140.328 388.159C139.334 387.231 138.136 386.767 136.734 386.767C134.632 386.767 132.989 387.804 131.805 389.878C130.622 391.942 130.03 394.864 130.03 398.642C130.03 401.161 130.295 403.301 130.825 405.062C131.356 406.824 132.118 408.164 133.112 409.082C134.116 410.001 135.323 410.46 136.734 410.46ZM152.303 413.188V391.369H155.541V394.778H155.825C156.28 393.614 157.014 392.709 158.027 392.065C159.04 391.412 160.257 391.085 161.678 391.085C163.117 391.085 164.315 391.412 165.271 392.065C166.237 392.709 166.99 393.614 167.53 394.778H167.757C168.316 393.652 169.154 392.757 170.271 392.094C171.389 391.421 172.729 391.085 174.291 391.085C176.242 391.085 177.838 391.696 179.078 392.918C180.319 394.13 180.939 396.019 180.939 398.585V413.188H177.587V398.585C177.587 396.975 177.146 395.825 176.266 395.134C175.385 394.442 174.348 394.097 173.155 394.097C171.621 394.097 170.432 394.561 169.589 395.489C168.747 396.407 168.325 397.572 168.325 398.983V413.188H164.916V398.244C164.916 397.004 164.514 396.005 163.709 395.247C162.904 394.48 161.867 394.097 160.598 394.097C159.727 394.097 158.912 394.329 158.155 394.793C157.407 395.257 156.801 395.901 156.337 396.724C155.882 397.539 155.655 398.481 155.655 399.551V413.188H152.303Z" fill="black"/>
<path d="M67.9027 271.597V300.688H64.38V275.29H64.2095L57.1072 280.006V276.426L64.38 271.597H67.9027ZM79.2805 271.597V274.153C79.2805 274.93 79.1385 275.759 78.8544 276.639C78.5798 277.51 78.1726 278.358 77.6328 279.182C77.1025 279.996 76.4586 280.706 75.701 281.312L73.8828 279.835C74.4794 278.983 74.9955 278.098 75.4311 277.179C75.8762 276.251 76.0987 275.261 76.0987 274.21V271.597H79.2805ZM93.8793 271.597V300.688H90.3565V275.29H90.1861L83.0838 280.006V276.426L90.3565 271.597H93.8793ZM111.734 301.085C109.594 301.085 107.771 300.503 106.266 299.338C104.76 298.164 103.609 296.464 102.814 294.239C102.018 292.004 101.621 289.305 101.621 286.142C101.621 282.998 102.018 280.313 102.814 278.088C103.619 275.853 104.774 274.149 106.28 272.974C107.795 271.791 109.613 271.199 111.734 271.199C113.856 271.199 115.669 271.791 117.175 272.974C118.69 274.149 119.845 275.853 120.641 278.088C121.446 280.313 121.848 282.998 121.848 286.142C121.848 289.305 121.45 292.004 120.655 294.239C119.859 296.464 118.709 298.164 117.203 299.338C115.697 300.503 113.875 301.085 111.734 301.085ZM111.734 297.96C113.856 297.96 115.503 296.937 116.678 294.892C117.852 292.847 118.439 289.93 118.439 286.142C118.439 283.623 118.169 281.478 117.629 279.707C117.099 277.937 116.332 276.587 115.328 275.659C114.334 274.731 113.136 274.267 111.734 274.267C109.632 274.267 107.989 275.304 106.805 277.378C105.622 279.442 105.03 282.364 105.03 286.142C105.03 288.661 105.295 290.801 105.825 292.562C106.356 294.324 107.118 295.664 108.112 296.582C109.116 297.501 110.323 297.96 111.734 297.96ZM136.734 301.085C134.594 301.085 132.771 300.503 131.266 299.338C129.76 298.164 128.609 296.464 127.814 294.239C127.018 292.004 126.621 289.305 126.621 286.142C126.621 282.998 127.018 280.313 127.814 278.088C128.619 275.853 129.774 274.149 131.28 272.974C132.795 271.791 134.613 271.199 136.734 271.199C138.856 271.199 140.669 271.791 142.175 272.974C143.69 274.149 144.845 275.853 145.641 278.088C146.446 280.313 146.848 282.998 146.848 286.142C146.848 289.305 146.45 292.004 145.655 294.239C144.859 296.464 143.709 298.164 142.203 299.338C140.697 300.503 138.875 301.085 136.734 301.085ZM136.734 297.96C138.856 297.96 140.503 296.937 141.678 294.892C142.852 292.847 143.439 289.93 143.439 286.142C143.439 283.623 143.169 281.478 142.629 279.707C142.099 277.937 141.332 276.587 140.328 275.659C139.334 274.731 138.136 274.267 136.734 274.267C134.632 274.267 132.989 275.304 131.805 277.378C130.622 279.442 130.03 282.364 130.03 286.142C130.03 288.661 130.295 290.801 130.825 292.562C131.356 294.324 132.118 295.664 133.112 296.582C134.116 297.501 135.323 297.96 136.734 297.96ZM152.303 300.688V278.869H155.541V282.278H155.825C156.28 281.114 157.014 280.209 158.027 279.565C159.04 278.912 160.257 278.585 161.678 278.585C163.117 278.585 164.315 278.912 165.271 279.565C166.237 280.209 166.99 281.114 167.53 282.278H167.757C168.316 281.152 169.154 280.257 170.271 279.594C171.389 278.921 172.729 278.585 174.291 278.585C176.242 278.585 177.838 279.196 179.078 280.418C180.319 281.63 180.939 283.519 180.939 286.085V300.688H177.587V286.085C177.587 284.475 177.146 283.325 176.266 282.634C175.385 281.942 174.348 281.597 173.155 281.597C171.621 281.597 170.432 282.061 169.589 282.989C168.747 283.907 168.325 285.072 168.325 286.483V300.688H164.916V285.744C164.916 284.504 164.514 283.505 163.709 282.747C162.904 281.98 161.867 281.597 160.598 281.597C159.727 281.597 158.912 281.829 158.155 282.293C157.407 282.757 156.801 283.401 156.337 284.224C155.882 285.039 155.655 285.981 155.655 287.051V300.688H152.303Z" fill="black"/>
<path d="M61.0277 159.097V188.188H57.505V162.79H57.3345L50.2322 167.506V163.926L57.505 159.097H61.0277ZM72.4055 159.097V161.653C72.4055 162.43 72.2635 163.259 71.9794 164.139C71.7048 165.01 71.2976 165.858 70.7578 166.682C70.2275 167.496 69.5836 168.206 68.826 168.812L67.0078 167.335C67.6044 166.483 68.1205 165.598 68.5561 164.679C69.0012 163.751 69.2237 162.761 69.2237 161.71V159.097H72.4055ZM86.6065 188.585C84.7315 188.585 83.0601 188.263 81.5923 187.619C80.134 186.975 78.974 186.08 78.1122 184.935C77.2599 183.779 76.7959 182.439 76.7202 180.915H80.2997C80.3755 181.852 80.6974 182.662 81.2656 183.344C81.8338 184.016 82.5772 184.537 83.4957 184.906C84.4143 185.276 85.4323 185.46 86.5497 185.46C87.7997 185.46 88.9077 185.242 89.8736 184.807C90.8395 184.371 91.5971 183.765 92.1463 182.989C92.6955 182.212 92.9702 181.312 92.9702 180.29C92.9702 179.22 92.705 178.277 92.1747 177.463C91.6444 176.639 90.8679 175.995 89.8452 175.531C88.8224 175.067 87.5724 174.835 86.0952 174.835H83.7656V171.71H86.0952C87.2505 171.71 88.2637 171.502 89.1349 171.085C90.0156 170.669 90.7022 170.081 91.1946 169.324C91.6965 168.566 91.9474 167.676 91.9474 166.653C91.9474 165.669 91.7296 164.812 91.294 164.082C90.8584 163.353 90.2429 162.785 89.4474 162.378C88.6615 161.971 87.7334 161.767 86.6634 161.767C85.6596 161.767 84.7126 161.952 83.8224 162.321C82.9418 162.681 82.2221 163.206 81.6634 163.898C81.1046 164.58 80.8016 165.403 80.7543 166.369H77.3452C77.402 164.845 77.8613 163.509 78.723 162.364C79.5848 161.208 80.7116 160.309 82.1037 159.665C83.5052 159.021 85.044 158.699 86.7202 158.699C88.5194 158.699 90.063 159.063 91.3509 159.793C92.6387 160.512 93.6283 161.464 94.3196 162.648C95.0109 163.831 95.3565 165.11 95.3565 166.483C95.3565 168.121 94.9257 169.518 94.0639 170.673C93.2116 171.829 92.0516 172.629 90.5838 173.074V173.301C92.4209 173.604 93.8556 174.385 94.8878 175.645C95.92 176.895 96.4361 178.443 96.4361 180.29C96.4361 181.871 96.0052 183.292 95.1435 184.551C94.2912 185.801 93.1264 186.786 91.6491 187.506C90.1719 188.225 88.491 188.585 86.6065 188.585ZM111.734 188.585C109.594 188.585 107.771 188.003 106.266 186.838C104.76 185.664 103.609 183.964 102.814 181.739C102.018 179.504 101.621 176.805 101.621 173.642C101.621 170.498 102.018 167.813 102.814 165.588C103.619 163.353 104.774 161.649 106.28 160.474C107.795 159.291 109.613 158.699 111.734 158.699C113.856 158.699 115.669 159.291 117.175 160.474C118.69 161.649 119.845 163.353 120.641 165.588C121.446 167.813 121.848 170.498 121.848 173.642C121.848 176.805 121.45 179.504 120.655 181.739C119.859 183.964 118.709 185.664 117.203 186.838C115.697 188.003 113.875 188.585 111.734 188.585ZM111.734 185.46C113.856 185.46 115.503 184.437 116.678 182.392C117.852 180.347 118.439 177.43 118.439 173.642C118.439 171.123 118.169 168.978 117.629 167.207C117.099 165.437 116.332 164.087 115.328 163.159C114.334 162.231 113.136 161.767 111.734 161.767C109.632 161.767 107.989 162.804 106.805 164.878C105.622 166.942 105.03 169.864 105.03 173.642C105.03 176.161 105.295 178.301 105.825 180.062C106.356 181.824 107.118 183.164 108.112 184.082C109.116 185.001 110.323 185.46 111.734 185.46ZM136.734 188.585C134.594 188.585 132.771 188.003 131.266 186.838C129.76 185.664 128.609 183.964 127.814 181.739C127.018 179.504 126.621 176.805 126.621 173.642C126.621 170.498 127.018 167.813 127.814 165.588C128.619 163.353 129.774 161.649 131.28 160.474C132.795 159.291 134.613 158.699 136.734 158.699C138.856 158.699 140.669 159.291 142.175 160.474C143.69 161.649 144.845 163.353 145.641 165.588C146.446 167.813 146.848 170.498 146.848 173.642C146.848 176.805 146.45 179.504 145.655 181.739C144.859 183.964 143.709 185.664 142.203 186.838C140.697 188.003 138.875 188.585 136.734 188.585ZM136.734 185.46C138.856 185.46 140.503 184.437 141.678 182.392C142.852 180.347 143.439 177.43 143.439 173.642C143.439 171.123 143.169 168.978 142.629 167.207C142.099 165.437 141.332 164.087 140.328 163.159C139.334 162.231 138.136 161.767 136.734 161.767C134.632 161.767 132.989 162.804 131.805 164.878C130.622 166.942 130.03 169.864 130.03 173.642C130.03 176.161 130.295 178.301 130.825 180.062C131.356 181.824 132.118 183.164 133.112 184.082C134.116 185.001 135.323 185.46 136.734 185.46ZM152.303 188.188V166.369H155.541V169.778H155.825C156.28 168.614 157.014 167.709 158.027 167.065C159.04 166.412 160.257 166.085 161.678 166.085C163.117 166.085 164.315 166.412 165.271 167.065C166.237 167.709 166.99 168.614 167.53 169.778H167.757C168.316 168.652 169.154 167.757 170.271 167.094C171.389 166.421 172.729 166.085 174.291 166.085C176.242 166.085 177.838 166.696 179.078 167.918C180.319 169.13 180.939 171.019 180.939 173.585V188.188H177.587V173.585C177.587 171.975 177.146 170.825 176.266 170.134C175.385 169.442 174.348 169.097 173.155 169.097C171.621 169.097 170.432 169.561 169.589 170.489C168.747 171.407 168.325 172.572 168.325 173.983V188.188H164.916V173.244C164.916 172.004 164.514 171.005 163.709 170.247C162.904 169.48 161.867 169.097 160.598 169.097C159.727 169.097 158.912 169.329 158.155 169.793C157.407 170.257 156.801 170.901 156.337 171.724C155.882 172.539 155.655 173.481 155.655 174.551V188.188H152.303Z" fill="black"/>
<path d="M62.1605 46.5966V75.6875H58.6378V50.2898H58.4673L51.3651 55.0057V51.4261L58.6378 46.5966H62.1605ZM73.5384 46.5966V49.1534C73.5384 49.9299 73.3963 50.7585 73.1122 51.6392C72.8376 52.5104 72.4304 53.358 71.8906 54.1818C71.3603 54.9962 70.7164 55.7064 69.9588 56.3125L68.1406 54.8352C68.7372 53.983 69.2533 53.0975 69.6889 52.179C70.134 51.2509 70.3565 50.2614 70.3565 49.2102V46.5966H73.5384ZM87.0007 76.0852C85.334 76.0852 83.8331 75.7538 82.4979 75.0909C81.1626 74.428 80.0926 73.5189 79.2876 72.3636C78.4827 71.2083 78.0424 69.892 77.9666 68.4148H81.3757C81.5083 69.7311 82.1049 70.8201 83.1655 71.6818C84.2356 72.5341 85.514 72.9602 87.0007 72.9602C88.1939 72.9602 89.2545 72.6809 90.1825 72.1222C91.12 71.5634 91.8539 70.7964 92.3842 69.821C92.924 68.8362 93.1939 67.7235 93.1939 66.483C93.1939 65.214 92.9145 64.0824 92.3558 63.0881C91.8066 62.0843 91.049 61.2936 90.0831 60.7159C89.1172 60.1383 88.014 59.8447 86.7734 59.8352C85.8833 59.8258 84.9695 59.9631 84.032 60.2472C83.0945 60.5218 82.3227 60.8769 81.7166 61.3125L78.4212 60.9148L80.1825 46.5966H95.2962V49.7216H83.1371L82.1143 58.3011H82.2848C82.8814 57.8277 83.6295 57.4347 84.5291 57.1222C85.4287 56.8097 86.3662 56.6534 87.3416 56.6534C89.1219 56.6534 90.7081 57.0795 92.1001 57.9318C93.5017 58.7746 94.6001 59.9299 95.3956 61.3977C96.2005 62.8655 96.603 64.5417 96.603 66.4261C96.603 68.2822 96.1863 69.9394 95.353 71.3977C94.5291 72.8466 93.3928 73.9924 91.9439 74.8352C90.495 75.6686 88.8473 76.0852 87.0007 76.0852ZM111.734 76.0852C109.594 76.0852 107.771 75.5028 106.266 74.3381C104.76 73.1638 103.609 71.464 102.814 69.2386C102.018 67.0038 101.621 64.3049 101.621 61.142C101.621 57.9981 102.018 55.3134 102.814 53.0881C103.619 50.8532 104.774 49.1487 106.28 47.9744C107.795 46.7907 109.613 46.1989 111.734 46.1989C113.856 46.1989 115.669 46.7907 117.175 47.9744C118.69 49.1487 119.845 50.8532 120.641 53.0881C121.446 55.3134 121.848 57.9981 121.848 61.142C121.848 64.3049 121.45 67.0038 120.655 69.2386C119.859 71.464 118.709 73.1638 117.203 74.3381C115.697 75.5028 113.875 76.0852 111.734 76.0852ZM111.734 72.9602C113.856 72.9602 115.503 71.9375 116.678 69.892C117.852 67.8466 118.439 64.9299 118.439 61.142C118.439 58.6231 118.169 56.4782 117.629 54.7074C117.099 52.9366 116.332 51.5871 115.328 50.6591C114.334 49.7311 113.136 49.267 111.734 49.267C109.632 49.267 107.989 50.304 106.805 52.3778C105.622 54.4422 105.03 57.3636 105.03 61.142C105.03 63.661 105.295 65.8011 105.825 67.5625C106.356 69.3239 107.118 70.6638 108.112 71.5824C109.116 72.5009 110.323 72.9602 111.734 72.9602ZM136.734 76.0852C134.594 76.0852 132.771 75.5028 131.266 74.3381C129.76 73.1638 128.609 71.464 127.814 69.2386C127.018 67.0038 126.621 64.3049 126.621 61.142C126.621 57.9981 127.018 55.3134 127.814 53.0881C128.619 50.8532 129.774 49.1487 131.28 47.9744C132.795 46.7907 134.613 46.1989 136.734 46.1989C138.856 46.1989 140.669 46.7907 142.175 47.9744C143.69 49.1487 144.845 50.8532 145.641 53.0881C146.446 55.3134 146.848 57.9981 146.848 61.142C146.848 64.3049 146.45 67.0038 145.655 69.2386C144.859 71.464 143.709 73.1638 142.203 74.3381C140.697 75.5028 138.875 76.0852 136.734 76.0852ZM136.734 72.9602C138.856 72.9602 140.503 71.9375 141.678 69.892C142.852 67.8466 143.439 64.9299 143.439 61.142C143.439 58.6231 143.169 56.4782 142.629 54.7074C142.099 52.9366 141.332 51.5871 140.328 50.6591C139.334 49.7311 138.136 49.267 136.734 49.267C134.632 49.267 132.989 50.304 131.805 52.3778C130.622 54.4422 130.03 57.3636 130.03 61.142C130.03 63.661 130.295 65.8011 130.825 67.5625C131.356 69.3239 132.118 70.6638 133.112 71.5824C134.116 72.5009 135.323 72.9602 136.734 72.9602ZM152.303 75.6875V53.8693H155.541V57.2784H155.825C156.28 56.1136 157.014 55.2093 158.027 54.5653C159.04 53.9119 160.257 53.5852 161.678 53.5852C163.117 53.5852 164.315 53.9119 165.271 54.5653C166.237 55.2093 166.99 56.1136 167.53 57.2784H167.757C168.316 56.1515 169.154 55.2566 170.271 54.5938C171.389 53.9214 172.729 53.5852 174.291 53.5852C176.242 53.5852 177.838 54.196 179.078 55.4176C180.319 56.6297 180.939 58.5189 180.939 61.0852V75.6875H177.587V61.0852C177.587 59.4754 177.146 58.3248 176.266 57.6335C175.385 56.9422 174.348 56.5966 173.155 56.5966C171.621 56.5966 170.432 57.0606 169.589 57.9886C168.747 58.9072 168.325 60.072 168.325 61.483V75.6875H164.916V60.7443C164.916 59.5038 164.514 58.5047 163.709 57.7472C162.904 56.9801 161.867 56.5966 160.598 56.5966C159.727 56.5966 158.912 56.8286 158.155 57.2926C157.407 57.7566 156.801 58.4006 156.337 59.2244C155.882 60.0388 155.655 60.9811 155.655 62.0511V75.6875H152.303Z" fill="black"/>
<line x1="1148.5" y1="240" x2="1148.5" y2="467" stroke="black" stroke-dasharray="2 2"/>
<circle cx="1149" cy="240" r="10" fill="black"/>
</svg>
