<?xml version="1.0"?>
<svg xmlns="http://www.w3.org/2000/svg" width="2000" height="563" viewBox="0 0 2000 563" fill="none">
  <path d="M210 73.25H1900" stroke="black" stroke-opacity="0.25"/>
  <path d="M210 185.75H1900" stroke="black" stroke-opacity="0.25"/>
  <path d="M210 298.25H1900" stroke="black" stroke-opacity="0.25"/>
  <path d="M210 410.75H1900" stroke="black" stroke-opacity="0.25"/>
  <path d="M1563.95 57V467" stroke="black" stroke-opacity="0.25"/>
  <path d="M1112.63 57V467" stroke="black" stroke-opacity="0.25"/>
  <path d="M661.315 57V467" stroke="black" stroke-opacity="0.25"/>
  <path d="M210 405C214.694 404.9 233.472 404.501 238.167 404.401M238.167 404.401C233.472 404.7 242.861 404.301 238.167 404.401ZM238.167 404.401C242.861 404.101 256.944 403.602 266.333 402.603C275.722 401.604 285.111 399.307 294.5 398.409C303.889 397.51 313.278 398.209 322.667 397.21C332.056 396.212 341.444 394.314 350.833 392.417C360.222 390.519 369.611 388.122 379 385.825C388.389 383.528 397.778 380.432 407.167 378.635C416.556 376.837 425.944 376.438 435.333 375.039C444.722 373.641 454.111 373.342 463.5 370.246C472.889 367.15 482.278 359.76 491.667 356.464C501.056 353.168 510.444 353.068 519.833 350.472C529.222 347.875 538.611 343.082 548 340.885C557.389 338.687 566.778 338.887 576.167 337.289C585.556 335.691 594.944 332.895 604.333 331.297C613.722 329.699 623.111 328.9 632.5 327.702C641.889 326.503 651.278 325.105 660.667 324.107C670.056 323.108 679.444 322.409 688.833 321.71C698.222 321.011 707.611 321.21 717 319.912C726.389 318.614 735.778 315.818 745.167 313.92C754.556 312.023 763.944 310.924 773.333 308.527C782.722 306.13 792.111 301.536 801.5 299.539C810.889 297.542 820.278 297.642 829.667 296.543C839.056 295.444 848.444 294.745 857.833 292.948C867.222 291.15 876.611 287.854 886 285.757C895.389 283.66 904.778 283.161 914.167 280.364C923.556 277.568 932.944 272.475 942.333 268.979C951.722 265.484 961.111 262.088 970.5 259.392C979.889 256.696 989.278 253.5 998.667 252.801C1008.06 252.102 1017.44 254.299 1026.83 255.198C1036.22 256.096 1045.61 258.893 1055 258.194C1064.39 257.494 1073.78 253 1083.17 251.003C1092.56 249.006 1101.94 247.707 1111.33 246.209C1120.72 244.711 1130.11 243.213 1139.5 242.015C1148.89 240.816 1158.28 240.417 1167.67 239.019C1177.06 237.621 1186.44 235.224 1195.83 233.626C1205.22 232.028 1214.61 231.828 1224 229.431C1233.39 227.035 1242.78 221.941 1252.17 219.245C1261.56 216.548 1270.94 213.852 1280.33 213.253C1289.72 212.654 1299.11 217.248 1308.5 215.65C1317.89 214.052 1327.28 208.359 1336.67 203.665C1346.06 198.972 1355.44 192.181 1364.83 187.487C1374.22 182.793 1383.61 177.8 1393 175.503C1402.39 173.206 1411.78 176.102 1421.17 173.705C1430.56 171.308 1439.94 164.417 1449.33 161.122C1458.72 157.826 1468.11 156.028 1477.5 153.931C1486.89 151.834 1496.28 151.434 1505.67 148.538C1515.06 145.642 1524.44 140.149 1533.83 136.554C1543.22 132.959 1552.61 129.463 1562 126.967C1571.39 124.47 1580.78 122.672 1590.17 121.574C1599.56 120.475 1608.94 122.073 1618.33 120.375C1627.72 118.678 1637.11 115.182 1646.5 111.387C1655.89 107.592 1665.28 100.901 1674.67 97.6053C1684.06 94.3096 1693.44 94.6092 1702.83 91.6132C1712.22 88.6171 1721.61 82.0258 1731 79.629C1740.39 77.2322 1749.78 77.8314 1759.17 77.2322C1768.56 76.6329 1777.94 76.1336 1787.33 76.0337C1796.72 75.9339 1806.11 76.0337 1815.5 76.6329C1824.89 77.2322 1834.28 79.0298 1843.67 79.629C1853.06 80.2282 1862.44 80.0285 1871.83 80.2282C1881.22 80.4279 1895.31 80.7276 1900 80.8274" stroke="#37A936" stroke-width="6"/>
  <path d="M210 467H1900" stroke="black" stroke-opacity="0.25" stroke-width="3"/>
  <path d="M210 57V477" stroke="black" stroke-opacity="0.25" stroke-width="3"/>
  <path d="M607.101 486.347V515.438H603.578V490.04H603.408L596.305 494.756V491.176L603.578 486.347H607.101ZM618.479 486.347V488.903C618.479 489.68 618.337 490.509 618.053 491.389C617.778 492.26 617.371 493.108 616.831 493.932C616.301 494.746 615.657 495.456 614.899 496.062L613.081 494.585C613.678 493.733 614.194 492.848 614.629 491.929C615.074 491.001 615.297 490.011 615.297 488.96V486.347H618.479ZM630.503 515.835C628.363 515.835 626.54 515.253 625.034 514.088C623.528 512.914 622.378 511.214 621.582 508.989C620.787 506.754 620.389 504.055 620.389 500.892C620.389 497.748 620.787 495.063 621.582 492.838C622.387 490.603 623.543 488.899 625.048 487.724C626.564 486.541 628.382 485.949 630.503 485.949C632.624 485.949 634.438 486.541 635.943 487.724C637.458 488.899 638.614 490.603 639.409 492.838C640.214 495.063 640.617 497.748 640.617 500.892C640.617 504.055 640.219 506.754 639.423 508.989C638.628 511.214 637.477 512.914 635.972 514.088C634.466 515.253 632.643 515.835 630.503 515.835ZM630.503 512.71C632.624 512.71 634.272 511.687 635.446 509.642C636.62 507.597 637.207 504.68 637.207 500.892C637.207 498.373 636.938 496.228 636.398 494.457C635.868 492.687 635.1 491.337 634.097 490.409C633.102 489.481 631.904 489.017 630.503 489.017C628.401 489.017 626.758 490.054 625.574 492.128C624.39 494.192 623.798 497.114 623.798 500.892C623.798 503.411 624.064 505.551 624.594 507.312C625.124 509.074 625.886 510.414 626.881 511.332C627.885 512.251 629.092 512.71 630.503 512.71ZM655.503 515.835C653.363 515.835 651.54 515.253 650.034 514.088C648.528 512.914 647.378 511.214 646.582 508.989C645.787 506.754 645.389 504.055 645.389 500.892C645.389 497.748 645.787 495.063 646.582 492.838C647.387 490.603 648.543 488.899 650.048 487.724C651.564 486.541 653.382 485.949 655.503 485.949C657.624 485.949 659.438 486.541 660.943 487.724C662.458 488.899 663.614 490.603 664.409 492.838C665.214 495.063 665.617 497.748 665.617 500.892C665.617 504.055 665.219 506.754 664.423 508.989C663.628 511.214 662.477 512.914 660.972 514.088C659.466 515.253 657.643 515.835 655.503 515.835ZM655.503 512.71C657.624 512.71 659.272 511.687 660.446 509.642C661.62 507.597 662.207 504.68 662.207 500.892C662.207 498.373 661.938 496.228 661.398 494.457C660.868 492.687 660.1 491.337 659.097 490.409C658.102 489.481 656.904 489.017 655.503 489.017C653.401 489.017 651.758 490.054 650.574 492.128C649.39 494.192 648.798 497.114 648.798 500.892C648.798 503.411 649.064 505.551 649.594 507.312C650.124 509.074 650.886 510.414 651.881 511.332C652.885 512.251 654.092 512.71 655.503 512.71ZM680.503 515.835C678.363 515.835 676.54 515.253 675.034 514.088C673.528 512.914 672.378 511.214 671.582 508.989C670.787 506.754 670.389 504.055 670.389 500.892C670.389 497.748 670.787 495.063 671.582 492.838C672.387 490.603 673.543 488.899 675.048 487.724C676.564 486.541 678.382 485.949 680.503 485.949C682.624 485.949 684.438 486.541 685.943 487.724C687.458 488.899 688.614 490.603 689.409 492.838C690.214 495.063 690.617 497.748 690.617 500.892C690.617 504.055 690.219 506.754 689.423 508.989C688.628 511.214 687.477 512.914 685.972 514.088C684.466 515.253 682.643 515.835 680.503 515.835ZM680.503 512.71C682.624 512.71 684.272 511.687 685.446 509.642C686.62 507.597 687.207 504.68 687.207 500.892C687.207 498.373 686.938 496.228 686.398 494.457C685.868 492.687 685.1 491.337 684.097 490.409C683.102 489.481 681.904 489.017 680.503 489.017C678.401 489.017 676.758 490.054 675.574 492.128C674.39 494.192 673.798 497.114 673.798 500.892C673.798 503.411 674.064 505.551 674.594 507.312C675.124 509.074 675.886 510.414 676.881 511.332C677.885 512.251 679.092 512.71 680.503 512.71ZM696.071 515.438V493.619H699.31V497.028H699.594C700.048 495.864 700.782 494.959 701.796 494.315C702.809 493.662 704.026 493.335 705.446 493.335C706.886 493.335 708.083 493.662 709.04 494.315C710.006 494.959 710.759 495.864 711.298 497.028H711.526C712.084 495.902 712.922 495.007 714.04 494.344C715.157 493.671 716.497 493.335 718.06 493.335C720.011 493.335 721.606 493.946 722.847 495.168C724.087 496.38 724.707 498.269 724.707 500.835V515.438H721.355V500.835C721.355 499.225 720.915 498.075 720.034 497.384C719.153 496.692 718.117 496.347 716.923 496.347C715.389 496.347 714.201 496.811 713.358 497.739C712.515 498.657 712.094 499.822 712.094 501.233V515.438H708.685V500.494C708.685 499.254 708.282 498.255 707.477 497.497C706.672 496.73 705.636 496.347 704.367 496.347C703.495 496.347 702.681 496.579 701.923 497.043C701.175 497.507 700.569 498.151 700.105 498.974C699.651 499.789 699.423 500.731 699.423 501.801V515.438H696.071Z" fill="black"/>
  <path d="M1045.38 515.438V512.881L1054.98 502.369C1056.11 501.138 1057.03 500.068 1057.76 499.159C1058.49 498.241 1059.03 497.379 1059.38 496.574C1059.74 495.759 1059.92 494.907 1059.92 494.017C1059.92 492.994 1059.68 492.109 1059.18 491.361C1058.7 490.613 1058.04 490.035 1057.19 489.628C1056.35 489.221 1055.41 489.017 1054.35 489.017C1053.24 489.017 1052.26 489.249 1051.43 489.713C1050.6 490.168 1049.96 490.807 1049.51 491.631C1049.07 492.455 1048.84 493.42 1048.84 494.528H1045.49C1045.49 492.824 1045.88 491.328 1046.67 490.04C1047.46 488.752 1048.53 487.748 1049.88 487.028C1051.24 486.309 1052.77 485.949 1054.47 485.949C1056.17 485.949 1057.68 486.309 1059 487.028C1060.32 487.748 1061.35 488.719 1062.1 489.94C1062.84 491.162 1063.22 492.521 1063.22 494.017C1063.22 495.087 1063.02 496.134 1062.64 497.156C1062.26 498.17 1061.59 499.301 1060.65 500.551C1059.71 501.792 1058.41 503.307 1056.74 505.097L1050.21 512.085V512.312H1063.73V515.438H1045.38ZM1072.61 486.347V488.903C1072.61 489.68 1072.46 490.509 1072.18 491.389C1071.91 492.26 1071.5 493.108 1070.96 493.932C1070.43 494.746 1069.78 495.456 1069.03 496.062L1067.21 494.585C1067.81 493.733 1068.32 492.848 1068.76 491.929C1069.2 491.001 1069.42 490.011 1069.42 488.96V486.347H1072.61ZM1084.63 515.835C1082.49 515.835 1080.67 515.253 1079.16 514.088C1077.66 512.914 1076.51 511.214 1075.71 508.989C1074.91 506.754 1074.52 504.055 1074.52 500.892C1074.52 497.748 1074.91 495.063 1075.71 492.838C1076.52 490.603 1077.67 488.899 1079.18 487.724C1080.69 486.541 1082.51 485.949 1084.63 485.949C1086.75 485.949 1088.57 486.541 1090.07 487.724C1091.59 488.899 1092.74 490.603 1093.54 492.838C1094.34 495.063 1094.74 497.748 1094.74 500.892C1094.74 504.055 1094.35 506.754 1093.55 508.989C1092.76 511.214 1091.61 512.914 1090.1 514.088C1088.59 515.253 1086.77 515.835 1084.63 515.835ZM1084.63 512.71C1086.75 512.71 1088.4 511.687 1089.57 509.642C1090.75 507.597 1091.34 504.68 1091.34 500.892C1091.34 498.373 1091.07 496.228 1090.53 494.457C1090 492.687 1089.23 491.337 1088.22 490.409C1087.23 489.481 1086.03 489.017 1084.63 489.017C1082.53 489.017 1080.89 490.054 1079.7 492.128C1078.52 494.192 1077.93 497.114 1077.93 500.892C1077.93 503.411 1078.19 505.551 1078.72 507.312C1079.25 509.074 1080.01 510.414 1081.01 511.332C1082.01 512.251 1083.22 512.71 1084.63 512.71ZM1109.63 515.835C1107.49 515.835 1105.67 515.253 1104.16 514.088C1102.66 512.914 1101.51 511.214 1100.71 508.989C1099.91 506.754 1099.52 504.055 1099.52 500.892C1099.52 497.748 1099.91 495.063 1100.71 492.838C1101.52 490.603 1102.67 488.899 1104.18 487.724C1105.69 486.541 1107.51 485.949 1109.63 485.949C1111.75 485.949 1113.57 486.541 1115.07 487.724C1116.59 488.899 1117.74 490.603 1118.54 492.838C1119.34 495.063 1119.74 497.748 1119.74 500.892C1119.74 504.055 1119.35 506.754 1118.55 508.989C1117.76 511.214 1116.61 512.914 1115.1 514.088C1113.59 515.253 1111.77 515.835 1109.63 515.835ZM1109.63 512.71C1111.75 512.71 1113.4 511.687 1114.57 509.642C1115.75 507.597 1116.34 504.68 1116.34 500.892C1116.34 498.373 1116.07 496.228 1115.53 494.457C1115 492.687 1114.23 491.337 1113.22 490.409C1112.23 489.481 1111.03 489.017 1109.63 489.017C1107.53 489.017 1105.89 490.054 1104.7 492.128C1103.52 494.192 1102.93 497.114 1102.93 500.892C1102.93 503.411 1103.19 505.551 1103.72 507.312C1104.25 509.074 1105.01 510.414 1106.01 511.332C1107.01 512.251 1108.22 512.71 1109.63 512.71ZM1134.63 515.835C1132.49 515.835 1130.67 515.253 1129.16 514.088C1127.66 512.914 1126.51 511.214 1125.71 508.989C1124.91 506.754 1124.52 504.055 1124.52 500.892C1124.52 497.748 1124.91 495.063 1125.71 492.838C1126.52 490.603 1127.67 488.899 1129.18 487.724C1130.69 486.541 1132.51 485.949 1134.63 485.949C1136.75 485.949 1138.57 486.541 1140.07 487.724C1141.59 488.899 1142.74 490.603 1143.54 492.838C1144.34 495.063 1144.74 497.748 1144.74 500.892C1144.74 504.055 1144.35 506.754 1143.55 508.989C1142.76 511.214 1141.61 512.914 1140.1 514.088C1138.59 515.253 1136.77 515.835 1134.63 515.835ZM1134.63 512.71C1136.75 512.71 1138.4 511.687 1139.57 509.642C1140.75 507.597 1141.34 504.68 1141.34 500.892C1141.34 498.373 1141.07 496.228 1140.53 494.457C1140 492.687 1139.23 491.337 1138.22 490.409C1137.23 489.481 1136.03 489.017 1134.63 489.017C1132.53 489.017 1130.89 490.054 1129.7 492.128C1128.52 494.192 1127.93 497.114 1127.93 500.892C1127.93 503.411 1128.19 505.551 1128.72 507.312C1129.25 509.074 1130.01 510.414 1131.01 511.332C1132.01 512.251 1133.22 512.71 1134.63 512.71ZM1150.2 515.438V493.619H1153.44V497.028H1153.72C1154.18 495.864 1154.91 494.959 1155.92 494.315C1156.94 493.662 1158.15 493.335 1159.57 493.335C1161.01 493.335 1162.21 493.662 1163.17 494.315C1164.13 494.959 1164.89 495.864 1165.43 497.028H1165.65C1166.21 495.902 1167.05 495.007 1168.17 494.344C1169.29 493.671 1170.63 493.335 1172.19 493.335C1174.14 493.335 1175.73 493.946 1176.97 495.168C1178.22 496.38 1178.84 498.269 1178.84 500.835V515.438H1175.48V500.835C1175.48 499.225 1175.04 498.075 1174.16 497.384C1173.28 496.692 1172.24 496.347 1171.05 496.347C1169.52 496.347 1168.33 496.811 1167.49 497.739C1166.64 498.657 1166.22 499.822 1166.22 501.233V515.438H1162.81V500.494C1162.81 499.254 1162.41 498.255 1161.61 497.497C1160.8 496.73 1159.76 496.347 1158.49 496.347C1157.62 496.347 1156.81 496.579 1156.05 497.043C1155.3 497.507 1154.7 498.151 1154.23 498.974C1153.78 499.789 1153.55 500.731 1153.55 501.801V515.438H1150.2Z" fill="black"/>
  <path d="M1506.9 515.835C1505.02 515.835 1503.35 515.513 1501.88 514.869C1500.42 514.225 1499.26 513.33 1498.4 512.185C1497.55 511.029 1497.09 509.689 1497.01 508.165H1500.59C1500.67 509.102 1500.99 509.912 1501.56 510.594C1502.12 511.266 1502.87 511.787 1503.79 512.156C1504.7 512.526 1505.72 512.71 1506.84 512.71C1508.09 512.71 1509.2 512.492 1510.16 512.057C1511.13 511.621 1511.89 511.015 1512.44 510.239C1512.99 509.462 1513.26 508.562 1513.26 507.54C1513.26 506.47 1513 505.527 1512.46 504.713C1511.93 503.889 1511.16 503.245 1510.14 502.781C1509.11 502.317 1507.86 502.085 1506.39 502.085H1504.06V498.96H1506.39C1507.54 498.96 1508.55 498.752 1509.42 498.335C1510.31 497.919 1510.99 497.331 1511.48 496.574C1511.99 495.816 1512.24 494.926 1512.24 493.903C1512.24 492.919 1512.02 492.062 1511.58 491.332C1511.15 490.603 1510.53 490.035 1509.74 489.628C1508.95 489.221 1508.02 489.017 1506.95 489.017C1505.95 489.017 1505 489.202 1504.11 489.571C1503.23 489.931 1502.51 490.456 1501.95 491.148C1501.39 491.83 1501.09 492.653 1501.04 493.619H1497.64C1497.69 492.095 1498.15 490.759 1499.01 489.614C1499.87 488.458 1501 487.559 1502.39 486.915C1503.8 486.271 1505.33 485.949 1507.01 485.949C1508.81 485.949 1510.35 486.313 1511.64 487.043C1512.93 487.762 1513.92 488.714 1514.61 489.898C1515.3 491.081 1515.65 492.36 1515.65 493.733C1515.65 495.371 1515.22 496.768 1514.35 497.923C1513.5 499.079 1512.34 499.879 1510.87 500.324V500.551C1512.71 500.854 1514.15 501.635 1515.18 502.895C1516.21 504.145 1516.73 505.693 1516.73 507.54C1516.73 509.121 1516.3 510.542 1515.43 511.801C1514.58 513.051 1513.42 514.036 1511.94 514.756C1510.46 515.475 1508.78 515.835 1506.9 515.835ZM1525.55 486.347V488.903C1525.55 489.68 1525.41 490.509 1525.12 491.389C1524.85 492.26 1524.44 493.108 1523.9 493.932C1523.37 494.746 1522.73 495.456 1521.97 496.062L1520.15 494.585C1520.75 493.733 1521.26 492.848 1521.7 491.929C1522.14 491.001 1522.37 490.011 1522.37 488.96V486.347H1525.55ZM1537.57 515.835C1535.43 515.835 1533.61 515.253 1532.1 514.088C1530.6 512.914 1529.45 511.214 1528.65 508.989C1527.86 506.754 1527.46 504.055 1527.46 500.892C1527.46 497.748 1527.86 495.063 1528.65 492.838C1529.46 490.603 1530.61 488.899 1532.12 487.724C1533.63 486.541 1535.45 485.949 1537.57 485.949C1539.69 485.949 1541.51 486.541 1543.01 487.724C1544.53 488.899 1545.68 490.603 1546.48 492.838C1547.28 495.063 1547.68 497.748 1547.68 500.892C1547.68 504.055 1547.29 506.754 1546.49 508.989C1545.7 511.214 1544.55 512.914 1543.04 514.088C1541.53 515.253 1539.71 515.835 1537.57 515.835ZM1537.57 512.71C1539.69 512.71 1541.34 511.687 1542.51 509.642C1543.69 507.597 1544.28 504.68 1544.28 500.892C1544.28 498.373 1544.01 496.228 1543.47 494.457C1542.94 492.687 1542.17 491.337 1541.17 490.409C1540.17 489.481 1538.97 489.017 1537.57 489.017C1535.47 489.017 1533.83 490.054 1532.64 492.128C1531.46 494.192 1530.87 497.114 1530.87 500.892C1530.87 503.411 1531.13 505.551 1531.66 507.312C1532.19 509.074 1532.95 510.414 1533.95 511.332C1534.95 512.251 1536.16 512.71 1537.57 512.71ZM1562.57 515.835C1560.43 515.835 1558.61 515.253 1557.1 514.088C1555.6 512.914 1554.45 511.214 1553.65 508.989C1552.86 506.754 1552.46 504.055 1552.46 500.892C1552.46 497.748 1552.86 495.063 1553.65 492.838C1554.46 490.603 1555.61 488.899 1557.12 487.724C1558.63 486.541 1560.45 485.949 1562.57 485.949C1564.69 485.949 1566.51 486.541 1568.01 487.724C1569.53 488.899 1570.68 490.603 1571.48 492.838C1572.28 495.063 1572.68 497.748 1572.68 500.892C1572.68 504.055 1572.29 506.754 1571.49 508.989C1570.7 511.214 1569.55 512.914 1568.04 514.088C1566.53 515.253 1564.71 515.835 1562.57 515.835ZM1562.57 512.71C1564.69 512.71 1566.34 511.687 1567.51 509.642C1568.69 507.597 1569.28 504.68 1569.28 500.892C1569.28 498.373 1569.01 496.228 1568.47 494.457C1567.94 492.687 1567.17 491.337 1566.17 490.409C1565.17 489.481 1563.97 489.017 1562.57 489.017C1560.47 489.017 1558.83 490.054 1557.64 492.128C1556.46 494.192 1555.87 497.114 1555.87 500.892C1555.87 503.411 1556.13 505.551 1556.66 507.312C1557.19 509.074 1557.95 510.414 1558.95 511.332C1559.95 512.251 1561.16 512.71 1562.57 512.71ZM1587.57 515.835C1585.43 515.835 1583.61 515.253 1582.1 514.088C1580.6 512.914 1579.45 511.214 1578.65 508.989C1577.86 506.754 1577.46 504.055 1577.46 500.892C1577.46 497.748 1577.86 495.063 1578.65 492.838C1579.46 490.603 1580.61 488.899 1582.12 487.724C1583.63 486.541 1585.45 485.949 1587.57 485.949C1589.69 485.949 1591.51 486.541 1593.01 487.724C1594.53 488.899 1595.68 490.603 1596.48 492.838C1597.28 495.063 1597.68 497.748 1597.68 500.892C1597.68 504.055 1597.29 506.754 1596.49 508.989C1595.7 511.214 1594.55 512.914 1593.04 514.088C1591.53 515.253 1589.71 515.835 1587.57 515.835ZM1587.57 512.71C1589.69 512.71 1591.34 511.687 1592.51 509.642C1593.69 507.597 1594.28 504.68 1594.28 500.892C1594.28 498.373 1594.01 496.228 1593.47 494.457C1592.94 492.687 1592.17 491.337 1591.17 490.409C1590.17 489.481 1588.97 489.017 1587.57 489.017C1585.47 489.017 1583.83 490.054 1582.64 492.128C1581.46 494.192 1580.87 497.114 1580.87 500.892C1580.87 503.411 1581.13 505.551 1581.66 507.312C1582.19 509.074 1582.95 510.414 1583.95 511.332C1584.95 512.251 1586.16 512.71 1587.57 512.71ZM1603.14 515.438V493.619H1606.38V497.028H1606.66C1607.12 495.864 1607.85 494.959 1608.86 494.315C1609.88 493.662 1611.09 493.335 1612.51 493.335C1613.95 493.335 1615.15 493.662 1616.11 494.315C1617.07 494.959 1617.83 495.864 1618.37 497.028H1618.59C1619.15 495.902 1619.99 495.007 1621.11 494.344C1622.23 493.671 1623.57 493.335 1625.13 493.335C1627.08 493.335 1628.67 493.946 1629.92 495.168C1631.16 496.38 1631.78 498.269 1631.78 500.835V515.438H1628.42V500.835C1628.42 499.225 1627.98 498.075 1627.1 497.384C1626.22 496.692 1625.18 496.347 1623.99 496.347C1622.46 496.347 1621.27 496.811 1620.43 497.739C1619.58 498.657 1619.16 499.822 1619.16 501.233V515.438H1615.75V500.494C1615.75 499.254 1615.35 498.255 1614.55 497.497C1613.74 496.73 1612.7 496.347 1611.43 496.347C1610.56 496.347 1609.75 496.579 1608.99 497.043C1608.24 497.507 1607.64 498.151 1607.17 498.974C1606.72 499.789 1606.49 500.731 1606.49 501.801V515.438H1603.14Z" fill="black"/>
  <path d="M86.5462 383.699C87.7393 383.708 88.9325 383.936 90.1257 384.381C91.3189 384.826 92.4079 385.564 93.3928 386.597C94.3776 387.619 95.1683 389.016 95.7649 390.787C96.3615 392.558 96.6598 394.778 96.6598 397.449C96.6598 400.034 96.4136 402.33 95.9212 404.338C95.4382 406.336 94.7375 408.022 93.8189 409.395C92.9098 410.768 91.8018 411.81 90.495 412.52C89.1977 413.23 87.7299 413.585 86.0916 413.585C84.4628 413.585 83.0092 413.263 81.7308 412.619C80.4619 411.966 79.4202 411.062 78.6058 409.906C77.8009 408.741 77.2848 407.392 77.0575 405.858H80.5234C80.8359 407.193 81.4562 408.296 82.3842 409.168C83.3217 410.029 84.5575 410.46 86.0916 410.46C88.3359 410.46 90.1068 409.48 91.4041 407.52C92.7109 405.56 93.3643 402.79 93.3643 399.21H93.1371C92.6068 400.006 91.977 400.692 91.2479 401.27C90.5187 401.848 89.709 402.293 88.8189 402.605C87.9287 402.918 86.9818 403.074 85.978 403.074C84.3113 403.074 82.782 402.662 81.3899 401.838C80.0073 401.005 78.8994 399.864 78.0661 398.415C77.2422 396.956 76.8303 395.29 76.8303 393.415C76.8303 391.634 77.228 390.006 78.0234 388.528C78.8284 387.042 79.9553 385.858 81.4041 384.977C82.8625 384.097 84.5765 383.67 86.5462 383.699ZM86.5462 386.824C85.353 386.824 84.2782 387.122 83.3217 387.719C82.3748 388.306 81.6219 389.101 81.0632 390.105C80.514 391.099 80.2393 392.203 80.2393 393.415C80.2393 394.627 80.5045 395.73 81.0348 396.724C81.5746 397.709 82.3085 398.495 83.2365 399.082C84.174 399.66 85.2393 399.949 86.4325 399.949C87.3322 399.949 88.1702 399.774 88.9467 399.423C89.7232 399.063 90.4003 398.576 90.978 397.96C91.5651 397.335 92.0244 396.63 92.3558 395.844C92.6873 395.048 92.853 394.22 92.853 393.358C92.853 392.222 92.5784 391.156 92.0291 390.162C91.4893 389.168 90.7412 388.363 89.7848 387.747C88.8378 387.132 87.7583 386.824 86.5462 386.824ZM111.734 413.585C109.594 413.585 107.771 413.003 106.266 411.838C104.76 410.664 103.609 408.964 102.814 406.739C102.018 404.504 101.621 401.805 101.621 398.642C101.621 395.498 102.018 392.813 102.814 390.588C103.619 388.353 104.774 386.649 106.28 385.474C107.795 384.291 109.613 383.699 111.734 383.699C113.856 383.699 115.669 384.291 117.175 385.474C118.69 386.649 119.845 388.353 120.641 390.588C121.446 392.813 121.848 395.498 121.848 398.642C121.848 401.805 121.45 404.504 120.655 406.739C119.859 408.964 118.709 410.664 117.203 411.838C115.697 413.003 113.875 413.585 111.734 413.585ZM111.734 410.46C113.856 410.46 115.503 409.437 116.678 407.392C117.852 405.347 118.439 402.43 118.439 398.642C118.439 396.123 118.169 393.978 117.629 392.207C117.099 390.437 116.332 389.087 115.328 388.159C114.334 387.231 113.136 386.767 111.734 386.767C109.632 386.767 107.989 387.804 106.805 389.878C105.622 391.942 105.03 394.864 105.03 398.642C105.03 401.161 105.295 403.301 105.825 405.062C106.356 406.824 107.118 408.164 108.112 409.082C109.116 410.001 110.323 410.46 111.734 410.46ZM136.734 413.585C134.594 413.585 132.771 413.003 131.266 411.838C129.76 410.664 128.609 408.964 127.814 406.739C127.018 404.504 126.621 401.805 126.621 398.642C126.621 395.498 127.018 392.813 127.814 390.588C128.619 388.353 129.774 386.649 131.28 385.474C132.795 384.291 134.613 383.699 136.734 383.699C138.856 383.699 140.669 384.291 142.175 385.474C143.69 386.649 144.845 388.353 145.641 390.588C146.446 392.813 146.848 395.498 146.848 398.642C146.848 401.805 146.45 404.504 145.655 406.739C144.859 408.964 143.709 410.664 142.203 411.838C140.697 413.003 138.875 413.585 136.734 413.585ZM136.734 410.46C138.856 410.46 140.503 409.437 141.678 407.392C142.852 405.347 143.439 402.43 143.439 398.642C143.439 396.123 143.169 393.978 142.629 392.207C142.099 390.437 141.332 389.087 140.328 388.159C139.334 387.231 138.136 386.767 136.734 386.767C134.632 386.767 132.989 387.804 131.805 389.878C130.622 391.942 130.03 394.864 130.03 398.642C130.03 401.161 130.295 403.301 130.825 405.062C131.356 406.824 132.118 408.164 133.112 409.082C134.116 410.001 135.323 410.46 136.734 410.46ZM152.303 413.188V391.369H155.541V394.778H155.825C156.28 393.614 157.014 392.709 158.027 392.065C159.04 391.412 160.257 391.085 161.678 391.085C163.117 391.085 164.315 391.412 165.271 392.065C166.237 392.709 166.99 393.614 167.53 394.778H167.757C168.316 393.652 169.154 392.757 170.271 392.094C171.389 391.421 172.729 391.085 174.291 391.085C176.242 391.085 177.838 391.696 179.078 392.918C180.319 394.13 180.939 396.019 180.939 398.585V413.188H177.587V398.585C177.587 396.975 177.146 395.825 176.266 395.134C175.385 394.442 174.348 394.097 173.155 394.097C171.621 394.097 170.432 394.561 169.589 395.489C168.747 396.407 168.325 397.572 168.325 398.983V413.188H164.916V398.244C164.916 397.004 164.514 396.005 163.709 395.247C162.904 394.48 161.867 394.097 160.598 394.097C159.727 394.097 158.912 394.329 158.155 394.793C157.407 395.257 156.801 395.901 156.337 396.724C155.882 397.539 155.655 398.481 155.655 399.551V413.188H152.303Z" fill="black"/>
  <path d="M67.9027 271.597V300.688H64.38V275.29H64.2095L57.1072 280.006V276.426L64.38 271.597H67.9027ZM79.2805 271.597V274.153C79.2805 274.93 79.1385 275.759 78.8544 276.639C78.5798 277.51 78.1726 278.358 77.6328 279.182C77.1025 279.996 76.4586 280.706 75.701 281.312L73.8828 279.835C74.4794 278.983 74.9955 278.098 75.4311 277.179C75.8762 276.251 76.0987 275.261 76.0987 274.21V271.597H79.2805ZM93.8793 271.597V300.688H90.3565V275.29H90.1861L83.0838 280.006V276.426L90.3565 271.597H93.8793ZM111.734 301.085C109.594 301.085 107.771 300.503 106.266 299.338C104.76 298.164 103.609 296.464 102.814 294.239C102.018 292.004 101.621 289.305 101.621 286.142C101.621 282.998 102.018 280.313 102.814 278.088C103.619 275.853 104.774 274.149 106.28 272.974C107.795 271.791 109.613 271.199 111.734 271.199C113.856 271.199 115.669 271.791 117.175 272.974C118.69 274.149 119.845 275.853 120.641 278.088C121.446 280.313 121.848 282.998 121.848 286.142C121.848 289.305 121.45 292.004 120.655 294.239C119.859 296.464 118.709 298.164 117.203 299.338C115.697 300.503 113.875 301.085 111.734 301.085ZM111.734 297.96C113.856 297.96 115.503 296.937 116.678 294.892C117.852 292.847 118.439 289.93 118.439 286.142C118.439 283.623 118.169 281.478 117.629 279.707C117.099 277.937 116.332 276.587 115.328 275.659C114.334 274.731 113.136 274.267 111.734 274.267C109.632 274.267 107.989 275.304 106.805 277.378C105.622 279.442 105.03 282.364 105.03 286.142C105.03 288.661 105.295 290.801 105.825 292.562C106.356 294.324 107.118 295.664 108.112 296.582C109.116 297.501 110.323 297.96 111.734 297.96ZM136.734 301.085C134.594 301.085 132.771 300.503 131.266 299.338C129.76 298.164 128.609 296.464 127.814 294.239C127.018 292.004 126.621 289.305 126.621 286.142C126.621 282.998 127.018 280.313 127.814 278.088C128.619 275.853 129.774 274.149 131.28 272.974C132.795 271.791 134.613 271.199 136.734 271.199C138.856 271.199 140.669 271.791 142.175 272.974C143.69 274.149 144.845 275.853 145.641 278.088C146.446 280.313 146.848 282.998 146.848 286.142C146.848 289.305 146.45 292.004 145.655 294.239C144.859 296.464 143.709 298.164 142.203 299.338C140.697 300.503 138.875 301.085 136.734 301.085ZM136.734 297.96C138.856 297.96 140.503 296.937 141.678 294.892C142.852 292.847 143.439 289.93 143.439 286.142C143.439 283.623 143.169 281.478 142.629 279.707C142.099 277.937 141.332 276.587 140.328 275.659C139.334 274.731 138.136 274.267 136.734 274.267C134.632 274.267 132.989 275.304 131.805 277.378C130.622 279.442 130.03 282.364 130.03 286.142C130.03 288.661 130.295 290.801 130.825 292.562C131.356 294.324 132.118 295.664 133.112 296.582C134.116 297.501 135.323 297.96 136.734 297.96ZM152.303 300.688V278.869H155.541V282.278H155.825C156.28 281.114 157.014 280.209 158.027 279.565C159.04 278.912 160.257 278.585 161.678 278.585C163.117 278.585 164.315 278.912 165.271 279.565C166.237 280.209 166.99 281.114 167.53 282.278H167.757C168.316 281.152 169.154 280.257 170.271 279.594C171.389 278.921 172.729 278.585 174.291 278.585C176.242 278.585 177.838 279.196 179.078 280.418C180.319 281.63 180.939 283.519 180.939 286.085V300.688H177.587V286.085C177.587 284.475 177.146 283.325 176.266 282.634C175.385 281.942 174.348 281.597 173.155 281.597C171.621 281.597 170.432 282.061 169.589 282.989C168.747 283.907 168.325 285.072 168.325 286.483V300.688H164.916V285.744C164.916 284.504 164.514 283.505 163.709 282.747C162.904 281.98 161.867 281.597 160.598 281.597C159.727 281.597 158.912 281.829 158.155 282.293C157.407 282.757 156.801 283.401 156.337 284.224C155.882 285.039 155.655 285.981 155.655 287.051V300.688H152.303Z" fill="black"/>
  <path d="M61.0277 159.097V188.188H57.505V162.79H57.3345L50.2322 167.506V163.926L57.505 159.097H61.0277ZM72.4055 159.097V161.653C72.4055 162.43 72.2635 163.259 71.9794 164.139C71.7048 165.01 71.2976 165.858 70.7578 166.682C70.2275 167.496 69.5836 168.206 68.826 168.812L67.0078 167.335C67.6044 166.483 68.1205 165.598 68.5561 164.679C69.0012 163.751 69.2237 162.761 69.2237 161.71V159.097H72.4055ZM86.6065 188.585C84.7315 188.585 83.0601 188.263 81.5923 187.619C80.134 186.975 78.974 186.08 78.1122 184.935C77.2599 183.779 76.7959 182.439 76.7202 180.915H80.2997C80.3755 181.852 80.6974 182.662 81.2656 183.344C81.8338 184.016 82.5772 184.537 83.4957 184.906C84.4143 185.276 85.4323 185.46 86.5497 185.46C87.7997 185.46 88.9077 185.242 89.8736 184.807C90.8395 184.371 91.5971 183.765 92.1463 182.989C92.6955 182.212 92.9702 181.312 92.9702 180.29C92.9702 179.22 92.705 178.277 92.1747 177.463C91.6444 176.639 90.8679 175.995 89.8452 175.531C88.8224 175.067 87.5724 174.835 86.0952 174.835H83.7656V171.71H86.0952C87.2505 171.71 88.2637 171.502 89.1349 171.085C90.0156 170.669 90.7022 170.081 91.1946 169.324C91.6965 168.566 91.9474 167.676 91.9474 166.653C91.9474 165.669 91.7296 164.812 91.294 164.082C90.8584 163.353 90.2429 162.785 89.4474 162.378C88.6615 161.971 87.7334 161.767 86.6634 161.767C85.6596 161.767 84.7126 161.952 83.8224 162.321C82.9418 162.681 82.2221 163.206 81.6634 163.898C81.1046 164.58 80.8016 165.403 80.7543 166.369H77.3452C77.402 164.845 77.8613 163.509 78.723 162.364C79.5848 161.208 80.7116 160.309 82.1037 159.665C83.5052 159.021 85.044 158.699 86.7202 158.699C88.5194 158.699 90.063 159.063 91.3509 159.793C92.6387 160.512 93.6283 161.464 94.3196 162.648C95.0109 163.831 95.3565 165.11 95.3565 166.483C95.3565 168.121 94.9257 169.518 94.0639 170.673C93.2116 171.829 92.0516 172.629 90.5838 173.074V173.301C92.4209 173.604 93.8556 174.385 94.8878 175.645C95.92 176.895 96.4361 178.443 96.4361 180.29C96.4361 181.871 96.0052 183.292 95.1435 184.551C94.2912 185.801 93.1264 186.786 91.6491 187.506C90.1719 188.225 88.491 188.585 86.6065 188.585ZM111.734 188.585C109.594 188.585 107.771 188.003 106.266 186.838C104.76 185.664 103.609 183.964 102.814 181.739C102.018 179.504 101.621 176.805 101.621 173.642C101.621 170.498 102.018 167.813 102.814 165.588C103.619 163.353 104.774 161.649 106.28 160.474C107.795 159.291 109.613 158.699 111.734 158.699C113.856 158.699 115.669 159.291 117.175 160.474C118.69 161.649 119.845 163.353 120.641 165.588C121.446 167.813 121.848 170.498 121.848 173.642C121.848 176.805 121.45 179.504 120.655 181.739C119.859 183.964 118.709 185.664 117.203 186.838C115.697 188.003 113.875 188.585 111.734 188.585ZM111.734 185.46C113.856 185.46 115.503 184.437 116.678 182.392C117.852 180.347 118.439 177.43 118.439 173.642C118.439 171.123 118.169 168.978 117.629 167.207C117.099 165.437 116.332 164.087 115.328 163.159C114.334 162.231 113.136 161.767 111.734 161.767C109.632 161.767 107.989 162.804 106.805 164.878C105.622 166.942 105.03 169.864 105.03 173.642C105.03 176.161 105.295 178.301 105.825 180.062C106.356 181.824 107.118 183.164 108.112 184.082C109.116 185.001 110.323 185.46 111.734 185.46ZM136.734 188.585C134.594 188.585 132.771 188.003 131.266 186.838C129.76 185.664 128.609 183.964 127.814 181.739C127.018 179.504 126.621 176.805 126.621 173.642C126.621 170.498 127.018 167.813 127.814 165.588C128.619 163.353 129.774 161.649 131.28 160.474C132.795 159.291 134.613 158.699 136.734 158.699C138.856 158.699 140.669 159.291 142.175 160.474C143.69 161.649 144.845 163.353 145.641 165.588C146.446 167.813 146.848 170.498 146.848 173.642C146.848 176.805 146.45 179.504 145.655 181.739C144.859 183.964 143.709 185.664 142.203 186.838C140.697 188.003 138.875 188.585 136.734 188.585ZM136.734 185.46C138.856 185.46 140.503 184.437 141.678 182.392C142.852 180.347 143.439 177.43 143.439 173.642C143.439 171.123 143.169 168.978 142.629 167.207C142.099 165.437 141.332 164.087 140.328 163.159C139.334 162.231 138.136 161.767 136.734 161.767C134.632 161.767 132.989 162.804 131.805 164.878C130.622 166.942 130.03 169.864 130.03 173.642C130.03 176.161 130.295 178.301 130.825 180.062C131.356 181.824 132.118 183.164 133.112 184.082C134.116 185.001 135.323 185.46 136.734 185.46ZM152.303 188.188V166.369H155.541V169.778H155.825C156.28 168.614 157.014 167.709 158.027 167.065C159.04 166.412 160.257 166.085 161.678 166.085C163.117 166.085 164.315 166.412 165.271 167.065C166.237 167.709 166.99 168.614 167.53 169.778H167.757C168.316 168.652 169.154 167.757 170.271 167.094C171.389 166.421 172.729 166.085 174.291 166.085C176.242 166.085 177.838 166.696 179.078 167.918C180.319 169.13 180.939 171.019 180.939 173.585V188.188H177.587V173.585C177.587 171.975 177.146 170.825 176.266 170.134C175.385 169.442 174.348 169.097 173.155 169.097C171.621 169.097 170.432 169.561 169.589 170.489C168.747 171.407 168.325 172.572 168.325 173.983V188.188H164.916V173.244C164.916 172.004 164.514 171.005 163.709 170.247C162.904 169.48 161.867 169.097 160.598 169.097C159.727 169.097 158.912 169.329 158.155 169.793C157.407 170.257 156.801 170.901 156.337 171.724C155.882 172.539 155.655 173.481 155.655 174.551V188.188H152.303Z" fill="black"/>
  <path d="M62.1605 46.5966V75.6875H58.6378V50.2898H58.4673L51.3651 55.0057V51.4261L58.6378 46.5966H62.1605ZM73.5384 46.5966V49.1534C73.5384 49.9299 73.3963 50.7585 73.1122 51.6392C72.8376 52.5104 72.4304 53.358 71.8906 54.1818C71.3603 54.9962 70.7164 55.7064 69.9588 56.3125L68.1406 54.8352C68.7372 53.983 69.2533 53.0975 69.6889 52.179C70.134 51.2509 70.3565 50.2614 70.3565 49.2102V46.5966H73.5384ZM87.0007 76.0852C85.334 76.0852 83.8331 75.7538 82.4979 75.0909C81.1626 74.428 80.0926 73.5189 79.2876 72.3636C78.4827 71.2083 78.0424 69.892 77.9666 68.4148H81.3757C81.5083 69.7311 82.1049 70.8201 83.1655 71.6818C84.2356 72.5341 85.514 72.9602 87.0007 72.9602C88.1939 72.9602 89.2545 72.6809 90.1825 72.1222C91.12 71.5634 91.8539 70.7964 92.3842 69.821C92.924 68.8362 93.1939 67.7235 93.1939 66.483C93.1939 65.214 92.9145 64.0824 92.3558 63.0881C91.8066 62.0843 91.049 61.2936 90.0831 60.7159C89.1172 60.1383 88.014 59.8447 86.7734 59.8352C85.8833 59.8258 84.9695 59.9631 84.032 60.2472C83.0945 60.5218 82.3227 60.8769 81.7166 61.3125L78.4212 60.9148L80.1825 46.5966H95.2962V49.7216H83.1371L82.1143 58.3011H82.2848C82.8814 57.8277 83.6295 57.4347 84.5291 57.1222C85.4287 56.8097 86.3662 56.6534 87.3416 56.6534C89.1219 56.6534 90.7081 57.0795 92.1001 57.9318C93.5017 58.7746 94.6001 59.9299 95.3956 61.3977C96.2005 62.8655 96.603 64.5417 96.603 66.4261C96.603 68.2822 96.1863 69.9394 95.353 71.3977C94.5291 72.8466 93.3928 73.9924 91.9439 74.8352C90.495 75.6686 88.8473 76.0852 87.0007 76.0852ZM111.734 76.0852C109.594 76.0852 107.771 75.5028 106.266 74.3381C104.76 73.1638 103.609 71.464 102.814 69.2386C102.018 67.0038 101.621 64.3049 101.621 61.142C101.621 57.9981 102.018 55.3134 102.814 53.0881C103.619 50.8532 104.774 49.1487 106.28 47.9744C107.795 46.7907 109.613 46.1989 111.734 46.1989C113.856 46.1989 115.669 46.7907 117.175 47.9744C118.69 49.1487 119.845 50.8532 120.641 53.0881C121.446 55.3134 121.848 57.9981 121.848 61.142C121.848 64.3049 121.45 67.0038 120.655 69.2386C119.859 71.464 118.709 73.1638 117.203 74.3381C115.697 75.5028 113.875 76.0852 111.734 76.0852ZM111.734 72.9602C113.856 72.9602 115.503 71.9375 116.678 69.892C117.852 67.8466 118.439 64.9299 118.439 61.142C118.439 58.6231 118.169 56.4782 117.629 54.7074C117.099 52.9366 116.332 51.5871 115.328 50.6591C114.334 49.7311 113.136 49.267 111.734 49.267C109.632 49.267 107.989 50.304 106.805 52.3778C105.622 54.4422 105.03 57.3636 105.03 61.142C105.03 63.661 105.295 65.8011 105.825 67.5625C106.356 69.3239 107.118 70.6638 108.112 71.5824C109.116 72.5009 110.323 72.9602 111.734 72.9602ZM136.734 76.0852C134.594 76.0852 132.771 75.5028 131.266 74.3381C129.76 73.1638 128.609 71.464 127.814 69.2386C127.018 67.0038 126.621 64.3049 126.621 61.142C126.621 57.9981 127.018 55.3134 127.814 53.0881C128.619 50.8532 129.774 49.1487 131.28 47.9744C132.795 46.7907 134.613 46.1989 136.734 46.1989C138.856 46.1989 140.669 46.7907 142.175 47.9744C143.69 49.1487 144.845 50.8532 145.641 53.0881C146.446 55.3134 146.848 57.9981 146.848 61.142C146.848 64.3049 146.45 67.0038 145.655 69.2386C144.859 71.464 143.709 73.1638 142.203 74.3381C140.697 75.5028 138.875 76.0852 136.734 76.0852ZM136.734 72.9602C138.856 72.9602 140.503 71.9375 141.678 69.892C142.852 67.8466 143.439 64.9299 143.439 61.142C143.439 58.6231 143.169 56.4782 142.629 54.7074C142.099 52.9366 141.332 51.5871 140.328 50.6591C139.334 49.7311 138.136 49.267 136.734 49.267C134.632 49.267 132.989 50.304 131.805 52.3778C130.622 54.4422 130.03 57.3636 130.03 61.142C130.03 63.661 130.295 65.8011 130.825 67.5625C131.356 69.3239 132.118 70.6638 133.112 71.5824C134.116 72.5009 135.323 72.9602 136.734 72.9602ZM152.303 75.6875V53.8693H155.541V57.2784H155.825C156.28 56.1136 157.014 55.2093 158.027 54.5653C159.04 53.9119 160.257 53.5852 161.678 53.5852C163.117 53.5852 164.315 53.9119 165.271 54.5653C166.237 55.2093 166.99 56.1136 167.53 57.2784H167.757C168.316 56.1515 169.154 55.2566 170.271 54.5938C171.389 53.9214 172.729 53.5852 174.291 53.5852C176.242 53.5852 177.838 54.196 179.078 55.4176C180.319 56.6297 180.939 58.5189 180.939 61.0852V75.6875H177.587V61.0852C177.587 59.4754 177.146 58.3248 176.266 57.6335C175.385 56.9422 174.348 56.5966 173.155 56.5966C171.621 56.5966 170.432 57.0606 169.589 57.9886C168.747 58.9072 168.325 60.072 168.325 61.483V75.6875H164.916V60.7443C164.916 59.5038 164.514 58.5047 163.709 57.7472C162.904 56.9801 161.867 56.5966 160.598 56.5966C159.727 56.5966 158.912 56.8286 158.155 57.2926C157.407 57.7566 156.801 58.4006 156.337 59.2244C155.882 60.0388 155.655 60.9811 155.655 62.0511V75.6875H152.303Z" fill="black"/>
</svg>
