<svg xmlns="http://www.w3.org/2000/svg" version="1.1" xmlns:xlink="http://www.w3.org/1999/xlink" width="500" height="380"><svg id="SvgjsSvg1008" xmlns="http://www.w3.org/2000/svg" viewBox="0 0 500 380"><path d="M250,130.837c60.163-37.153,128.759-70.837,250-70.837V0c-114.958,0-190.95,28.87-250,61.349v69.488Z" fill="#3899d5"></path><path d="M250,318.651C190.95,351.13,114.957,380,0,380v-60c121.241,0,189.838-33.684,250-70.837v69.488Z" fill="#3899d5"></path><path d="M0,300c133.779,0,201.084-43.076,266.172-84.731,60.479-38.706,117.607-75.269,233.828-75.269v-60c-133.779,0-201.084,43.076-266.172,84.731C173.35,203.437,116.221,240,0,240v60Z" fill="#37a936"></path></svg><style>@media (prefers-color-scheme: light) { :root { filter: none; } }
@media (prefers-color-scheme: dark) { :root { filter: none; } }
</style></svg>