<svg width="677" height="201" viewBox="0 0 677 201" fill="none" xmlns="http://www.w3.org/2000/svg">
<g filter="url(#filter0_f_11_57)">
<circle cx="101.5" cy="100.5" r="90.5" fill="black"/>
</g>
<circle cx="101.5" cy="100.5" r="90.5" fill="#D9D9D9"/>
<path d="M228.321 100V27.2727H276.474V39.9503H243.697V57.2798H273.278V69.9574H243.697V100H228.321ZM286.533 100V45.4545H301.661V100H286.533ZM294.132 38.4233C291.883 38.4233 289.954 37.6776 288.344 36.1861C286.758 34.6709 285.965 32.8598 285.965 30.7528C285.965 28.6695 286.758 26.8821 288.344 25.3906C289.954 23.8755 291.883 23.1179 294.132 23.1179C296.382 23.1179 298.299 23.8755 299.885 25.3906C301.495 26.8821 302.3 28.6695 302.3 30.7528C302.3 32.8598 301.495 34.6709 299.885 36.1861C298.299 37.6776 296.382 38.4233 294.132 38.4233ZM313.779 100V45.4545H328.445V54.9716H329.013C330.008 51.5862 331.677 49.0294 334.021 47.3011C336.364 45.5492 339.063 44.6733 342.117 44.6733C342.875 44.6733 343.692 44.7206 344.567 44.8153C345.443 44.91 346.213 45.0402 346.876 45.206V58.6293C346.165 58.4162 345.183 58.2268 343.928 58.0611C342.674 57.8954 341.525 57.8125 340.484 57.8125C338.258 57.8125 336.27 58.2978 334.518 59.2685C332.79 60.2154 331.416 61.5412 330.398 63.2457C329.404 64.9503 328.907 66.9152 328.907 69.1406V100H313.779ZM377.016 101.065C371.405 101.065 366.576 99.929 362.527 97.6562C358.503 95.3598 355.401 92.1165 353.223 87.9261C351.045 83.7121 349.956 78.7287 349.956 72.9759C349.956 67.3651 351.045 62.4408 353.223 58.2031C355.401 53.9654 358.467 50.6629 362.421 48.2955C366.398 45.928 371.062 44.7443 376.412 44.7443C380.011 44.7443 383.361 45.3243 386.462 46.4844C389.587 47.6207 392.31 49.3371 394.63 51.6335C396.973 53.9299 398.796 56.8182 400.098 60.2983C401.4 63.7547 402.051 67.803 402.051 72.4432V76.598H355.993V67.223H387.811C387.811 65.045 387.338 63.1155 386.391 61.4347C385.444 59.7538 384.13 58.4399 382.449 57.4929C380.792 56.5223 378.863 56.0369 376.661 56.0369C374.364 56.0369 372.328 56.5696 370.553 57.6349C368.801 58.6766 367.428 60.0852 366.434 61.8608C365.439 63.6127 364.93 65.5658 364.907 67.7202V76.6335C364.907 79.3324 365.404 81.6643 366.398 83.6293C367.416 85.5942 368.848 87.1094 370.695 88.1747C372.542 89.2401 374.731 89.7727 377.265 89.7727C378.945 89.7727 380.484 89.536 381.881 89.0625C383.278 88.589 384.473 87.8788 385.468 86.9318C386.462 85.9848 387.22 84.8248 387.74 83.4517L401.732 84.375C401.022 87.7367 399.566 90.6723 397.364 93.1818C395.186 95.6676 392.369 97.6089 388.912 99.0057C385.48 100.379 381.514 101.065 377.016 101.065ZM432.582 39.9503V27.2727H492.312V39.9503H470.047V100H454.848V39.9503H432.582ZM496.201 100V45.4545H510.867V54.9716H511.435C512.43 51.5862 514.099 49.0294 516.442 47.3011C518.786 45.5492 521.485 44.6733 524.539 44.6733C525.297 44.6733 526.113 44.7206 526.989 44.8153C527.865 44.91 528.635 45.0402 529.298 45.206V58.6293C528.587 58.4162 527.605 58.2268 526.35 58.0611C525.095 57.8954 523.947 57.8125 522.906 57.8125C520.68 57.8125 518.692 58.2978 516.94 59.2685C515.211 60.2154 513.838 61.5412 512.82 63.2457C511.826 64.9503 511.329 66.9152 511.329 69.1406V100H496.201ZM551.11 101.03C547.63 101.03 544.529 100.426 541.806 99.2188C539.084 97.9877 536.93 96.1766 535.343 93.7855C533.781 91.3707 533 88.3641 533 84.7656C533 81.7353 533.556 79.1903 534.669 77.1307C535.781 75.071 537.297 73.4138 539.214 72.1591C541.132 70.9044 543.31 69.9574 545.748 69.3182C548.21 68.679 550.791 68.2292 553.49 67.9688C556.662 67.6373 559.219 67.3295 561.16 67.0455C563.101 66.7377 564.51 66.2879 565.386 65.696C566.262 65.1042 566.7 64.2282 566.7 63.0682V62.8551C566.7 60.6061 565.99 58.866 564.569 57.6349C563.172 56.4039 561.184 55.7884 558.603 55.7884C555.881 55.7884 553.715 56.392 552.105 57.5994C550.495 58.7831 549.43 60.2746 548.909 62.0739L534.917 60.9375C535.627 57.6231 537.024 54.7585 539.108 52.3438C541.191 49.9053 543.878 48.035 547.169 46.733C550.483 45.4072 554.318 44.7443 558.674 44.7443C561.705 44.7443 564.605 45.0994 567.375 45.8097C570.168 46.5199 572.642 47.6207 574.797 49.1122C576.975 50.6037 578.691 52.5213 579.946 54.8651C581.2 57.1851 581.828 59.9669 581.828 63.2102V100H567.481V92.4361H567.055C566.179 94.1406 565.007 95.6439 563.539 96.946C562.072 98.2244 560.308 99.2306 558.248 99.9645C556.189 100.675 553.809 101.03 551.11 101.03ZM555.443 90.5895C557.668 90.5895 559.633 90.1515 561.338 89.2756C563.042 88.3759 564.38 87.1686 565.35 85.6534C566.321 84.1383 566.806 82.4219 566.806 80.5043V74.7159C566.333 75.0237 565.682 75.3078 564.853 75.5682C564.048 75.8049 563.137 76.0298 562.119 76.2429C561.101 76.4323 560.083 76.6098 559.065 76.7756C558.047 76.9176 557.124 77.0478 556.295 77.1662C554.52 77.4266 552.969 77.8409 551.643 78.4091C550.317 78.9773 549.288 79.7467 548.554 80.7173C547.82 81.6643 547.453 82.848 547.453 84.2685C547.453 86.3281 548.199 87.9025 549.69 88.9915C551.205 90.0568 553.123 90.5895 555.443 90.5895ZM593.564 100V45.4545H608.692V100H593.564ZM601.164 38.4233C598.915 38.4233 596.985 37.6776 595.375 36.1861C593.789 34.6709 592.996 32.8598 592.996 30.7528C592.996 28.6695 593.789 26.8821 595.375 25.3906C596.985 23.8755 598.915 23.1179 601.164 23.1179C603.413 23.1179 605.33 23.8755 606.917 25.3906C608.526 26.8821 609.331 28.6695 609.331 30.7528C609.331 32.8598 608.526 34.6709 606.917 36.1861C605.33 37.6776 603.413 38.4233 601.164 38.4233ZM635.938 27.2727V100H620.81V27.2727H635.938ZM271.858 105.455V160H265.466L235.743 117.173H235.21V160H228.605V105.455H234.997L264.827 148.388H265.359V105.455H271.858ZM301.375 160.852C297.433 160.852 294.033 159.982 291.174 158.242C288.333 156.484 286.14 154.034 284.595 150.891C283.068 147.731 282.305 144.055 282.305 139.865C282.305 135.675 283.068 131.982 284.595 128.786C286.14 125.572 288.289 123.068 291.041 121.275C293.811 119.464 297.042 118.558 300.735 118.558C302.866 118.558 304.97 118.913 307.047 119.624C309.125 120.334 311.016 121.488 312.72 123.086C314.425 124.666 315.783 126.761 316.795 129.371C317.807 131.982 318.313 135.195 318.313 139.013V141.676H286.779V136.243H311.921C311.921 133.935 311.46 131.875 310.536 130.064C309.631 128.253 308.335 126.824 306.648 125.776C304.979 124.728 303.008 124.205 300.735 124.205C298.232 124.205 296.066 124.826 294.237 126.069C292.426 127.294 291.032 128.892 290.055 130.863C289.079 132.834 288.59 134.947 288.59 137.202V140.824C288.59 143.913 289.123 146.532 290.188 148.681C291.272 150.811 292.772 152.436 294.69 153.555C296.607 154.656 298.835 155.206 301.375 155.206C303.026 155.206 304.517 154.975 305.849 154.513C307.198 154.034 308.361 153.324 309.338 152.383C310.315 151.424 311.069 150.234 311.602 148.814L317.674 150.518C317.035 152.578 315.961 154.389 314.452 155.952C312.942 157.496 311.078 158.704 308.859 159.574C306.639 160.426 304.144 160.852 301.375 160.852ZM356.852 128.253L351.206 129.851C350.851 128.91 350.327 127.995 349.635 127.108C348.96 126.202 348.036 125.456 346.865 124.87C345.693 124.284 344.192 123.991 342.364 123.991C339.86 123.991 337.774 124.569 336.105 125.723C334.453 126.859 333.628 128.306 333.628 130.064C333.628 131.626 334.196 132.86 335.332 133.766C336.469 134.672 338.244 135.426 340.659 136.03L346.731 137.521C350.389 138.409 353.115 139.767 354.908 141.596C356.701 143.407 357.598 145.742 357.598 148.601C357.598 150.945 356.923 153.04 355.574 154.886C354.242 156.733 352.378 158.189 349.981 159.254C347.584 160.32 344.796 160.852 341.618 160.852C337.445 160.852 333.992 159.947 331.257 158.136C328.523 156.325 326.792 153.679 326.064 150.199L332.03 148.707C332.598 150.909 333.672 152.56 335.252 153.661C336.85 154.762 338.937 155.312 341.511 155.312C344.441 155.312 346.767 154.691 348.489 153.448C350.229 152.187 351.099 150.678 351.099 148.92C351.099 147.5 350.602 146.31 349.608 145.352C348.614 144.375 347.087 143.647 345.027 143.168L338.209 141.57C334.462 140.682 331.71 139.306 329.952 137.441C328.212 135.559 327.342 133.207 327.342 130.384C327.342 128.075 327.99 126.033 329.286 124.258C330.6 122.482 332.385 121.088 334.64 120.076C336.913 119.064 339.487 118.558 342.364 118.558C346.412 118.558 349.59 119.446 351.898 121.222C354.224 122.997 355.876 125.341 356.852 128.253ZM396.037 128.253L390.39 129.851C390.035 128.91 389.512 127.995 388.819 127.108C388.144 126.202 387.221 125.456 386.049 124.87C384.877 124.284 383.377 123.991 381.548 123.991C379.045 123.991 376.958 124.569 375.289 125.723C373.638 126.859 372.812 128.306 372.812 130.064C372.812 131.626 373.381 132.86 374.517 133.766C375.653 134.672 377.429 135.426 379.844 136.03L385.916 137.521C389.574 138.409 392.299 139.767 394.093 141.596C395.886 143.407 396.782 145.742 396.782 148.601C396.782 150.945 396.108 153.04 394.758 154.886C393.427 156.733 391.562 158.189 389.165 159.254C386.768 160.32 383.981 160.852 380.802 160.852C376.63 160.852 373.176 159.947 370.442 158.136C367.708 156.325 365.976 153.679 365.248 150.199L371.214 148.707C371.782 150.909 372.857 152.56 374.437 153.661C376.035 154.762 378.121 155.312 380.696 155.312C383.626 155.312 385.952 154.691 387.674 153.448C389.414 152.187 390.284 150.678 390.284 148.92C390.284 147.5 389.787 146.31 388.792 145.352C387.798 144.375 386.271 143.647 384.211 143.168L377.393 141.57C373.647 140.682 370.895 139.306 369.137 137.441C367.397 135.559 366.527 133.207 366.527 130.384C366.527 128.075 367.175 126.033 368.471 124.258C369.785 122.482 371.569 121.088 373.824 120.076C376.097 119.064 378.672 118.558 381.548 118.558C385.596 118.558 388.775 119.446 391.083 121.222C393.409 122.997 395.06 125.341 396.037 128.253ZM423.396 160.852C419.454 160.852 416.054 159.982 413.195 158.242C410.354 156.484 408.162 154.034 406.617 150.891C405.09 147.731 404.326 144.055 404.326 139.865C404.326 135.675 405.09 131.982 406.617 128.786C408.162 125.572 410.31 123.068 413.062 121.275C415.832 119.464 419.064 118.558 422.757 118.558C424.888 118.558 426.992 118.913 429.069 119.624C431.146 120.334 433.037 121.488 434.742 123.086C436.446 124.666 437.805 126.761 438.817 129.371C439.829 131.982 440.335 135.195 440.335 139.013V141.676H408.801V136.243H433.943C433.943 133.935 433.481 131.875 432.558 130.064C431.652 128.253 430.356 126.824 428.669 125.776C427 124.728 425.03 124.205 422.757 124.205C420.253 124.205 418.087 124.826 416.258 126.069C414.447 127.294 413.053 128.892 412.077 130.863C411.1 132.834 410.612 134.947 410.612 137.202V140.824C410.612 143.913 411.145 146.532 412.21 148.681C413.293 150.811 414.793 152.436 416.711 153.555C418.629 154.656 420.857 155.206 423.396 155.206C425.047 155.206 426.539 154.975 427.87 154.513C429.22 154.034 430.383 153.324 431.359 152.383C432.336 151.424 433.091 150.234 433.623 148.814L439.696 150.518C439.057 152.578 437.982 154.389 436.473 155.952C434.964 157.496 433.1 158.704 430.88 159.574C428.661 160.426 426.166 160.852 423.396 160.852ZM456.182 105.455V160H449.896V105.455H456.182ZM476.963 160L464.498 119.091H471.103L479.946 150.412H480.372L489.108 119.091H495.819L504.449 150.305H504.875L513.717 119.091H520.322L507.858 160H501.679L492.73 128.572H492.091L483.142 160H476.963ZM540.67 160.959C538.078 160.959 535.725 160.471 533.612 159.494C531.499 158.5 529.821 157.07 528.578 155.206C527.336 153.324 526.714 151.051 526.714 148.388C526.714 146.044 527.176 144.144 528.099 142.688C529.022 141.214 530.256 140.06 531.801 139.226C533.346 138.391 535.05 137.77 536.915 137.362C538.797 136.935 540.688 136.598 542.588 136.349C545.074 136.03 547.089 135.79 548.634 135.63C550.196 135.453 551.332 135.16 552.043 134.751C552.771 134.343 553.135 133.633 553.135 132.621V132.408C553.135 129.78 552.415 127.738 550.977 126.282C549.557 124.826 547.4 124.098 544.505 124.098C541.505 124.098 539.152 124.755 537.447 126.069C535.743 127.383 534.544 128.786 533.852 130.277L527.886 128.146C528.951 125.661 530.372 123.725 532.147 122.34C533.941 120.937 535.894 119.961 538.007 119.411C540.137 118.842 542.233 118.558 544.292 118.558C545.606 118.558 547.115 118.718 548.82 119.038C550.542 119.339 552.202 119.97 553.8 120.929C555.416 121.887 556.757 123.335 557.822 125.27C558.887 127.205 559.42 129.798 559.42 133.047V160H553.135V154.46H552.815C552.389 155.348 551.679 156.298 550.684 157.31C549.69 158.322 548.367 159.183 546.716 159.893C545.065 160.604 543.049 160.959 540.67 160.959ZM541.629 155.312C544.115 155.312 546.21 154.824 547.914 153.848C549.637 152.871 550.933 151.61 551.803 150.066C552.691 148.521 553.135 146.896 553.135 145.192V139.439C552.868 139.759 552.282 140.051 551.377 140.318C550.489 140.566 549.459 140.788 548.287 140.984C547.133 141.161 546.006 141.321 544.905 141.463C543.822 141.587 542.943 141.694 542.268 141.783C540.635 141.996 539.108 142.342 537.687 142.821C536.284 143.283 535.148 143.984 534.278 144.925C533.426 145.849 533 147.109 533 148.707C533 150.891 533.808 152.543 535.423 153.661C537.057 154.762 539.125 155.312 541.629 155.312ZM577.178 135.391V160H570.892V119.091H576.965V125.483H577.498C578.456 123.406 579.912 121.737 581.866 120.476C583.819 119.197 586.34 118.558 589.429 118.558C592.199 118.558 594.623 119.126 596.7 120.263C598.778 121.381 600.394 123.086 601.548 125.376C602.702 127.649 603.279 130.526 603.279 134.006V160H596.993V134.432C596.993 131.218 596.159 128.714 594.49 126.921C592.821 125.11 590.53 124.205 587.618 124.205C585.612 124.205 583.819 124.64 582.238 125.51C580.676 126.38 579.442 127.649 578.536 129.318C577.631 130.987 577.178 133.011 577.178 135.391ZM631.277 176.193C628.241 176.193 625.631 175.803 623.447 175.021C621.263 174.258 619.443 173.246 617.987 171.985C616.549 170.742 615.404 169.411 614.551 167.99L619.559 164.474C620.127 165.22 620.846 166.072 621.716 167.031C622.586 168.008 623.776 168.851 625.285 169.561C626.812 170.289 628.809 170.653 631.277 170.653C634.58 170.653 637.305 169.854 639.454 168.256C641.602 166.658 642.676 164.155 642.676 160.746V152.436H642.144C641.682 153.182 641.025 154.105 640.173 155.206C639.338 156.289 638.131 157.257 636.551 158.109C634.988 158.944 632.875 159.361 630.212 159.361C626.909 159.361 623.944 158.58 621.316 157.017C618.706 155.455 616.638 153.182 615.111 150.199C613.602 147.216 612.847 143.594 612.847 139.332C612.847 135.142 613.584 131.493 615.058 128.386C616.531 125.261 618.582 122.846 621.21 121.142C623.838 119.419 626.874 118.558 630.319 118.558C632.982 118.558 635.095 119.002 636.657 119.89C638.238 120.76 639.445 121.754 640.279 122.873C641.132 123.974 641.789 124.879 642.25 125.589H642.89V119.091H648.962V161.172C648.962 164.688 648.163 167.546 646.565 169.748C644.985 171.967 642.854 173.592 640.173 174.622C637.51 175.669 634.544 176.193 631.277 176.193ZM631.064 153.714C633.586 153.714 635.716 153.137 637.456 151.983C639.196 150.829 640.519 149.169 641.425 147.003C642.33 144.837 642.783 142.244 642.783 139.226C642.783 136.278 642.339 133.677 641.451 131.422C640.564 129.167 639.25 127.401 637.51 126.122C635.77 124.844 633.621 124.205 631.064 124.205C628.401 124.205 626.181 124.879 624.406 126.229C622.648 127.578 621.325 129.389 620.438 131.662C619.567 133.935 619.132 136.456 619.132 139.226C619.132 142.067 619.576 144.579 620.464 146.763C621.37 148.929 622.701 150.634 624.459 151.877C626.235 153.102 628.436 153.714 631.064 153.714Z" fill="black"/>
<defs>
<filter id="filter0_f_11_57" x="1" y="0" width="201" height="201" filterUnits="userSpaceOnUse" color-interpolation-filters="sRGB">
<feFlood flood-opacity="0" result="BackgroundImageFix"/>
<feBlend mode="normal" in="SourceGraphic" in2="BackgroundImageFix" result="shape"/>
<feGaussianBlur stdDeviation="5" result="effect1_foregroundBlur_11_57"/>
</filter>
</defs>
</svg>
