<?xml version="1.0" encoding="UTF-8"?><svg id="Ebene_1" xmlns="http://www.w3.org/2000/svg" viewBox="0 0 500 234"><path d="M158.743,161.745h-15.616v-68.744h45.83v13.918h-30.214v13.24h27.413v13.919h-27.413v27.666Z" fill="#fff"/><path d="M205.081,106.496c-2.32,0-4.3-.82-5.941-2.462-1.642-1.64-2.461-3.62-2.461-5.941s.819-4.299,2.461-5.941,3.62-2.462,5.941-2.462,4.3.821,5.941,2.462c1.64,1.642,2.461,3.621,2.461,5.941s-.821,4.3-2.461,5.941c-1.642,1.642-3.621,2.462-5.941,2.462ZM197.442,161.745v-50.922h15.277v50.922h-15.277Z" fill="#fff"/><path d="M225.28,161.745v-50.922h14.766v7.809h.341c1.131-2.602,2.785-4.668,4.965-6.195,2.176-1.528,4.737-2.292,7.681-2.292h4.329v13.58h-5.008c-4.19,0-7.201,1.16-9.041,3.48-1.837,2.32-2.757,5.347-2.757,9.08v25.461h-15.276Z" fill="#fff"/><path d="M285.282,162.764c-4.922,0-9.279-1.089-13.07-3.267-3.791-2.178-6.762-5.262-8.911-9.252-2.151-3.988-3.225-8.699-3.225-14.13,0-5.374,1.047-10.028,3.14-13.961,2.092-3.931,4.993-6.972,8.699-9.123,3.706-2.151,7.991-3.225,12.858-3.225,4.525,0,8.599.99,12.221,2.969,3.62,1.982,6.493,4.896,8.614,8.742,2.122,3.849,3.183,8.543,3.183,14.088v5.008h-33.693c.566,3.225,1.74,5.686,3.522,7.385,1.783,1.696,3.975,2.546,6.578,2.546,2.15,0,3.89-.481,5.219-1.443,1.329-.961,2.25-2.32,2.759-4.074h15.616c-.623,3.679-2.036,6.846-4.243,9.506-2.207,2.66-4.965,4.697-8.275,6.11-3.311,1.414-6.974,2.122-10.991,2.122ZM275.353,130.428h18.501c-.454-2.828-1.484-4.936-3.097-6.323-1.614-1.385-3.579-2.079-5.899-2.079s-4.315.709-5.984,2.121c-1.67,1.415-2.843,3.51-3.522,6.281Z" fill="#fff"/><path d="M344.437,161.745h-15.617v-54.825h-19.435v-13.918h54.487v13.918h-19.435v54.825Z" fill="#fff"/><path d="M364.89,161.745v-50.922h14.767v7.809h.339c1.131-2.602,2.786-4.668,4.965-6.195,2.177-1.528,4.738-2.292,7.681-2.292h4.329v13.58h-5.008c-4.188,0-7.201,1.16-9.039,3.48-1.839,2.32-2.757,5.347-2.757,9.08v25.461h-15.277Z" fill="#fff"/><path d="M417.762,162.68c-5.261,0-9.477-1.472-12.645-4.413-3.17-2.941-4.753-6.818-4.753-11.628,0-5.035,1.724-8.925,5.177-11.67,3.45-2.743,8.288-4.115,14.512-4.115h11.373v-1.867c0-2.151-.665-3.848-1.994-5.092-1.33-1.244-3.155-1.867-5.474-1.867-1.924,0-3.564.453-4.923,1.358-1.358.905-2.264,2.207-2.715,3.904h-15.447c1.131-5.657,3.677-9.985,7.638-12.984,3.96-2.999,9.082-4.498,15.361-4.498,7.015,0,12.462,1.753,16.338,5.261,3.875,3.508,5.813,8.459,5.813,14.851v31.826h-14.088v-6.534h-.339c-1.415,2.49-3.282,4.357-5.602,5.602-2.321,1.243-5.064,1.867-8.233,1.867ZM421.073,150.966c1.979,0,3.747-.423,5.304-1.273,1.556-.848,2.786-1.994,3.692-3.436.904-1.442,1.358-3.098,1.358-4.965v-.254h-10.693c-1.811,0-3.226.438-4.244,1.315s-1.528,2.051-1.528,3.521c0,1.586.552,2.831,1.656,3.735,1.103.906,2.588,1.358,4.456,1.358Z" fill="#fff"/><path d="M465.204,106.496c-2.321,0-4.301-.82-5.941-2.462-1.642-1.64-2.462-3.62-2.462-5.941s.819-4.299,2.462-5.941c1.64-1.64,3.62-2.462,5.941-2.462s4.299.821,5.94,2.462c1.641,1.642,2.462,3.621,2.462,5.941s-.821,4.3-2.462,5.941c-1.641,1.642-3.621,2.462-5.94,2.462ZM457.566,161.745v-50.922h15.277v50.922h-15.277Z" fill="#fff"/><path d="M484.723,161.745v-71.29h15.277v71.29h-15.277Z" fill="#fff"/><path d="M171.941,223.228h-6.238l-17.059-25.503h-.17v25.503h-5.347v-34.372h6.026l17.271,25.8h.17v-25.8h5.347v34.372Z" fill="#fff"/><path d="M190.654,223.737c-2.376,0-4.477-.545-6.301-1.634-1.825-1.089-3.261-2.632-4.308-4.626s-1.57-4.349-1.57-7.065c0-2.688.509-5.014,1.527-6.981,1.019-1.966,2.425-3.486,4.223-4.561,1.796-1.075,3.854-1.612,6.174-1.612,2.15,0,4.08.487,5.792,1.463,1.711.976,3.062,2.384,4.052,4.223s1.486,4.045,1.486,6.619v2.207h-17.823c.198,2.264.898,4.039,2.1,5.326,1.202,1.288,2.737,1.931,4.604,1.931,1.358,0,2.51-.332,3.459-.997.947-.664,1.576-1.576,1.888-2.738h5.729c-.339,1.755-1.032,3.261-2.079,4.52-1.047,1.258-2.333,2.228-3.861,2.907-1.527.679-3.225,1.018-5.092,1.018ZM184.077,207.74h12.221c-.227-1.867-.87-3.303-1.931-4.308-1.06-1.003-2.383-1.507-3.967-1.507-1.613,0-2.978.51-4.095,1.528-1.118,1.018-1.86,2.448-2.228,4.287Z" fill="#fff"/><path d="M216.793,223.737c-3.14,0-5.693-.778-7.659-2.333-1.967-1.556-3.034-3.65-3.204-6.281h5.432c.198,1.33.785,2.348,1.761,3.055.976.707,2.27,1.062,3.883,1.062,1.443,0,2.539-.276,3.289-.828.749-.552,1.124-1.35,1.124-2.397,0-1.556-1.075-2.561-3.225-3.014l-4.456-.976c-4.668-.99-7.002-3.296-7.002-6.917,0-2.347.884-4.243,2.652-5.686,1.767-1.442,4.08-2.163,6.938-2.163s5.205.742,7.044,2.228c1.839,1.484,2.843,3.472,3.013,5.961h-5.389c-.254-1.216-.806-2.157-1.655-2.821-.848-.665-1.952-.998-3.31-.998-1.216,0-2.192.262-2.928.786-.736.523-1.103,1.252-1.103,2.186,0,.736.247,1.323.743,1.76.494.439,1.266.772,2.312.997l4.583.976c2.319.51,4.067,1.351,5.241,2.525,1.174,1.175,1.761,2.752,1.761,4.732,0,2.49-.877,4.471-2.631,5.941s-4.159,2.207-7.214,2.207Z" fill="#fff"/><path d="M241.364,223.737c-3.142,0-5.694-.778-7.661-2.333-1.967-1.556-3.033-3.65-3.203-6.281h5.431c.198,1.33.786,2.348,1.762,3.055.976.707,2.27,1.062,3.883,1.062,1.442,0,2.539-.276,3.29-.828.748-.552,1.124-1.35,1.124-2.397,0-1.556-1.077-2.561-3.225-3.014l-4.456-.976c-4.668-.99-7.002-3.296-7.002-6.917,0-2.347.884-4.243,2.652-5.686,1.768-1.442,4.08-2.163,6.938-2.163s5.204.742,7.044,2.228c1.837,1.484,2.842,3.472,3.014,5.961h-5.391c-.254-1.216-.806-2.157-1.653-2.821-.85-.665-1.954-.998-3.311-.998-1.217,0-2.193.262-2.928.786-.736.523-1.104,1.252-1.104,2.186,0,.736.247,1.323.743,1.76.494.439,1.266.772,2.312.997l4.582.976c2.32.51,4.065,1.351,5.241,2.525,1.174,1.175,1.76,2.752,1.76,4.732,0,2.49-.878,4.471-2.631,5.941-1.755,1.471-4.16,2.207-7.213,2.207Z" fill="#fff"/><path d="M267.375,223.737c-2.376,0-4.477-.545-6.302-1.634-1.824-1.089-3.261-2.632-4.306-4.626-1.047-1.994-1.57-4.349-1.57-7.065,0-2.688.508-5.014,1.528-6.981,1.018-1.966,2.425-3.486,4.222-4.561,1.796-1.075,3.854-1.612,6.174-1.612,2.15,0,4.08.487,5.792,1.463s3.062,2.384,4.053,4.223c.99,1.839,1.486,4.045,1.486,6.619v2.207h-17.823c.198,2.264.898,4.039,2.1,5.326,1.202,1.288,2.738,1.931,4.605,1.931,1.358,0,2.51-.332,3.459-.997.947-.664,1.576-1.576,1.888-2.738h5.729c-.339,1.755-1.033,3.261-2.08,4.52-1.047,1.258-2.333,2.228-3.861,2.907s-3.225,1.018-5.092,1.018ZM260.797,207.74h12.222c-.228-1.867-.87-3.303-1.931-4.308-1.062-1.003-2.384-1.507-3.968-1.507-1.612,0-2.977.51-4.095,1.528s-1.86,2.448-2.228,4.287Z" fill="#fff"/><path d="M284.263,223.228v-35.645h5.602v35.645h-5.602Z" fill="#fff"/><path d="M301.662,223.228l-7.385-25.461h5.686l4.923,18.417h.169l5.814-18.417h5.558l5.771,18.417h.17l4.964-18.417h5.602l-7.383,25.461h-6.068l-5.814-18.12h-.169l-5.771,18.12h-6.068Z" fill="#fff"/><path d="M343.205,223.695c-2.546,0-4.612-.722-6.196-2.164-1.585-1.443-2.376-3.324-2.376-5.644,0-2.433.812-4.321,2.439-5.665,1.627-1.343,3.926-2.015,6.896-2.015h6.831v-1.189c0-1.612-.445-2.864-1.336-3.754-.891-.891-2.128-1.338-3.712-1.338-1.33,0-2.434.305-3.311.913-.876.609-1.442,1.479-1.697,2.609h-5.686c.453-2.573,1.634-4.582,3.543-6.026,1.91-1.442,4.308-2.163,7.193-2.163,3.252,0,5.792.855,7.617,2.567,1.824,1.712,2.736,4.137,2.736,7.278v16.124h-5.219v-4.03h-.17c-.679,1.415-1.683,2.517-3.012,3.309-1.33.792-2.843,1.189-4.54,1.189ZM344.392,219.197c1.216,0,2.306-.276,3.268-.828.961-.552,1.724-1.3,2.291-2.249.566-.947.848-2.015.848-3.204v-.721h-6.492c-1.415,0-2.498.303-3.246.911-.75.609-1.125,1.451-1.125,2.525,0,1.104.404,1.974,1.21,2.611.807.637,1.888.955,3.246.955Z" fill="#fff"/><path d="M363.106,223.228v-25.461h5.474v3.947h.17c.735-1.415,1.76-2.504,3.077-3.268,1.315-.763,2.849-1.145,4.604-1.145,1.867,0,3.501.445,4.901,1.336,1.401.891,2.496,2.13,3.29,3.713.792,1.584,1.189,3.409,1.189,5.474v15.403h-5.602v-14.385c0-2.008-.502-3.585-1.507-4.732-1.005-1.145-2.412-1.718-4.222-1.718s-3.225.573-4.243,1.718c-1.019,1.146-1.528,2.724-1.528,4.732v14.385h-5.602Z" fill="#fff"/><path d="M403.332,233.922c-3.253,0-5.961-.771-8.126-2.312-2.164-1.543-3.431-3.6-3.798-6.175h5.941c.282,1.189.94,2.115,1.973,2.78,1.032.664,2.326.997,3.883.997,2.065,0,3.685-.594,4.858-1.783,1.174-1.187,1.762-2.8,1.762-4.837v-3.819h-.17c-.679,1.443-1.648,2.546-2.907,3.311-1.259.763-2.736,1.145-4.435,1.145-2.121,0-3.996-.545-5.622-1.634-1.627-1.089-2.893-2.609-3.798-4.561-.906-1.952-1.359-4.216-1.359-6.79s.453-4.837,1.359-6.789c.905-1.952,2.171-3.472,3.798-4.561,1.626-1.089,3.501-1.634,5.622-1.634,1.726,0,3.217.382,4.477,1.145,1.259.765,2.214,1.854,2.864,3.268h.17v-3.905h5.474v24.952c0,3.48-1.068,6.216-3.204,8.21-2.136,1.995-5.057,2.992-8.763,2.992ZM403.757,218.221c1.81,0,3.252-.609,4.328-1.825s1.612-2.828,1.612-4.837v-2.674c0-2.008-.537-3.613-1.612-4.816-1.075-1.202-2.517-1.804-4.328-1.804-2.009,0-3.614.722-4.816,2.164-1.203,1.443-1.804,3.382-1.804,5.813s.6,4.371,1.804,5.814c1.202,1.442,2.807,2.164,4.816,2.164Z" fill="#fff"/><path d="M106.359,55.742c25.595-15.806,54.779-30.137,106.36-30.137V.078c-48.907,0-81.237,12.282-106.36,26.1v29.563Z" fill="#fff"/><path d="M106.36,135.645C81.237,149.463,48.907,161.745,0,161.745v-25.526c51.581,0,80.764-14.33,106.36-30.137v29.563Z" fill="#fff"/><path d="M0,127.71c56.915,0,85.549-18.326,113.24-36.048,25.73-16.467,50.035-32.022,99.479-32.022v-25.526c-56.915,0-85.549,18.326-113.24,36.048C73.749,86.628,49.445,102.184,0,102.184v25.526Z" fill="#fff"/></svg>