<svg width="677" height="201" viewBox="0 0 677 201" fill="none" xmlns="http://www.w3.org/2000/svg">
<g filter="url(#filter0_f_11_57)">
<circle cx="101.5" cy="100.5" r="90.5" fill="black"/>
</g>
<circle cx="101.5" cy="100.5" r="90.5" fill="#D9D9D9"/>
<path d="M271.858 42.4545V97H265.466L235.743 54.1733H235.21V97H228.605V42.4545H234.997L264.827 85.3878H265.359V42.4545H271.858ZM301.375 97.8523C297.433 97.8523 294.033 96.9822 291.174 95.2422C288.333 93.4844 286.14 91.0341 284.595 87.8913C283.068 84.7308 282.305 81.0554 282.305 76.8651C282.305 72.6747 283.068 68.9815 284.595 65.7855C286.14 62.5717 288.289 60.0682 291.041 58.2749C293.811 56.4638 297.042 55.5582 300.735 55.5582C302.866 55.5582 304.97 55.9134 307.047 56.6236C309.125 57.3338 311.016 58.4879 312.72 60.0859C314.425 61.6662 315.783 63.7614 316.795 66.3714C317.807 68.9815 318.313 72.1953 318.313 76.0128V78.6761H286.779V73.2429H311.921C311.921 70.9347 311.46 68.875 310.536 67.0639C309.631 65.2528 308.335 63.8235 306.648 62.7759C304.979 61.7283 303.008 61.2045 300.735 61.2045C298.232 61.2045 296.066 61.826 294.237 63.0689C292.426 64.294 291.032 65.892 290.055 67.8629C289.079 69.8338 288.59 71.9467 288.59 74.2017V77.8239C288.59 80.9134 289.123 83.5323 290.188 85.6808C291.272 87.8114 292.772 89.4361 294.69 90.5547C296.607 91.6555 298.835 92.206 301.375 92.206C303.026 92.206 304.517 91.9751 305.849 91.5135C307.198 91.0341 308.361 90.3239 309.338 89.3828C310.315 88.424 311.069 87.2344 311.602 85.8139L317.674 87.5185C317.035 89.5781 315.961 91.3892 314.452 92.9517C312.942 94.4964 311.078 95.7038 308.859 96.5739C306.639 97.4261 304.144 97.8523 301.375 97.8523ZM356.852 65.2528L351.206 66.8509C350.851 65.9098 350.327 64.9954 349.635 64.1076C348.96 63.2021 348.036 62.4563 346.865 61.8704C345.693 61.2844 344.192 60.9915 342.364 60.9915C339.86 60.9915 337.774 61.5685 336.105 62.7227C334.453 63.859 333.628 65.3061 333.628 67.0639C333.628 68.6264 334.196 69.8604 335.332 70.766C336.469 71.6715 338.244 72.4261 340.659 73.0298L346.731 74.5213C350.389 75.4091 353.115 76.7674 354.908 78.5962C356.701 80.4073 357.598 82.7422 357.598 85.6009C357.598 87.9446 356.923 90.0398 355.574 91.8864C354.242 93.733 352.378 95.1889 349.981 96.2543C347.584 97.3196 344.796 97.8523 341.618 97.8523C337.445 97.8523 333.992 96.9467 331.257 95.1357C328.523 93.3246 326.792 90.679 326.064 87.1989L332.03 85.7074C332.598 87.9091 333.672 89.5604 335.252 90.6612C336.85 91.7621 338.937 92.3125 341.511 92.3125C344.441 92.3125 346.767 91.6911 348.489 90.4482C350.229 89.1875 351.099 87.6783 351.099 85.9205C351.099 84.5 350.602 83.3104 349.608 82.3516C348.614 81.375 347.087 80.647 345.027 80.1676L338.209 78.5696C334.462 77.6818 331.71 76.3058 329.952 74.4414C328.212 72.5593 327.342 70.2067 327.342 67.3835C327.342 65.0753 327.99 63.0334 329.286 61.2578C330.6 59.4822 332.385 58.0884 334.64 57.0763C336.913 56.0643 339.487 55.5582 342.364 55.5582C346.412 55.5582 349.59 56.446 351.898 58.2216C354.224 59.9972 355.876 62.3409 356.852 65.2528ZM396.037 65.2528L390.39 66.8509C390.035 65.9098 389.512 64.9954 388.819 64.1076C388.144 63.2021 387.221 62.4563 386.049 61.8704C384.877 61.2844 383.377 60.9915 381.548 60.9915C379.045 60.9915 376.958 61.5685 375.289 62.7227C373.638 63.859 372.812 65.3061 372.812 67.0639C372.812 68.6264 373.381 69.8604 374.517 70.766C375.653 71.6715 377.429 72.4261 379.844 73.0298L385.916 74.5213C389.574 75.4091 392.299 76.7674 394.093 78.5962C395.886 80.4073 396.782 82.7422 396.782 85.6009C396.782 87.9446 396.108 90.0398 394.758 91.8864C393.427 93.733 391.562 95.1889 389.165 96.2543C386.768 97.3196 383.981 97.8523 380.802 97.8523C376.63 97.8523 373.176 96.9467 370.442 95.1357C367.708 93.3246 365.976 90.679 365.248 87.1989L371.214 85.7074C371.782 87.9091 372.857 89.5604 374.437 90.6612C376.035 91.7621 378.121 92.3125 380.696 92.3125C383.626 92.3125 385.952 91.6911 387.674 90.4482C389.414 89.1875 390.284 87.6783 390.284 85.9205C390.284 84.5 389.787 83.3104 388.792 82.3516C387.798 81.375 386.271 80.647 384.211 80.1676L377.393 78.5696C373.647 77.6818 370.895 76.3058 369.137 74.4414C367.397 72.5593 366.527 70.2067 366.527 67.3835C366.527 65.0753 367.175 63.0334 368.471 61.2578C369.785 59.4822 371.569 58.0884 373.824 57.0763C376.097 56.0643 378.672 55.5582 381.548 55.5582C385.596 55.5582 388.775 56.446 391.083 58.2216C393.409 59.9972 395.06 62.3409 396.037 65.2528ZM423.396 97.8523C419.454 97.8523 416.054 96.9822 413.195 95.2422C410.354 93.4844 408.162 91.0341 406.617 87.8913C405.09 84.7308 404.326 81.0554 404.326 76.8651C404.326 72.6747 405.09 68.9815 406.617 65.7855C408.162 62.5717 410.31 60.0682 413.062 58.2749C415.832 56.4638 419.064 55.5582 422.757 55.5582C424.888 55.5582 426.992 55.9134 429.069 56.6236C431.146 57.3338 433.037 58.4879 434.742 60.0859C436.446 61.6662 437.805 63.7614 438.817 66.3714C439.829 68.9815 440.335 72.1953 440.335 76.0128V78.6761H408.801V73.2429H433.943C433.943 70.9347 433.481 68.875 432.558 67.0639C431.652 65.2528 430.356 63.8235 428.669 62.7759C427 61.7283 425.03 61.2045 422.757 61.2045C420.253 61.2045 418.087 61.826 416.258 63.0689C414.447 64.294 413.053 65.892 412.077 67.8629C411.1 69.8338 410.612 71.9467 410.612 74.2017V77.8239C410.612 80.9134 411.145 83.5323 412.21 85.6808C413.293 87.8114 414.793 89.4361 416.711 90.5547C418.629 91.6555 420.857 92.206 423.396 92.206C425.047 92.206 426.539 91.9751 427.87 91.5135C429.22 91.0341 430.383 90.3239 431.359 89.3828C432.336 88.424 433.091 87.2344 433.623 85.8139L439.696 87.5185C439.057 89.5781 437.982 91.3892 436.473 92.9517C434.964 94.4964 433.1 95.7038 430.88 96.5739C428.661 97.4261 426.166 97.8523 423.396 97.8523ZM456.182 42.4545V97H449.896V42.4545H456.182ZM476.963 97L464.498 56.0909H471.103L479.946 87.4119H480.372L489.108 56.0909H495.819L504.449 87.3054H504.875L513.717 56.0909H520.322L507.858 97H501.679L492.73 65.5724H492.091L483.142 97H476.963ZM540.67 97.9588C538.078 97.9588 535.725 97.4705 533.612 96.494C531.499 95.4996 529.821 94.0703 528.578 92.206C527.336 90.3239 526.714 88.0511 526.714 85.3878C526.714 83.044 527.176 81.1442 528.099 79.6882C529.022 78.2145 530.256 77.0604 531.801 76.2259C533.346 75.3913 535.05 74.7699 536.915 74.3615C538.797 73.9354 540.688 73.598 542.588 73.3494C545.074 73.0298 547.089 72.7901 548.634 72.6303C550.196 72.4528 551.332 72.1598 552.043 71.7514C552.771 71.343 553.135 70.6328 553.135 69.6207V69.4077C553.135 66.7798 552.415 64.7379 550.977 63.282C549.557 61.826 547.4 61.098 544.505 61.098C541.505 61.098 539.152 61.755 537.447 63.0689C535.743 64.3828 534.544 65.7855 533.852 67.277L527.886 65.1463C528.951 62.6605 530.372 60.7251 532.147 59.3402C533.941 57.9375 535.894 56.9609 538.007 56.4105C540.137 55.8423 542.233 55.5582 544.292 55.5582C545.606 55.5582 547.115 55.718 548.82 56.0376C550.542 56.3395 552.202 56.9698 553.8 57.9286C555.416 58.8874 556.757 60.3345 557.822 62.2699C558.887 64.2053 559.42 66.7976 559.42 70.0469V97H553.135V91.4602H552.815C552.389 92.348 551.679 93.2979 550.684 94.31C549.69 95.3221 548.367 96.1832 546.716 96.8935C545.065 97.6037 543.049 97.9588 540.67 97.9588ZM541.629 92.3125C544.115 92.3125 546.21 91.8242 547.914 90.8477C549.637 89.8711 550.933 88.6104 551.803 87.0657C552.691 85.521 553.135 83.8963 553.135 82.1918V76.4389C552.868 76.7585 552.282 77.0515 551.377 77.3178C550.489 77.5664 549.459 77.7884 548.287 77.9837C547.133 78.1612 546.006 78.321 544.905 78.4631C543.822 78.5874 542.943 78.6939 542.268 78.7827C540.635 78.9957 539.108 79.342 537.687 79.8214C536.284 80.283 535.148 80.9844 534.278 81.9254C533.426 82.8487 533 84.1094 533 85.7074C533 87.8913 533.808 89.5426 535.423 90.6612C537.057 91.7621 539.125 92.3125 541.629 92.3125ZM577.178 72.3906V97H570.892V56.0909H576.965V62.483H577.498C578.456 60.4055 579.912 58.7365 581.866 57.4759C583.819 56.1974 586.34 55.5582 589.429 55.5582C592.199 55.5582 594.623 56.1264 596.7 57.2628C598.778 58.3814 600.394 60.0859 601.548 62.3764C602.702 64.6491 603.279 67.5256 603.279 71.0057V97H596.993V71.4318C596.993 68.218 596.159 65.7145 594.49 63.9212C592.821 62.1101 590.53 61.2045 587.618 61.2045C585.612 61.2045 583.819 61.6396 582.238 62.5096C580.676 63.3796 579.442 64.6491 578.536 66.3182C577.631 67.9872 577.178 70.0114 577.178 72.3906ZM631.277 113.193C628.241 113.193 625.631 112.803 623.447 112.021C621.263 111.258 619.443 110.246 617.987 108.985C616.549 107.742 615.404 106.411 614.551 104.99L619.559 101.474C620.127 102.22 620.846 103.072 621.716 104.031C622.586 105.008 623.776 105.851 625.285 106.561C626.812 107.289 628.809 107.653 631.277 107.653C634.58 107.653 637.305 106.854 639.454 105.256C641.602 103.658 642.676 101.155 642.676 97.7457V89.4361H642.144C641.682 90.1818 641.025 91.1051 640.173 92.206C639.338 93.2891 638.131 94.2567 636.551 95.109C634.988 95.9435 632.875 96.3608 630.212 96.3608C626.909 96.3608 623.944 95.5795 621.316 94.017C618.706 92.4545 616.638 90.1818 615.111 87.1989C613.602 84.2159 612.847 80.5937 612.847 76.3324C612.847 72.142 613.584 68.4933 615.058 65.386C616.531 62.261 618.582 59.8462 621.21 58.1417C623.838 56.4194 626.874 55.5582 630.319 55.5582C632.982 55.5582 635.095 56.0021 636.657 56.8899C638.238 57.7599 639.445 58.7543 640.279 59.8729C641.132 60.9737 641.789 61.8793 642.25 62.5895H642.89V56.0909H648.962V98.1719C648.962 101.688 648.163 104.546 646.565 106.748C644.985 108.967 642.854 110.592 640.173 111.622C637.51 112.669 634.544 113.193 631.277 113.193ZM631.064 90.7145C633.586 90.7145 635.716 90.1374 637.456 88.9833C639.196 87.8292 640.519 86.169 641.425 84.0028C642.33 81.8366 642.783 79.2443 642.783 76.2259C642.783 73.2784 642.339 70.6772 641.451 68.4222C640.564 66.1673 639.25 64.4006 637.51 63.1222C635.77 61.8437 633.621 61.2045 631.064 61.2045C628.401 61.2045 626.181 61.8793 624.406 63.2287C622.648 64.5781 621.325 66.3892 620.438 68.6619C619.567 70.9347 619.132 73.456 619.132 76.2259C619.132 79.0668 619.576 81.5792 620.464 83.7631C621.37 85.9293 622.701 87.6339 624.459 88.8768C626.235 90.1019 628.436 90.7145 631.064 90.7145ZM274.868 121.551H263.202C262.989 120.042 262.554 118.701 261.897 117.529C261.24 116.339 260.397 115.327 259.367 114.493C258.337 113.658 257.147 113.019 255.798 112.575C254.466 112.131 253.019 111.909 251.457 111.909C248.634 111.909 246.174 112.611 244.079 114.013C241.984 115.398 240.359 117.423 239.205 120.086C238.051 122.732 237.474 125.945 237.474 129.727C237.474 133.616 238.051 136.883 239.205 139.528C240.377 142.174 242.011 144.172 244.106 145.521C246.201 146.87 248.625 147.545 251.377 147.545C252.922 147.545 254.351 147.341 255.665 146.933C256.996 146.524 258.177 145.929 259.207 145.148C260.237 144.349 261.089 143.381 261.764 142.245C262.456 141.109 262.936 139.812 263.202 138.357L274.868 138.41C274.566 140.913 273.811 143.328 272.604 145.654C271.414 147.962 269.807 150.031 267.783 151.86C265.777 153.671 263.38 155.109 260.592 156.174C257.822 157.222 254.688 157.746 251.19 157.746C246.325 157.746 241.975 156.645 238.14 154.443C234.322 152.241 231.304 149.054 229.085 144.882C226.883 140.709 225.782 135.658 225.782 129.727C225.782 123.779 226.901 118.719 229.138 114.546C231.375 110.374 234.411 107.195 238.246 105.011C242.082 102.81 246.396 101.709 251.19 101.709C254.351 101.709 257.281 102.153 259.979 103.04C262.696 103.928 265.102 105.224 267.197 106.929C269.292 108.616 270.997 110.684 272.311 113.135C273.642 115.585 274.495 118.39 274.868 121.551ZM301.408 157.799C297.271 157.799 293.693 156.92 290.675 155.162C287.674 153.387 285.357 150.919 283.723 147.758C282.09 144.58 281.273 140.896 281.273 136.705C281.273 132.479 282.09 128.786 283.723 125.626C285.357 122.447 287.674 119.979 290.675 118.222C293.693 116.446 297.271 115.558 301.408 115.558C305.545 115.558 309.114 116.446 312.115 118.222C315.133 119.979 317.459 122.447 319.093 125.626C320.726 128.786 321.543 132.479 321.543 136.705C321.543 140.896 320.726 144.58 319.093 147.758C317.459 150.919 315.133 153.387 312.115 155.162C309.114 156.92 305.545 157.799 301.408 157.799ZM301.461 149.01C303.343 149.01 304.915 148.477 306.175 147.412C307.436 146.329 308.386 144.855 309.025 142.991C309.682 141.126 310.01 139.005 310.01 136.625C310.01 134.246 309.682 132.124 309.025 130.26C308.386 128.396 307.436 126.922 306.175 125.839C304.915 124.756 303.343 124.214 301.461 124.214C299.561 124.214 297.963 124.756 296.667 125.839C295.389 126.922 294.421 128.396 293.764 130.26C293.125 132.124 292.805 134.246 292.805 136.625C292.805 139.005 293.125 141.126 293.764 142.991C294.421 144.855 295.389 146.329 296.667 147.412C297.963 148.477 299.561 149.01 301.461 149.01ZM328.92 157V116.091H339.733V123.309H340.213C341.065 120.912 342.486 119.021 344.474 117.636C346.463 116.251 348.842 115.558 351.612 115.558C354.417 115.558 356.806 116.26 358.776 117.662C360.747 119.047 362.061 120.929 362.718 123.309H363.144C363.979 120.965 365.488 119.092 367.672 117.689C369.874 116.268 372.475 115.558 375.476 115.558C379.293 115.558 382.392 116.775 384.771 119.207C387.168 121.622 388.366 125.049 388.366 129.488V157H377.047V131.725C377.047 129.452 376.443 127.748 375.236 126.611C374.029 125.475 372.519 124.907 370.708 124.907C368.649 124.907 367.042 125.564 365.888 126.877C364.733 128.174 364.156 129.887 364.156 132.018V157H353.157V131.485C353.157 129.479 352.58 127.881 351.426 126.691C350.289 125.501 348.789 124.907 346.925 124.907C345.664 124.907 344.528 125.226 343.515 125.865C342.521 126.487 341.731 127.366 341.145 128.502C340.559 129.621 340.266 130.935 340.266 132.444V157H328.92ZM397.328 172.341V116.091H408.515V122.962H409.021C409.518 121.862 410.237 120.743 411.178 119.607C412.137 118.452 413.38 117.494 414.907 116.73C416.451 115.949 418.369 115.558 420.659 115.558C423.642 115.558 426.395 116.339 428.916 117.902C431.437 119.447 433.452 121.782 434.962 124.907C436.471 128.014 437.225 131.911 437.225 136.599C437.225 141.162 436.489 145.015 435.015 148.158C433.559 151.283 431.57 153.653 429.049 155.269C426.545 156.867 423.74 157.666 420.633 157.666C418.431 157.666 416.558 157.302 415.013 156.574C413.486 155.846 412.234 154.931 411.258 153.831C410.281 152.712 409.536 151.585 409.021 150.448H408.674V172.341H397.328ZM408.435 136.545C408.435 138.978 408.772 141.1 409.447 142.911C410.121 144.722 411.098 146.134 412.376 147.146C413.655 148.14 415.208 148.637 417.037 148.637C418.884 148.637 420.446 148.131 421.725 147.119C423.003 146.089 423.971 144.669 424.628 142.858C425.303 141.029 425.64 138.925 425.64 136.545C425.64 134.184 425.311 132.107 424.654 130.313C423.998 128.52 423.03 127.117 421.751 126.105C420.473 125.093 418.902 124.587 417.037 124.587C415.191 124.587 413.628 125.075 412.35 126.052C411.089 127.028 410.121 128.413 409.447 130.207C408.772 132 408.435 134.113 408.435 136.545ZM463.433 157.799C459.225 157.799 455.603 156.947 452.566 155.242C449.548 153.52 447.222 151.087 445.588 147.945C443.955 144.784 443.138 141.047 443.138 136.732C443.138 132.524 443.955 128.831 445.588 125.652C447.222 122.474 449.521 119.997 452.487 118.222C455.469 116.446 458.967 115.558 462.98 115.558C465.679 115.558 468.191 115.993 470.517 116.863C472.861 117.716 474.903 119.003 476.643 120.725C478.401 122.447 479.768 124.614 480.745 127.224C481.721 129.816 482.21 132.852 482.21 136.332V139.449H447.666V132.417H471.529C471.529 130.784 471.174 129.337 470.464 128.076C469.754 126.815 468.768 125.83 467.508 125.12C466.265 124.392 464.818 124.028 463.167 124.028C461.444 124.028 459.917 124.427 458.586 125.226C457.272 126.007 456.242 127.064 455.496 128.396C454.75 129.71 454.369 131.174 454.351 132.79V139.475C454.351 141.499 454.724 143.248 455.469 144.722C456.233 146.196 457.307 147.332 458.692 148.131C460.077 148.93 461.719 149.33 463.619 149.33C464.88 149.33 466.034 149.152 467.082 148.797C468.129 148.442 469.026 147.909 469.772 147.199C470.517 146.489 471.086 145.619 471.476 144.589L481.97 145.281C481.437 147.803 480.345 150.004 478.694 151.886C477.06 153.751 474.947 155.207 472.355 156.254C469.781 157.284 466.806 157.799 463.433 157.799ZM511.373 116.091V124.614H486.737V116.091H511.373ZM492.33 106.29H503.676V144.429C503.676 145.477 503.836 146.293 504.156 146.879C504.475 147.447 504.919 147.847 505.487 148.078C506.073 148.309 506.748 148.424 507.511 148.424C508.044 148.424 508.577 148.38 509.109 148.291C509.642 148.184 510.05 148.104 510.335 148.051L512.119 156.494C511.551 156.672 510.752 156.876 509.722 157.107C508.692 157.355 507.44 157.506 505.967 157.559C503.232 157.666 500.835 157.302 498.776 156.467C496.734 155.633 495.145 154.337 494.008 152.579C492.872 150.821 492.313 148.602 492.33 145.92V106.29ZM518.764 157V116.091H530.11V157H518.764ZM524.464 110.817C522.777 110.817 521.33 110.258 520.122 109.14C518.933 108.003 518.338 106.645 518.338 105.065C518.338 103.502 518.933 102.162 520.122 101.043C521.33 99.9066 522.777 99.3384 524.464 99.3384C526.15 99.3384 527.589 99.9066 528.778 101.043C529.986 102.162 530.589 103.502 530.589 105.065C530.589 106.645 529.986 108.003 528.778 109.14C527.589 110.258 526.15 110.817 524.464 110.817ZM560.958 116.091V124.614H536.322V116.091H560.958ZM541.915 106.29H553.261V144.429C553.261 145.477 553.421 146.293 553.741 146.879C554.06 147.447 554.504 147.847 555.072 148.078C555.658 148.309 556.333 148.424 557.096 148.424C557.629 148.424 558.162 148.38 558.694 148.291C559.227 148.184 559.635 148.104 559.919 148.051L561.704 156.494C561.136 156.672 560.337 156.876 559.307 157.107C558.277 157.355 557.025 157.506 555.552 157.559C552.817 157.666 550.42 157.302 548.361 156.467C546.319 155.633 544.729 154.337 543.593 152.579C542.457 150.821 541.897 148.602 541.915 145.92V106.29ZM568.349 157V116.091H579.695V157H568.349ZM574.049 110.817C572.362 110.817 570.915 110.258 569.707 109.14C568.518 108.003 567.923 106.645 567.923 105.065C567.923 103.502 568.518 102.162 569.707 101.043C570.915 99.9066 572.362 99.3384 574.049 99.3384C575.735 99.3384 577.174 99.9066 578.363 101.043C579.571 102.162 580.174 103.502 580.174 105.065C580.174 106.645 579.571 108.003 578.363 109.14C577.174 110.258 575.735 110.817 574.049 110.817ZM607.267 157.799C603.13 157.799 599.552 156.92 596.534 155.162C593.533 153.387 591.216 150.919 589.583 147.758C587.949 144.58 587.132 140.896 587.132 136.705C587.132 132.479 587.949 128.786 589.583 125.626C591.216 122.447 593.533 119.979 596.534 118.222C599.552 116.446 603.13 115.558 607.267 115.558C611.404 115.558 614.973 116.446 617.974 118.222C620.992 119.979 623.318 122.447 624.952 125.626C626.585 128.786 627.402 132.479 627.402 136.705C627.402 140.896 626.585 144.58 624.952 147.758C623.318 150.919 620.992 153.387 617.974 155.162C614.973 156.92 611.404 157.799 607.267 157.799ZM607.32 149.01C609.203 149.01 610.774 148.477 612.035 147.412C613.295 146.329 614.245 144.855 614.884 142.991C615.541 141.126 615.87 139.005 615.87 136.625C615.87 134.246 615.541 132.124 614.884 130.26C614.245 128.396 613.295 126.922 612.035 125.839C610.774 124.756 609.203 124.214 607.32 124.214C605.421 124.214 603.823 124.756 602.526 125.839C601.248 126.922 600.28 128.396 599.623 130.26C598.984 132.124 598.665 134.246 598.665 136.625C598.665 139.005 598.984 141.126 599.623 142.991C600.28 144.855 601.248 146.329 602.526 147.412C603.823 148.477 605.421 149.01 607.32 149.01ZM646.126 133.349V157H634.78V116.091H645.593V123.309H646.072C646.978 120.929 648.496 119.047 650.627 117.662C652.757 116.26 655.341 115.558 658.377 115.558C661.218 115.558 663.695 116.18 665.808 117.423C667.921 118.665 669.563 120.441 670.735 122.749C671.907 125.04 672.493 127.774 672.493 130.952V157H661.147V132.977C661.165 130.473 660.525 128.52 659.229 127.117C657.933 125.697 656.149 124.987 653.876 124.987C652.349 124.987 650.999 125.315 649.828 125.972C648.673 126.629 647.768 127.588 647.111 128.848C646.472 130.091 646.143 131.592 646.126 133.349Z" fill="black"/>
<defs>
<filter id="filter0_f_11_57" x="1" y="0" width="201" height="201" filterUnits="userSpaceOnUse" color-interpolation-filters="sRGB">
<feFlood flood-opacity="0" result="BackgroundImageFix"/>
<feBlend mode="normal" in="SourceGraphic" in2="BackgroundImageFix" result="shape"/>
<feGaussianBlur stdDeviation="5" result="effect1_foregroundBlur_11_57"/>
</filter>
</defs>
</svg>
